<svg xmlns="http://www.w3.org/2000/svg" xmlns:xlink="http://www.w3.org/1999/xlink" width="1080" zoomAndPan="magnify" viewBox="0 0 810 1012.49997" height="1350" preserveAspectRatio="xMidYMid meet" version="1.0"><defs><clipPath id="0e7f6820a7"><path d="M 8.394531 7.359375 L 801.503906 7.359375 L 801.503906 1008 L 8.394531 1008 Z M 8.394531 7.359375 " clip-rule="nonzero"/></clipPath></defs><g clip-path="url(#0e7f6820a7)"><path fill="#9163cb" d="M 271.25 764.050781 L 250.972656 667.722656 C 248.328125 655.199219 244.167969 643.957031 238.339844 633.714844 C 232.527344 623.5 224.988281 614.183594 215.574219 605.488281 C 187.261719 579.449219 164.3125 547.589844 148.601562 511.800781 C 133.480469 477.351562 125.085938 439.3125 125.085938 399.378906 C 125.085938 322.042969 156.425781 252.035156 207.097656 201.363281 C 257.769531 150.691406 327.777344 119.351562 405.109375 119.351562 C 482.417969 119.351562 552.429688 150.695312 603.117188 201.371094 C 653.832031 252.074219 685.203125 322.082031 685.203125 399.378906 C 685.203125 439.3125 676.804688 477.347656 661.679688 511.800781 C 645.972656 547.589844 623.023438 579.449219 594.710938 605.488281 C 585.320312 614.132812 577.929688 623.476562 572.175781 633.738281 C 566.386719 644.070312 562.203125 655.417969 559.269531 667.992188 L 536.917969 762.65625 C 540.664062 764.988281 544.097656 767.824219 547.132812 771.082031 C 555.777344 780.355469 561.167969 793.101562 561.292969 807.164062 L 561.296875 807.644531 L 561.335938 807.644531 L 561.335938 807.65625 L 561.296875 807.65625 L 561.296875 807.730469 C 561.292969 821.984375 555.882812 834.917969 547.132812 844.300781 C 545.78125 845.757812 544.34375 847.125 542.839844 848.402344 C 544.34375 849.679688 545.777344 851.046875 547.132812 852.5 C 555.871094 861.871094 561.285156 874.796875 561.296875 889.046875 L 561.335938 889.046875 L 561.335938 889.148438 C 561.335938 903.371094 555.910156 916.308594 547.132812 925.71875 C 538.148438 935.355469 525.699219 941.316406 511.921875 941.316406 L 496.035156 941.316406 C 490.351562 959.328125 479.476562 975.023438 465.164062 986.644531 C 448.738281 999.984375 427.832031 1007.976562 405.109375 1007.976562 C 382.386719 1007.976562 361.5 999.988281 345.09375 986.652344 C 330.789062 975.03125 319.921875 959.332031 314.242188 941.316406 L 298.359375 941.316406 C 284.582031 941.316406 272.132812 935.355469 263.152344 925.71875 C 254.382812 916.304688 248.953125 903.367188 248.953125 889.140625 L 248.953125 889.089844 C 248.953125 874.859375 254.382812 861.917969 263.15625 852.5 C 264.511719 851.046875 265.945312 849.679688 267.445312 848.402344 C 265.941406 847.121094 264.507812 845.753906 263.152344 844.300781 C 254.378906 834.886719 248.949219 821.945312 248.949219 807.722656 L 248.988281 807.722656 L 248.988281 807.664062 C 248.988281 793.40625 254.40625 780.464844 263.152344 771.082031 C 265.605469 768.449219 268.320312 766.089844 271.25 764.050781 Z M 582.378906 369.570312 C 583.09375 361.773438 582.734375 350.75 580.832031 340.992188 C 580.671875 340.171875 580.503906 339.359375 580.328125 338.570312 C 579 341.269531 577.386719 343.867188 575.527344 346.320312 C 571.640625 351.441406 566.679688 355.933594 561.066406 359.363281 C 555.386719 362.835938 548.984375 365.277344 542.285156 366.25 C 534.082031 367.449219 525.472656 366.457031 517.203125 362.519531 C 513.695312 369.46875 505.230469 383.183594 491.34375 387.464844 C 488.867188 388.226562 486.382812 388.734375 483.910156 389.007812 L 483.683594 389.039062 C 481.121094 389.308594 478.609375 389.339844 476.15625 389.164062 C 471.941406 388.863281 468.761719 385.203125 469.0625 380.988281 C 469.355469 376.769531 473.019531 373.59375 477.234375 373.886719 C 478.871094 374.007812 480.484375 373.996094 482.066406 373.824219 L 482.265625 373.808594 C 483.78125 373.636719 485.316406 373.324219 486.851562 372.851562 C 498.390625 369.292969 504.65625 353.277344 504.828125 352.839844 L 506.394531 348.683594 C 507.882812 344.730469 512.292969 342.734375 516.246094 344.222656 C 517.117188 344.546875 517.890625 345.015625 518.554688 345.589844 C 525.464844 350.679688 533.03125 352.132812 540.128906 351.097656 C 544.707031 350.433594 549.132812 348.734375 553.097656 346.308594 C 557.132812 343.84375 560.65625 340.667969 563.367188 337.097656 C 567.511719 331.628906 569.78125 325.25 569.023438 319.160156 C 568.894531 318.480469 568.851562 317.773438 568.910156 317.046875 C 569.1875 313.875 569.125 310.738281 568.773438 307.699219 C 567.722656 298.707031 564.144531 290.382812 559.117188 284.175781 C 554.882812 278.933594 549.707031 275.328125 544.382812 274.375 C 543.558594 276.429688 542.457031 278.855469 541.035156 281.375 C 537.175781 288.203125 530.925781 295.875 521.253906 299.738281 C 519.222656 300.542969 517.171875 301.140625 515.101562 301.535156 C 512.945312 301.9375 510.8125 302.144531 508.695312 302.144531 C 503.257812 302.144531 497.5625 300.902344 491.628906 298.429688 C 489.625 297.59375 487.59375 296.617188 485.535156 295.496094 C 484.765625 298.398438 483.640625 301.183594 482.148438 303.796875 L 482.132812 303.820312 L 482.148438 303.828125 C 480.011719 307.566406 477.203125 310.847656 473.855469 313.597656 C 470.527344 316.332031 466.699219 318.488281 462.507812 320.019531 C 458.535156 321.457031 454.152344 319.40625 452.714844 315.433594 C 451.277344 311.464844 453.328125 307.082031 457.292969 305.640625 C 459.882812 304.699219 462.195312 303.40625 464.152344 301.800781 C 466.019531 300.265625 467.609375 298.390625 468.851562 296.222656 L 468.867188 296.230469 C 469.929688 294.355469 470.667969 292.304688 471.070312 290.136719 C 471.492188 287.878906 471.554688 285.453125 471.257812 282.90625 C 471.042969 281.023438 471.523438 279.054688 472.757812 277.425781 C 475.304688 274.054688 480.101562 273.382812 483.476562 275.929688 C 488.445312 279.679688 493.128906 282.472656 497.496094 284.292969 C 501.515625 285.96875 505.253906 286.808594 508.695312 286.808594 C 509.996094 286.808594 511.195312 286.703125 512.28125 286.5 C 513.457031 286.277344 514.570312 285.957031 515.621094 285.539062 C 521.308594 283.269531 525.226562 278.335938 527.738281 273.890625 C 529.703125 270.410156 530.800781 267.300781 531.28125 265.75 C 531.121094 262.585938 530.074219 259.101562 528.34375 255.679688 C 525.964844 250.972656 522.339844 246.515625 517.941406 243.238281 C 513.847656 240.183594 509.117188 238.226562 504.226562 238.226562 C 501.433594 238.226562 498.542969 238.851562 495.628906 240.269531 C 495.101562 240.566406 494.53125 240.808594 493.921875 240.980469 C 489.855469 242.136719 485.617188 239.777344 484.460938 235.710938 C 483.167969 231.191406 479.175781 223.816406 472.75 218.464844 C 468.585938 214.992188 463.378906 212.46875 457.261719 212.46875 C 450.75 212.46875 445.792969 215.375 442.363281 220.21875 L 442.121094 220.59375 C 437.707031 227.085938 435.523438 236.789062 435.523438 248.023438 L 435.523438 513.574219 C 435.523438 535.179688 440.855469 549.226562 448.839844 557.46875 C 453.894531 562.675781 460.085938 565.605469 466.648438 566.691406 C 473.511719 567.828125 480.828125 567.007812 487.757812 564.6875 C 500.199219 560.527344 511.210938 551.707031 516.167969 540.816406 C 517.527344 537.460938 521.136719 535.449219 524.808594 536.210938 C 525.574219 536.371094 526.355469 536.457031 527.140625 536.464844 C 532.941406 536.53125 540.15625 533.328125 546.675781 527.34375 C 553.585938 521 559.457031 511.660156 561.933594 499.828125 C 562.707031 496.144531 563.15625 492.25 563.207031 488.175781 C 563.207031 485.90625 564.214844 483.65625 566.144531 482.152344 C 568.292969 480.480469 576.078125 472.75 579.472656 462.960938 C 580.980469 458.621094 581.511719 453.890625 579.949219 449.304688 C 575.898438 446.84375 571.792969 445.375 567.800781 444.921875 C 563.414062 444.425781 559.085938 445.15625 555.054688 447.144531 C 550.914062 449.191406 547.351562 452.4375 544.664062 456.445312 C 541.914062 460.550781 540.078125 465.449219 539.46875 470.695312 L 538.890625 475.628906 C 538.410156 479.832031 534.617188 482.847656 530.414062 482.367188 C 529.523438 482.269531 528.6875 482.015625 527.929688 481.644531 L 524.160156 479.9375 C 521.144531 478.566406 517.769531 478.117188 514.554688 478.3125 C 510.882812 478.535156 507.546875 479.574219 505.277344 481.015625 C 501.191406 483.601562 497.710938 488.226562 496.117188 494.308594 C 494.65625 499.875 494.773438 506.65625 497.351562 514.285156 C 498.710938 518.285156 496.5625 522.632812 492.558594 523.984375 C 488.558594 525.34375 484.214844 523.195312 482.859375 519.195312 C 479.242188 508.515625 479.164062 498.730469 481.324219 490.476562 C 483.96875 480.386719 489.964844 472.582031 497.070312 468.078125 C 501.359375 465.359375 507.332031 463.425781 513.65625 463.042969 C 517.378906 462.816406 521.273438 463.113281 525.078125 464.09375 C 526.378906 458.230469 528.746094 452.738281 531.964844 447.9375 C 536.125 441.734375 541.71875 436.675781 548.289062 433.433594 C 555.019531 430.105469 562.210938 428.890625 569.480469 429.710938 C 574.578125 430.285156 579.679688 431.863281 584.640625 434.402344 C 590.164062 427.117188 592.242188 418.070312 591.96875 409.429688 C 591.65625 399.496094 588.375 390.320312 583.722656 385 C 580.242188 384.488281 576.191406 385.421875 572.605469 387.488281 C 568.863281 389.644531 565.769531 393.003906 564.578125 397.175781 L 564.367188 398.050781 C 563.476562 402.183594 559.398438 404.8125 555.265625 403.921875 C 551.128906 403.027344 548.503906 398.953125 549.394531 394.816406 L 549.71875 393.496094 L 549.832031 393.101562 C 552.179688 384.78125 558.011719 378.28125 565.003906 374.25 C 570.375 371.152344 576.53125 369.492188 582.378906 369.570312 Z M 596.753906 376.796875 C 602.746094 384.695312 606.851562 396.558594 607.242188 408.949219 C 607.644531 421.746094 604.195312 435.308594 594.957031 446.019531 C 597.136719 453.636719 596.261719 461.140625 593.90625 467.933594 C 590.277344 478.398438 582.832031 487.222656 578.371094 491.632812 C 578.15625 495.59375 577.65625 499.363281 576.90625 502.941406 C 573.710938 518.203125 566.058594 530.320312 557.039062 538.601562 C 547.867188 547.019531 537.054688 551.613281 527.6875 551.734375 C 520.257812 564.363281 507.121094 574.332031 492.609375 579.183594 C 483.398438 582.261719 473.5625 583.335938 464.191406 581.785156 C 454.511719 580.179688 445.359375 575.847656 437.882812 568.128906 C 427.269531 557.1875 420.1875 539.585938 420.1875 513.574219 L 420.1875 248.023438 C 420.1875 233.835938 423.265625 221.113281 429.488281 211.972656 L 429.820312 211.519531 C 436.121094 202.53125 445.253906 197.136719 457.261719 197.136719 C 467.390625 197.136719 475.851562 201.167969 482.511719 206.722656 C 488.589844 211.789062 493.15625 218.222656 496.078125 223.894531 C 498.824219 223.214844 501.546875 222.890625 504.226562 222.890625 C 512.660156 222.890625 520.507812 226.042969 527.105469 230.957031 C 533.390625 235.648438 538.582031 242.035156 542.003906 248.796875 C 543.699219 252.15625 544.976562 255.636719 545.757812 259.082031 C 555.363281 260.382812 564.234375 266.125 571.039062 274.53125 C 577.785156 282.871094 582.589844 293.996094 583.984375 305.960938 C 584.28125 308.523438 584.429688 311.117188 584.40625 313.71875 C 590.238281 318.832031 593.886719 327.941406 595.867188 338.117188 C 598.449219 351.378906 598.410156 367.230469 596.753906 376.796875 Z M 458.960938 469.554688 C 454.777344 470.167969 450.886719 467.269531 450.273438 463.085938 C 449.664062 458.902344 452.558594 455.011719 456.746094 454.402344 C 457.636719 454.269531 458.355469 453.671875 458.882812 452.816406 C 459.855469 451.269531 460.371094 449.09375 460.472656 446.722656 L 460.476562 446.652344 C 460.574219 444.019531 460.167969 441.320312 459.300781 438.996094 C 458.441406 436.679688 457.246094 434.898438 455.890625 434.441406 C 451.890625 433.101562 449.726562 428.773438 451.070312 424.769531 C 451.226562 424.292969 451.429688 423.84375 451.667969 423.421875 C 451.679688 423.402344 456.324219 415.472656 454.117188 410.6875 C 452.347656 406.847656 454.023438 402.304688 457.859375 400.535156 C 461.699219 398.765625 466.246094 400.445312 468.011719 404.277344 C 471.238281 411.28125 469.734375 419.078125 467.878906 424.429688 C 470.375 426.925781 472.300781 430.125 473.621094 433.667969 C 475.191406 437.890625 475.929688 442.6875 475.75 447.253906 L 475.746094 447.382812 C 475.535156 452.273438 474.28125 457.0625 471.882812 460.902344 C 469.046875 465.453125 464.785156 468.691406 458.960938 469.554688 Z M 226.679688 387.167969 C 221.96875 392.472656 218.632812 401.714844 218.320312 411.730469 C 218 421.871094 220.910156 432.574219 228.84375 440.332031 L 229.386719 440.878906 C 229.628906 441.101562 229.851562 441.335938 230.058594 441.585938 C 231.78125 443.371094 236.761719 443.96875 242.535156 443.820312 C 251.234375 443.601562 260.660156 441.394531 265.414062 438.695312 C 269.085938 436.609375 273.753906 437.898438 275.835938 441.570312 C 277.917969 445.238281 276.632812 449.910156 272.960938 451.988281 C 266.328125 455.757812 253.917969 458.816406 242.890625 459.09375 C 238.132812 459.214844 233.492188 458.804688 229.398438 457.722656 C 229.433594 460.296875 229.972656 462.839844 230.8125 465.265625 C 234.207031 475.050781 241.992188 482.777344 244.144531 484.453125 C 246.066406 485.960938 247.074219 488.207031 247.078125 490.476562 C 247.132812 494.550781 247.582031 498.445312 248.351562 502.128906 C 250.828125 513.960938 256.703125 523.300781 263.609375 529.644531 C 270.128906 535.632812 277.34375 538.832031 283.144531 538.761719 C 283.929688 538.753906 284.710938 538.671875 285.472656 538.511719 C 285.808594 538.441406 286.140625 538.394531 286.472656 538.367188 C 288.238281 537.164062 290.5 536.703125 292.726562 537.292969 L 293.199219 537.394531 C 296.84375 538.183594 301.253906 537.273438 305.113281 535.046875 C 308.855469 532.890625 311.949219 529.53125 313.144531 525.363281 L 313.355469 524.484375 C 314.242188 520.351562 318.320312 517.722656 322.453125 518.617188 C 326.589844 519.507812 329.214844 523.582031 328.328125 527.71875 L 328.003906 529.042969 L 327.890625 529.433594 C 325.539062 537.753906 319.710938 544.257812 312.71875 548.285156 C 308.871094 550.503906 304.625 551.984375 300.378906 552.621094 C 306.078125 559.050781 313.964844 564.128906 322.527344 566.988281 C 329.460938 569.304688 336.773438 570.125 343.640625 568.992188 C 350.199219 567.90625 356.394531 564.976562 361.441406 559.765625 C 369.429688 551.527344 374.761719 537.480469 374.761719 515.875 L 374.761719 250.324219 C 374.761719 239.089844 372.578125 229.390625 368.164062 222.894531 L 367.921875 222.519531 C 364.488281 217.675781 359.535156 214.769531 353.019531 214.769531 C 346.910156 214.769531 341.699219 217.292969 337.535156 220.765625 C 334.027344 223.6875 331.238281 227.21875 329.222656 230.554688 C 335.925781 233.328125 344.1875 239.527344 344.140625 253.199219 C 344.140625 257.417969 340.71875 260.835938 336.503906 260.835938 C 332.285156 260.835938 328.867188 257.417969 328.867188 253.199219 C 328.898438 244.34375 319.480469 243.570312 319.457031 243.570312 L 319.1875 243.542969 C 318.265625 243.628906 317.308594 243.550781 316.363281 243.28125 C 315.753906 243.109375 315.1875 242.867188 314.660156 242.566406 C 311.742188 241.152344 308.851562 240.527344 306.0625 240.527344 C 301.167969 240.527344 296.441406 242.484375 292.347656 245.539062 C 287.945312 248.816406 284.324219 253.273438 281.945312 257.980469 C 281.117188 259.613281 280.445312 261.265625 279.953125 262.886719 C 280.582031 263.453125 281.128906 264.140625 281.550781 264.929688 C 284.734375 270.808594 287.953125 277.992188 289.769531 286.320312 C 291.621094 294.816406 291.996094 304.429688 289.382812 314.9375 C 288.015625 320.457031 285.078125 325.417969 281.265625 329.597656 C 277.238281 334.015625 272.140625 337.621094 266.902344 340.074219 C 263.085938 341.859375 258.539062 340.210938 256.75 336.394531 C 254.964844 332.574219 256.613281 328.027344 260.429688 326.238281 C 263.898438 324.617188 267.273438 322.226562 269.945312 319.296875 C 272.152344 316.875 273.820312 314.144531 274.53125 311.28125 C 276.503906 303.34375 276.214844 296.039062 274.796875 289.550781 C 273.757812 284.777344 272.097656 280.398438 270.273438 276.511719 L 270.09375 276.488281 C 269.195312 276.402344 268.273438 276.40625 267.339844 276.488281 C 261.515625 276.992188 255.785156 280.765625 251.171875 286.472656 C 246.144531 292.683594 242.5625 301.003906 241.515625 310 C 241.15625 313.039062 241.101562 316.171875 241.375 319.347656 C 241.675781 322.851562 239.570312 326.007812 236.433594 327.183594 C 233.335938 328.652344 231.015625 335.277344 229.449219 343.289062 C 227.613281 352.730469 227.214844 363.355469 227.84375 371.097656 C 231.125 370.035156 234.683594 369.191406 238.394531 368.785156 C 242.765625 368.304688 247.347656 368.453125 251.957031 369.5625 C 256.671875 370.703125 261.136719 373.117188 265.007812 376.503906 C 268.742188 379.773438 271.941406 383.941406 274.269531 388.714844 C 276.019531 392.296875 277.195312 396.074219 277.746094 399.738281 L 277.789062 400.011719 C 278.070312 402.011719 278.164062 403.992188 278.058594 405.902344 C 286.082031 405.050781 295.753906 405.746094 304.585938 410.992188 C 312.515625 415.707031 319.507812 423.882812 323.570312 437.511719 C 324.777344 441.5625 322.472656 445.824219 318.421875 447.035156 C 314.371094 448.242188 310.101562 445.933594 308.894531 441.882812 C 306.089844 432.472656 301.675781 427.070312 296.800781 424.171875 C 289.78125 419.996094 281.261719 420.550781 275.148438 421.828125 L 269.511719 423.023438 C 265.375 423.878906 261.328125 421.222656 260.46875 417.09375 C 260.199219 415.78125 260.277344 414.476562 260.644531 413.28125 L 262.542969 406.835938 C 262.867188 405.5625 262.886719 403.957031 262.636719 402.164062 L 262.609375 401.953125 C 262.292969 399.882812 261.578125 397.644531 260.492188 395.421875 C 259.039062 392.445312 257.125 389.914062 254.945312 388.003906 C 252.902344 386.21875 250.644531 384.964844 248.359375 384.417969 C 245.644531 383.761719 242.808594 383.691406 240.011719 384 C 236.441406 384.386719 232.929688 385.417969 229.789062 386.652344 C 228.765625 387.050781 227.710938 387.214844 226.679688 387.167969 Z M 203.042969 411.25 C 203.433594 398.855469 207.539062 386.996094 213.53125 379.097656 C 211.875 369.53125 211.832031 353.679688 214.417969 340.414062 C 216.402344 330.242188 220.046875 321.128906 225.882812 316.019531 C 225.859375 313.417969 226 310.828125 226.300781 308.261719 C 227.695312 296.292969 232.5 285.171875 239.25 276.828125 C 246.046875 268.421875 254.921875 262.683594 264.527344 261.382812 C 265.308594 257.933594 266.585938 254.453125 268.285156 251.097656 C 271.703125 244.335938 276.890625 237.949219 283.183594 233.257812 C 289.773438 228.34375 297.625 225.191406 306.0625 225.191406 C 308.738281 225.191406 311.464844 225.511719 314.207031 226.195312 C 317.128906 220.527344 321.695312 214.089844 327.769531 209.023438 C 334.4375 203.46875 342.894531 199.4375 353.019531 199.4375 C 365.03125 199.4375 374.160156 204.828125 380.46875 213.820312 L 380.800781 214.269531 C 387.023438 223.417969 390.097656 236.136719 390.097656 250.324219 L 390.097656 515.875 C 390.097656 541.886719 383.011719 559.484375 372.40625 570.429688 C 364.921875 578.144531 355.777344 582.484375 346.097656 584.082031 C 336.726562 585.636719 326.890625 584.5625 317.675781 581.484375 C 303.164062 576.632812 290.027344 566.660156 282.59375 554.035156 C 273.234375 553.914062 262.421875 549.320312 253.246094 540.902344 C 244.222656 532.617188 236.574219 520.5 233.378906 505.242188 C 232.628906 501.664062 232.125 497.894531 231.914062 493.933594 C 227.453125 489.519531 220.007812 480.695312 216.378906 470.234375 C 214.023438 463.441406 213.148438 455.9375 215.324219 448.316406 C 206.089844 437.609375 202.644531 424.046875 203.042969 411.25 Z M 365.128906 293.40625 C 367.746094 296.714844 367.179688 301.519531 363.871094 304.128906 C 360.566406 306.742188 355.765625 306.179688 353.152344 302.871094 C 352.667969 302.261719 351.828125 301.714844 350.738281 301.253906 C 347.902344 300.054688 344.003906 299.722656 339.910156 300.308594 C 335.726562 300.910156 331.542969 302.46875 328.296875 305.042969 C 326.242188 306.667969 324.550781 308.71875 323.503906 311.199219 C 321.867188 315.082031 317.386719 316.90625 313.5 315.269531 C 309.617188 313.632812 307.792969 309.15625 309.429688 305.269531 C 311.539062 300.273438 314.847656 296.214844 318.832031 293.0625 C 324.332031 288.707031 331.117188 286.109375 337.757812 285.15625 C 344.488281 284.1875 351.289062 284.902344 356.671875 287.179688 C 360.070312 288.617188 362.984375 290.699219 365.128906 293.40625 Z M 319.828125 327.742188 C 324.015625 327.128906 327.902344 330.027344 328.515625 334.210938 C 329.125 338.394531 326.230469 342.28125 322.042969 342.894531 C 321.15625 343.027344 320.4375 343.625 319.90625 344.480469 C 318.933594 346.027344 318.417969 348.203125 318.316406 350.574219 L 318.3125 350.640625 C 318.214844 353.273438 318.621094 355.972656 319.488281 358.296875 C 320.347656 360.617188 321.542969 362.398438 322.898438 362.851562 C 326.902344 364.191406 329.0625 368.523438 327.722656 372.527344 C 327.5625 373 327.359375 373.453125 327.121094 373.875 C 327.113281 373.894531 322.464844 381.820312 324.671875 386.609375 C 326.441406 390.441406 324.765625 394.988281 320.929688 396.761719 C 317.089844 398.527344 312.546875 396.851562 310.777344 393.015625 C 307.550781 386.015625 309.054688 378.21875 310.910156 372.867188 C 308.417969 370.367188 306.492188 367.171875 305.167969 363.628906 C 303.597656 359.40625 302.859375 354.609375 303.039062 350.039062 L 303.042969 349.914062 C 303.253906 345.023438 304.511719 340.234375 306.90625 336.390625 C 309.742188 331.84375 314.003906 328.605469 319.828125 327.742188 Z M 343.023438 480.753906 C 345.261719 477.496094 349.675781 476.457031 353.15625 478.472656 C 356.808594 480.589844 358.058594 485.273438 355.941406 488.925781 L 352.15625 495.433594 C 350.042969 499.085938 345.359375 500.335938 341.703125 498.21875 C 341.246094 497.949219 340.820312 497.640625 340.4375 497.300781 C 335.820312 493.722656 331.40625 491.773438 327.453125 491.472656 C 324 491.210938 320.785156 492.3125 318.054688 494.785156 C 314.925781 497.613281 310.097656 497.371094 307.269531 494.246094 C 304.441406 491.125 304.683594 486.292969 307.8125 483.464844 C 313.8125 478.027344 320.921875 475.617188 328.589844 476.199219 C 333.300781 476.558594 338.164062 478.078125 343.023438 480.753906 Z M 332.402344 918.316406 L 511.921875 918.316406 C 519.078125 918.316406 525.589844 915.171875 530.332031 910.089844 C 535.277344 904.785156 538.339844 897.382812 538.339844 889.148438 L 538.339844 889.046875 L 538.382812 889.046875 C 538.378906 880.855469 535.300781 873.460938 530.328125 868.132812 C 525.789062 863.257812 519.660156 860.164062 512.929688 859.886719 C 512.609375 859.894531 512.28125 859.898438 511.957031 859.898438 L 511.957031 859.914062 L 511.929688 859.914062 L 511.929688 859.898438 L 511.925781 859.898438 L 511.925781 859.855469 L 298.367188 859.863281 L 298.367188 859.894531 C 291.207031 859.894531 284.695312 863.042969 279.957031 868.132812 C 275.011719 873.441406 271.953125 880.847656 271.953125 889.089844 L 271.953125 889.140625 C 271.953125 897.378906 275.011719 904.78125 279.953125 910.085938 C 284.691406 915.171875 291.199219 918.316406 298.359375 918.316406 Z M 471.585938 941.316406 L 338.6875 941.316406 C 343.347656 952.113281 350.554688 961.550781 359.554688 968.867188 C 371.953125 978.9375 387.804688 984.976562 405.109375 984.976562 C 422.417969 984.976562 438.285156 978.9375 450.699219 968.859375 C 459.703125 961.542969 466.917969 952.109375 471.585938 941.316406 Z M 297.035156 836.914062 C 297.476562 836.902344 297.917969 836.898438 298.367188 836.898438 L 316.371094 836.898438 L 316.347656 836.953125 L 511.925781 836.945312 L 511.925781 836.898438 C 519.082031 836.898438 525.59375 833.753906 530.332031 828.671875 C 535.222656 823.429688 538.28125 816.1875 538.382812 808.15625 L 538.339844 807.644531 L 538.382812 807.644531 C 538.382812 799.449219 535.304688 792.046875 530.332031 786.714844 C 525.59375 781.628906 519.089844 778.488281 511.9375 778.488281 L 298.355469 778.488281 C 291.203125 778.484375 284.691406 781.628906 279.953125 786.714844 C 275.136719 791.878906 272.097656 798.996094 271.910156 806.890625 L 271.945312 807.261719 L 271.945312 807.722656 C 271.945312 815.960938 275.007812 823.363281 279.949219 828.667969 C 284.421875 833.464844 290.429688 836.550781 297.035156 836.914062 Z M 514.984375 755.585938 L 536.761719 663.34375 C 536.839844 662.921875 536.9375 662.507812 537.058594 662.101562 C 540.46875 647.71875 545.355469 634.609375 552.140625 622.511719 C 559.066406 610.160156 567.929688 598.945312 579.164062 588.597656 C 605.191406 564.664062 626.261719 535.433594 640.660156 502.636719 C 654.507812 471.078125 662.203125 436.152344 662.203125 399.378906 C 662.203125 328.371094 633.441406 264.117188 586.949219 217.636719 C 540.417969 171.121094 476.125 142.351562 405.109375 142.351562 C 334.128906 142.351562 269.871094 171.117188 223.359375 217.628906 C 176.851562 264.136719 148.085938 328.394531 148.085938 399.378906 C 148.085938 436.152344 155.773438 471.078125 169.625 502.636719 C 184.023438 535.4375 205.09375 564.664062 231.117188 588.597656 C 242.261719 598.890625 251.257812 610.042969 258.285156 622.398438 C 265.300781 634.726562 270.289062 648.167969 273.429688 663.050781 L 292.953125 755.792969 C 294.730469 755.589844 296.535156 755.484375 298.363281 755.484375 L 511.929688 755.488281 C 512.957031 755.488281 513.972656 755.523438 514.984375 755.585938 Z M 397.488281 15.164062 C 397.488281 10.933594 400.921875 7.496094 405.152344 7.496094 C 409.390625 7.496094 412.824219 10.933594 412.824219 15.164062 L 412.824219 51.042969 C 412.824219 55.273438 409.390625 58.710938 405.152344 58.710938 C 400.921875 58.710938 397.488281 55.273438 397.488281 51.042969 Z M 93.042969 630.804688 C 89.652344 633.332031 84.851562 632.636719 82.320312 629.246094 C 79.792969 625.859375 80.488281 621.054688 83.878906 618.527344 L 112.632812 597.074219 C 116.019531 594.542969 120.824219 595.242188 123.351562 598.632812 C 125.882812 602.023438 125.183594 606.824219 121.796875 609.351562 Z M 17.164062 435.289062 C 12.945312 435.652344 9.226562 432.527344 8.867188 428.3125 C 8.503906 424.089844 11.628906 420.375 15.84375 420.015625 L 51.578125 416.863281 C 55.796875 416.496094 59.511719 419.621094 59.875 423.839844 C 60.238281 428.058594 57.113281 431.773438 52.898438 432.132812 Z M 55.320312 229.039062 C 51.546875 227.152344 50.019531 222.566406 51.902344 218.796875 C 53.789062 215.027344 58.378906 213.496094 62.148438 215.382812 L 94.207031 231.460938 C 97.976562 233.347656 99.503906 237.9375 97.621094 241.707031 C 95.738281 245.476562 91.148438 247.007812 87.378906 245.121094 Z M 196.0625 73.5625 C 193.847656 69.972656 194.957031 65.265625 198.546875 63.050781 C 202.136719 60.832031 206.847656 61.949219 209.0625 65.535156 L 227.902344 96.066406 C 230.117188 99.65625 229.003906 104.359375 225.414062 106.574219 C 221.828125 108.792969 217.117188 107.679688 214.902344 104.089844 Z M 726.40625 618.519531 C 729.796875 621.046875 730.492188 625.851562 727.960938 629.238281 C 725.433594 632.628906 720.628906 633.324219 717.242188 630.796875 L 688.476562 609.351562 C 685.082031 606.824219 684.390625 602.023438 686.914062 598.628906 C 689.445312 595.242188 694.25 594.542969 697.636719 597.074219 Z M 794.441406 420.015625 C 798.65625 420.375 801.78125 424.089844 801.417969 428.3125 C 801.054688 432.527344 797.335938 435.652344 793.121094 435.289062 L 757.386719 432.132812 C 753.171875 431.773438 750.046875 428.058594 750.410156 423.839844 C 750.769531 419.621094 754.484375 416.496094 758.707031 416.863281 Z M 748.136719 215.382812 C 751.90625 213.496094 756.492188 215.027344 758.378906 218.796875 C 760.265625 222.566406 758.738281 227.152344 754.964844 229.039062 L 722.898438 245.121094 C 719.128906 247.007812 714.539062 245.476562 712.65625 241.707031 C 710.769531 237.9375 712.300781 233.347656 716.066406 231.460938 Z M 601.222656 65.535156 C 603.4375 61.949219 608.144531 60.832031 611.734375 63.046875 C 615.324219 65.265625 616.4375 69.972656 614.222656 73.5625 L 595.378906 104.089844 C 593.164062 107.679688 588.457031 108.792969 584.871094 106.574219 C 581.277344 104.359375 580.167969 99.65625 582.382812 96.066406 Z M 601.222656 65.535156 " fill-opacity="1" fill-rule="nonzero"/></g></svg>