<svg width="216" height="185" viewBox="0 0 216 185" fill="none" xmlns="http://www.w3.org/2000/svg">
<path d="M216 84C216.009 75.4007 213.885 66.9335 209.818 59.3565C205.752 51.7795 199.87 45.3292 192.699 40.5833C185.528 35.8374 177.292 32.9439 168.728 32.1621C160.164 31.3802 151.54 32.7343 143.628 36.1032C135.717 39.4721 128.764 44.7505 123.392 51.4658C118.021 58.1811 114.399 66.1238 112.85 74.5825C111.302 83.0412 111.875 91.7519 114.519 99.9346C117.163 108.117 121.795 115.517 128 121.47V180C128 180.682 128.173 181.353 128.505 181.949C128.837 182.545 129.316 183.046 129.896 183.405C130.477 183.764 131.139 183.968 131.82 183.999C132.502 184.029 133.18 183.885 133.79 183.58L164 168.47L194.21 183.58C194.767 183.855 195.379 183.999 196 184C197.061 184 198.078 183.579 198.828 182.828C199.579 182.078 200 181.061 200 180V121.47C205.059 116.628 209.085 110.812 211.835 104.372C214.584 97.9325 216.001 91.0024 216 84ZM120 84C120 75.2976 122.581 66.7907 127.415 59.5549C132.25 52.3191 139.122 46.6796 147.162 43.3493C155.202 40.019 164.049 39.1477 172.584 40.8455C181.119 42.5432 188.959 46.7338 195.113 52.8873C201.266 59.0408 205.457 66.8809 207.155 75.416C208.852 83.9512 207.981 92.7981 204.651 100.838C201.32 108.878 195.681 115.75 188.445 120.585C181.209 125.419 172.702 128 164 128C152.335 127.987 141.151 123.347 132.902 115.098C124.653 106.849 120.013 95.6655 120 84ZM192 173.53L165.79 160.42C165.234 160.142 164.621 159.997 164 159.997C163.379 159.997 162.766 160.142 162.21 160.42L136 173.53V127.78C144.353 133.147 154.072 136 164 136C173.928 136 183.647 133.147 192 127.78V173.53ZM104 148C104 149.061 103.579 150.078 102.828 150.828C102.078 151.579 101.061 152 100 152H12C8.8174 152 5.76516 150.736 3.51472 148.485C1.26428 146.235 0 143.183 0 140V12C0 8.8174 1.26428 5.76515 3.51472 3.51472C5.76516 1.26428 8.8174 0 12 0H188C191.183 0 194.235 1.26428 196.485 3.51472C198.736 5.76515 200 8.8174 200 12C200 13.0609 199.579 14.0783 198.828 14.8284C198.078 15.5786 197.061 16 196 16C194.939 16 193.922 15.5786 193.172 14.8284C192.421 14.0783 192 13.0609 192 12C192 10.9391 191.579 9.92172 190.828 9.17157C190.078 8.42143 189.061 8 188 8H12C10.9391 8 9.92172 8.42143 9.17157 9.17157C8.42143 9.92172 8 10.9391 8 12V140C8 141.061 8.42143 142.078 9.17157 142.828C9.92172 143.579 10.9391 144 12 144H100C101.061 144 102.078 144.421 102.828 145.172C103.579 145.922 104 146.939 104 148ZM88 92C88 93.0609 87.5786 94.0783 86.8284 94.8284C86.0783 95.5786 85.0609 96 84 96H44C42.9391 96 41.9217 95.5786 41.1716 94.8284C40.4214 94.0783 40 93.0609 40 92C40 90.9391 40.4214 89.9217 41.1716 89.1716C41.9217 88.4214 42.9391 88 44 88H84C85.0609 88 86.0783 88.4214 86.8284 89.1716C87.5786 89.9217 88 90.9391 88 92ZM88 60C88 61.0609 87.5786 62.0783 86.8284 62.8284C86.0783 63.5786 85.0609 64 84 64H44C42.9391 64 41.9217 63.5786 41.1716 62.8284C40.4214 62.0783 40 61.0609 40 60C40 58.9391 40.4214 57.9217 41.1716 57.1716C41.9217 56.4214 42.9391 56 44 56H84C85.0609 56 86.0783 56.4214 86.8284 57.1716C87.5786 57.9217 88 58.9391 88 60Z" fill="#6247AA"/>
</svg>
