<svg xmlns="http://www.w3.org/2000/svg" xmlns:xlink="http://www.w3.org/1999/xlink" width="1920" zoomAndPan="magnify" viewBox="0 0 1440 404.99999" height="540" preserveAspectRatio="xMidYMid meet" version="1.0"><defs><g/><clipPath id="901e21b520"><path d="M 0 66.835938 L 215.25 66.835938 L 215.25 338.335938 L 0 338.335938 Z M 0 66.835938 " clip-rule="nonzero"/></clipPath></defs><g clip-path="url(#901e21b520)"><path fill="#9163cb" d="M 71.339844 272.125 L 65.835938 245.992188 C 65.117188 242.59375 63.988281 239.542969 62.40625 236.765625 C 60.828125 233.992188 58.785156 231.464844 56.226562 229.105469 C 48.542969 222.042969 42.316406 213.398438 38.050781 203.691406 C 33.949219 194.34375 31.667969 184.023438 31.667969 173.191406 C 31.667969 152.207031 40.175781 133.214844 53.929688 119.46875 C 67.679688 105.722656 86.679688 97.21875 107.667969 97.21875 C 128.648438 97.21875 147.652344 105.722656 161.40625 119.472656 C 175.171875 133.226562 183.6875 152.21875 183.6875 173.191406 C 183.6875 184.023438 181.40625 194.34375 177.300781 203.691406 C 173.039062 213.398438 166.808594 222.042969 159.125 229.105469 C 156.578125 231.453125 154.570312 233.988281 153.011719 236.769531 C 151.4375 239.574219 150.304688 242.652344 149.507812 246.0625 L 143.441406 271.746094 C 144.457031 272.378906 145.390625 273.148438 146.214844 274.03125 C 148.558594 276.546875 150.023438 280.007812 150.054688 283.820312 L 150.058594 283.949219 L 150.070312 283.949219 L 150.070312 283.953125 L 150.058594 283.953125 L 150.058594 283.972656 C 150.058594 287.839844 148.589844 291.351562 146.214844 293.894531 C 145.847656 294.289062 145.457031 294.664062 145.046875 295.007812 C 145.457031 295.355469 145.84375 295.726562 146.214844 296.121094 C 148.585938 298.664062 150.054688 302.167969 150.058594 306.035156 L 150.070312 306.035156 L 150.070312 306.0625 C 150.070312 309.921875 148.59375 313.429688 146.214844 315.984375 C 143.773438 318.597656 140.394531 320.214844 136.65625 320.214844 L 132.347656 320.214844 C 130.804688 325.101562 127.851562 329.359375 123.96875 332.511719 C 119.507812 336.132812 113.835938 338.300781 107.667969 338.300781 C 101.5 338.300781 95.832031 336.132812 91.378906 332.515625 C 87.496094 329.363281 84.546875 325.105469 83.007812 320.214844 L 78.695312 320.214844 C 74.957031 320.214844 71.578125 318.597656 69.140625 315.984375 C 66.761719 313.429688 65.289062 309.921875 65.289062 306.0625 L 65.289062 306.046875 C 65.289062 302.1875 66.761719 298.675781 69.140625 296.121094 C 69.507812 295.726562 69.898438 295.355469 70.304688 295.007812 C 69.898438 294.660156 69.507812 294.289062 69.140625 293.894531 C 66.761719 291.339844 65.285156 287.832031 65.285156 283.972656 L 65.296875 283.972656 L 65.296875 283.957031 C 65.296875 280.089844 66.765625 276.578125 69.140625 274.03125 C 69.808594 273.316406 70.542969 272.675781 71.339844 272.125 Z M 155.777344 165.101562 C 155.972656 162.988281 155.875 159.996094 155.359375 157.347656 C 155.316406 157.125 155.269531 156.90625 155.222656 156.691406 C 154.863281 157.425781 154.425781 158.128906 153.917969 158.792969 C 152.863281 160.183594 151.519531 161.402344 149.996094 162.332031 C 148.453125 163.277344 146.714844 163.9375 144.898438 164.203125 C 142.671875 164.527344 140.335938 164.257812 138.089844 163.191406 C 137.140625 165.074219 134.839844 168.796875 131.074219 169.957031 C 130.402344 170.164062 129.726562 170.300781 129.054688 170.375 L 128.992188 170.386719 C 128.296875 170.457031 127.617188 170.464844 126.949219 170.417969 C 125.804688 170.335938 124.945312 169.34375 125.023438 168.199219 C 125.105469 167.054688 126.097656 166.195312 127.242188 166.273438 C 127.6875 166.304688 128.125 166.304688 128.554688 166.257812 L 128.609375 166.253906 C 129.019531 166.207031 129.4375 166.121094 129.851562 165.992188 C 132.984375 165.027344 134.6875 160.683594 134.730469 160.5625 L 135.15625 159.4375 C 135.5625 158.363281 136.757812 157.824219 137.832031 158.226562 C 138.066406 158.3125 138.277344 158.441406 138.457031 158.597656 C 140.332031 159.976562 142.386719 160.371094 144.3125 160.089844 C 145.554688 159.910156 146.757812 159.449219 147.832031 158.792969 C 148.925781 158.125 149.882812 157.261719 150.621094 156.292969 C 151.746094 154.808594 152.359375 153.078125 152.15625 151.425781 C 152.117188 151.242188 152.109375 151.050781 152.125 150.855469 C 152.199219 149.992188 152.183594 149.140625 152.085938 148.316406 C 151.800781 145.878906 150.828125 143.621094 149.464844 141.933594 C 148.316406 140.511719 146.910156 139.535156 145.46875 139.277344 C 145.242188 139.835938 144.945312 140.492188 144.558594 141.175781 C 143.511719 143.027344 141.8125 145.109375 139.191406 146.15625 C 138.636719 146.375 138.082031 146.539062 137.519531 146.644531 C 136.933594 146.753906 136.355469 146.808594 135.78125 146.808594 C 134.304688 146.808594 132.761719 146.472656 131.148438 145.804688 C 130.605469 145.574219 130.054688 145.3125 129.496094 145.007812 C 129.289062 145.792969 128.980469 146.550781 128.578125 147.257812 L 128.574219 147.265625 L 128.578125 147.265625 C 127.996094 148.28125 127.234375 149.171875 126.324219 149.917969 C 125.421875 150.660156 124.382812 151.246094 123.246094 151.660156 C 122.167969 152.050781 120.976562 151.492188 120.589844 150.414062 C 120.199219 149.339844 120.753906 148.148438 121.832031 147.757812 C 122.535156 147.503906 123.160156 147.152344 123.691406 146.71875 C 124.199219 146.300781 124.628906 145.792969 124.96875 145.203125 L 124.972656 145.207031 C 125.261719 144.699219 125.460938 144.140625 125.570312 143.554688 C 125.683594 142.941406 125.703125 142.28125 125.621094 141.589844 C 125.5625 141.082031 125.691406 140.546875 126.027344 140.105469 C 126.71875 139.191406 128.019531 139.007812 128.9375 139.699219 C 130.285156 140.714844 131.554688 141.472656 132.742188 141.96875 C 133.832031 142.421875 134.847656 142.648438 135.78125 142.648438 C 136.132812 142.648438 136.460938 142.621094 136.753906 142.566406 C 137.074219 142.507812 137.375 142.417969 137.660156 142.304688 C 139.207031 141.691406 140.269531 140.351562 140.949219 139.144531 C 141.484375 138.199219 141.78125 137.355469 141.910156 136.9375 C 141.867188 136.078125 141.582031 135.132812 141.113281 134.207031 C 140.46875 132.929688 139.484375 131.71875 138.289062 130.828125 C 137.179688 130 135.894531 129.46875 134.566406 129.46875 C 133.8125 129.46875 133.027344 129.640625 132.234375 130.023438 C 132.09375 130.105469 131.9375 130.171875 131.773438 130.21875 C 130.667969 130.53125 129.519531 129.890625 129.203125 128.789062 C 128.855469 127.5625 127.769531 125.558594 126.027344 124.109375 C 124.894531 123.167969 123.480469 122.480469 121.824219 122.480469 C 120.054688 122.480469 118.710938 123.269531 117.777344 124.585938 L 117.714844 124.6875 C 116.515625 126.445312 115.921875 129.082031 115.921875 132.128906 L 115.921875 204.171875 C 115.921875 210.03125 117.371094 213.84375 119.539062 216.078125 C 120.910156 217.492188 122.589844 218.289062 124.371094 218.582031 C 126.234375 218.890625 128.21875 218.667969 130.097656 218.039062 C 133.476562 216.910156 136.464844 214.515625 137.808594 211.5625 C 138.179688 210.652344 139.160156 210.105469 140.15625 210.3125 C 140.363281 210.355469 140.574219 210.378906 140.789062 210.378906 C 142.363281 210.398438 144.320312 209.53125 146.089844 207.90625 C 147.964844 206.183594 149.558594 203.652344 150.230469 200.441406 C 150.441406 199.441406 150.5625 198.386719 150.578125 197.28125 C 150.578125 196.664062 150.851562 196.054688 151.375 195.648438 C 151.957031 195.191406 154.070312 193.09375 154.992188 190.441406 C 155.398438 189.261719 155.542969 187.980469 155.121094 186.734375 C 154.019531 186.066406 152.90625 185.667969 151.824219 185.546875 C 150.632812 185.410156 149.457031 185.609375 148.363281 186.148438 C 147.238281 186.703125 146.273438 187.585938 145.542969 188.671875 C 144.796875 189.785156 144.296875 191.113281 144.132812 192.539062 L 143.976562 193.875 C 143.847656 195.015625 142.816406 195.835938 141.675781 195.703125 C 141.433594 195.675781 141.207031 195.609375 141 195.507812 L 139.976562 195.046875 C 139.160156 194.671875 138.242188 194.550781 137.371094 194.605469 C 136.375 194.664062 135.46875 194.945312 134.851562 195.335938 C 133.746094 196.039062 132.800781 197.292969 132.367188 198.945312 C 131.972656 200.453125 132.003906 202.292969 132.703125 204.363281 C 133.070312 205.449219 132.488281 206.628906 131.402344 206.996094 C 130.316406 207.363281 129.136719 206.78125 128.769531 205.695312 C 127.789062 202.796875 127.765625 200.144531 128.351562 197.902344 C 129.070312 195.167969 130.699219 193.050781 132.625 191.828125 C 133.789062 191.089844 135.410156 190.566406 137.128906 190.460938 C 138.136719 190.398438 139.195312 190.480469 140.226562 190.746094 C 140.582031 189.15625 141.222656 187.664062 142.097656 186.363281 C 143.226562 184.679688 144.742188 183.308594 146.527344 182.429688 C 148.355469 181.527344 150.304688 181.195312 152.277344 181.417969 C 153.660156 181.574219 155.046875 182.003906 156.394531 182.691406 C 157.890625 180.714844 158.457031 178.261719 158.382812 175.917969 C 158.296875 173.222656 157.40625 170.734375 156.144531 169.289062 C 155.199219 169.152344 154.101562 169.402344 153.128906 169.964844 C 152.109375 170.550781 151.269531 171.460938 150.949219 172.59375 L 150.890625 172.828125 C 150.648438 173.949219 149.542969 174.664062 148.421875 174.421875 C 147.296875 174.179688 146.585938 173.074219 146.828125 171.953125 L 146.914062 171.59375 L 146.945312 171.488281 C 147.582031 169.230469 149.164062 167.464844 151.0625 166.371094 C 152.523438 165.53125 154.191406 165.082031 155.777344 165.101562 Z M 159.679688 167.0625 C 161.304688 169.207031 162.421875 172.425781 162.527344 175.785156 C 162.636719 179.257812 161.699219 182.9375 159.195312 185.84375 C 159.785156 187.910156 159.546875 189.945312 158.90625 191.789062 C 157.921875 194.628906 155.902344 197.019531 154.691406 198.21875 C 154.632812 199.292969 154.496094 200.316406 154.292969 201.285156 C 153.425781 205.425781 151.351562 208.714844 148.902344 210.960938 C 146.414062 213.246094 143.476562 214.492188 140.9375 214.523438 C 138.921875 217.949219 135.355469 220.652344 131.414062 221.972656 C 128.914062 222.804688 126.246094 223.097656 123.703125 222.675781 C 121.074219 222.242188 118.59375 221.066406 116.5625 218.972656 C 113.683594 216.003906 111.761719 211.226562 111.761719 204.171875 L 111.761719 132.128906 C 111.761719 128.277344 112.597656 124.828125 114.285156 122.347656 L 114.375 122.222656 C 116.085938 119.785156 118.5625 118.320312 121.824219 118.320312 C 124.570312 118.320312 126.867188 119.417969 128.675781 120.921875 C 130.324219 122.296875 131.5625 124.042969 132.359375 125.582031 C 133.101562 125.398438 133.839844 125.308594 134.566406 125.308594 C 136.859375 125.308594 138.988281 126.164062 140.777344 127.496094 C 142.484375 128.769531 143.894531 130.503906 144.820312 132.335938 C 145.28125 133.25 145.628906 134.191406 145.839844 135.128906 C 148.449219 135.480469 150.855469 137.039062 152.703125 139.320312 C 154.53125 141.582031 155.835938 144.597656 156.214844 147.847656 C 156.296875 148.539062 156.335938 149.246094 156.328125 149.949219 C 157.914062 151.335938 158.902344 153.808594 159.441406 156.570312 C 160.140625 160.167969 160.128906 164.46875 159.679688 167.0625 Z M 122.285156 192.226562 C 121.148438 192.394531 120.09375 191.609375 119.925781 190.472656 C 119.761719 189.339844 120.546875 188.28125 121.683594 188.117188 C 121.921875 188.082031 122.121094 187.917969 122.261719 187.6875 C 122.527344 187.269531 122.667969 186.675781 122.695312 186.035156 L 122.695312 186.015625 C 122.722656 185.300781 122.613281 184.570312 122.375 183.9375 C 122.140625 183.308594 121.820312 182.824219 121.449219 182.703125 C 120.363281 182.339844 119.777344 181.164062 120.140625 180.078125 C 120.183594 179.949219 120.238281 179.828125 120.304688 179.710938 C 120.308594 179.707031 121.566406 177.554688 120.96875 176.257812 C 120.488281 175.214844 120.945312 173.984375 121.984375 173.503906 C 123.027344 173.023438 124.261719 173.480469 124.738281 174.519531 C 125.617188 176.417969 125.207031 178.535156 124.703125 179.984375 C 125.382812 180.664062 125.902344 181.53125 126.261719 182.492188 C 126.6875 183.636719 126.890625 184.9375 126.839844 186.179688 L 126.839844 186.214844 C 126.78125 187.539062 126.441406 188.839844 125.789062 189.882812 C 125.019531 191.117188 123.863281 191.996094 122.285156 192.226562 Z M 59.242188 169.878906 C 57.964844 171.316406 57.058594 173.824219 56.972656 176.539062 C 56.886719 179.292969 57.675781 182.195312 59.828125 184.300781 L 59.976562 184.449219 C 60.042969 184.507812 60.105469 184.574219 60.160156 184.640625 C 60.625 185.125 61.976562 185.285156 63.546875 185.246094 C 65.90625 185.1875 68.464844 184.589844 69.753906 183.855469 C 70.75 183.289062 72.019531 183.640625 72.582031 184.636719 C 73.148438 185.632812 72.800781 186.898438 71.804688 187.464844 C 70.003906 188.484375 66.636719 189.316406 63.640625 189.390625 C 62.351562 189.421875 61.089844 189.3125 59.980469 189.019531 C 59.988281 189.714844 60.136719 190.40625 60.363281 191.066406 C 61.285156 193.71875 63.398438 195.816406 63.980469 196.269531 C 64.503906 196.679688 64.777344 197.289062 64.777344 197.902344 C 64.792969 199.007812 64.914062 200.066406 65.125 201.066406 C 65.796875 204.277344 67.390625 206.808594 69.265625 208.53125 C 71.035156 210.15625 72.992188 211.023438 74.566406 211.003906 C 74.78125 211.003906 74.992188 210.980469 75.199219 210.9375 C 75.289062 210.917969 75.378906 210.90625 75.46875 210.898438 C 75.949219 210.570312 76.5625 210.445312 77.167969 210.605469 L 77.296875 210.632812 C 78.285156 210.847656 79.480469 210.601562 80.527344 209.996094 C 81.546875 209.410156 82.386719 208.5 82.707031 207.367188 L 82.765625 207.128906 C 83.007812 206.007812 84.113281 205.296875 85.234375 205.539062 C 86.359375 205.78125 87.070312 206.886719 86.828125 208.007812 L 86.742188 208.367188 L 86.710938 208.472656 C 86.074219 210.730469 84.492188 212.496094 82.59375 213.585938 C 81.550781 214.191406 80.398438 214.589844 79.242188 214.765625 C 80.792969 216.507812 82.929688 217.886719 85.253906 218.660156 C 87.136719 219.289062 89.121094 219.511719 90.984375 219.207031 C 92.765625 218.910156 94.445312 218.117188 95.816406 216.703125 C 97.984375 214.46875 99.433594 210.65625 99.433594 204.792969 L 99.433594 132.75 C 99.433594 129.703125 98.839844 127.070312 97.640625 125.308594 L 97.574219 125.207031 C 96.644531 123.894531 95.300781 123.105469 93.53125 123.105469 C 91.871094 123.105469 90.460938 123.789062 89.328125 124.730469 C 88.375 125.527344 87.621094 126.484375 87.074219 127.386719 C 88.890625 128.140625 91.132812 129.824219 91.121094 133.53125 C 91.121094 134.675781 90.191406 135.605469 89.046875 135.605469 C 87.902344 135.605469 86.976562 134.675781 86.976562 133.53125 C 86.984375 131.128906 84.429688 130.921875 84.421875 130.921875 L 84.347656 130.910156 C 84.097656 130.9375 83.839844 130.914062 83.582031 130.839844 C 83.417969 130.792969 83.261719 130.730469 83.121094 130.648438 C 82.328125 130.265625 81.542969 130.09375 80.785156 130.09375 C 79.457031 130.09375 78.175781 130.625 77.066406 131.453125 C 75.871094 132.34375 74.886719 133.550781 74.242188 134.828125 C 74.015625 135.273438 73.835938 135.71875 73.699219 136.160156 C 73.871094 136.3125 74.019531 136.5 74.132812 136.714844 C 75 138.308594 75.871094 140.257812 76.367188 142.515625 C 76.867188 144.820312 76.96875 147.429688 76.261719 150.28125 C 75.890625 151.777344 75.09375 153.125 74.058594 154.257812 C 72.964844 155.457031 71.582031 156.433594 70.160156 157.101562 C 69.121094 157.585938 67.886719 157.136719 67.402344 156.101562 C 66.917969 155.066406 67.367188 153.832031 68.402344 153.347656 C 69.34375 152.90625 70.257812 152.257812 70.984375 151.464844 C 71.582031 150.808594 72.035156 150.066406 72.230469 149.289062 C 72.765625 147.136719 72.6875 145.152344 72.300781 143.394531 C 72.019531 142.097656 71.566406 140.910156 71.074219 139.855469 L 71.023438 139.851562 C 70.78125 139.828125 70.53125 139.828125 70.277344 139.851562 C 68.695312 139.988281 67.140625 141.011719 65.890625 142.558594 C 64.523438 144.242188 63.550781 146.5 63.269531 148.941406 C 63.171875 149.765625 63.15625 150.617188 63.230469 151.476562 C 63.3125 152.429688 62.742188 153.285156 61.890625 153.601562 C 61.050781 154 60.417969 155.800781 59.996094 157.972656 C 59.496094 160.535156 59.386719 163.417969 59.558594 165.515625 C 60.449219 165.230469 61.414062 165 62.421875 164.890625 C 63.609375 164.761719 64.851562 164.800781 66.101562 165.101562 C 67.382812 165.410156 68.59375 166.066406 69.644531 166.984375 C 70.65625 167.871094 71.527344 169 72.160156 170.296875 C 72.632812 171.269531 72.953125 172.292969 73.101562 173.289062 L 73.113281 173.363281 C 73.191406 173.902344 73.214844 174.441406 73.1875 174.960938 C 75.363281 174.730469 77.988281 174.917969 80.386719 176.339844 C 82.539062 177.621094 84.433594 179.839844 85.539062 183.535156 C 85.867188 184.632812 85.242188 185.789062 84.140625 186.117188 C 83.042969 186.445312 81.882812 185.820312 81.554688 184.722656 C 80.792969 182.167969 79.597656 180.703125 78.273438 179.917969 C 76.367188 178.785156 74.054688 178.933594 72.394531 179.28125 L 70.867188 179.605469 C 69.746094 179.835938 68.644531 179.117188 68.414062 177.996094 C 68.339844 177.640625 68.359375 177.285156 68.460938 176.960938 L 68.976562 175.214844 C 69.0625 174.867188 69.070312 174.429688 69 173.945312 L 68.992188 173.886719 C 68.90625 173.328125 68.714844 172.71875 68.417969 172.117188 C 68.023438 171.308594 67.503906 170.621094 66.914062 170.105469 C 66.359375 169.621094 65.746094 169.28125 65.125 169.132812 C 64.390625 168.953125 63.621094 168.933594 62.859375 169.015625 C 61.890625 169.121094 60.9375 169.402344 60.085938 169.738281 C 59.808594 169.84375 59.523438 169.890625 59.242188 169.878906 Z M 52.828125 176.410156 C 52.933594 173.046875 54.046875 169.832031 55.671875 167.6875 C 55.222656 165.09375 55.210938 160.792969 55.914062 157.191406 C 56.453125 154.433594 57.441406 151.960938 59.027344 150.574219 C 59.019531 149.867188 59.058594 149.164062 59.140625 148.46875 C 59.519531 145.222656 60.824219 142.207031 62.652344 139.941406 C 64.5 137.660156 66.90625 136.105469 69.515625 135.75 C 69.726562 134.816406 70.074219 133.871094 70.535156 132.960938 C 71.460938 131.128906 72.871094 129.394531 74.578125 128.121094 C 76.367188 126.789062 78.496094 125.933594 80.785156 125.933594 C 81.511719 125.933594 82.253906 126.019531 82.996094 126.207031 C 83.789062 124.667969 85.03125 122.921875 86.679688 121.546875 C 88.488281 120.039062 90.78125 118.945312 93.53125 118.945312 C 96.789062 118.945312 99.269531 120.410156 100.980469 122.847656 L 101.070312 122.96875 C 102.757812 125.453125 103.59375 128.902344 103.59375 132.75 L 103.59375 204.796875 C 103.59375 211.851562 101.671875 216.625 98.792969 219.59375 C 96.761719 221.6875 94.28125 222.867188 91.652344 223.300781 C 89.109375 223.722656 86.4375 223.429688 83.9375 222.59375 C 80 221.277344 76.433594 218.574219 74.417969 215.148438 C 71.878906 215.113281 68.941406 213.867188 66.453125 211.585938 C 64.003906 209.335938 61.925781 206.050781 61.0625 201.910156 C 60.855469 200.941406 60.71875 199.917969 60.664062 198.84375 C 59.453125 197.644531 57.433594 195.25 56.445312 192.414062 C 55.808594 190.570312 55.570312 188.535156 56.160156 186.46875 C 53.65625 183.5625 52.71875 179.882812 52.828125 176.410156 Z M 96.816406 144.441406 C 97.527344 145.339844 97.375 146.640625 96.476562 147.347656 C 95.578125 148.058594 94.277344 147.90625 93.566406 147.007812 C 93.4375 146.84375 93.207031 146.695312 92.914062 146.570312 C 92.140625 146.242188 91.085938 146.152344 89.972656 146.3125 C 88.835938 146.476562 87.703125 146.898438 86.820312 147.597656 C 86.261719 148.039062 85.804688 148.59375 85.519531 149.265625 C 85.078125 150.320312 83.859375 150.816406 82.804688 150.371094 C 81.75 149.925781 81.257812 148.710938 81.699219 147.65625 C 82.273438 146.304688 83.171875 145.203125 84.253906 144.347656 C 85.746094 143.164062 87.585938 142.460938 89.386719 142.203125 C 91.214844 141.9375 93.0625 142.132812 94.523438 142.75 C 95.445312 143.140625 96.234375 143.707031 96.816406 144.441406 Z M 84.523438 153.753906 C 85.660156 153.589844 86.714844 154.375 86.878906 155.507812 C 87.046875 156.644531 86.261719 157.699219 85.125 157.867188 C 84.882812 157.902344 84.6875 158.0625 84.542969 158.296875 C 84.28125 158.714844 84.140625 159.304688 84.113281 159.949219 L 84.113281 159.96875 C 84.085938 160.679688 84.195312 161.414062 84.429688 162.042969 C 84.664062 162.675781 84.988281 163.15625 85.355469 163.28125 C 86.441406 163.644531 87.027344 164.820312 86.664062 165.90625 C 86.621094 166.035156 86.566406 166.15625 86.503906 166.269531 C 86.5 166.277344 85.238281 168.425781 85.835938 169.726562 C 86.316406 170.765625 85.863281 172 84.820312 172.480469 C 83.78125 172.957031 82.546875 172.503906 82.066406 171.464844 C 81.191406 169.566406 81.597656 167.449219 82.101562 165.996094 C 81.425781 165.320312 80.902344 164.453125 80.542969 163.492188 C 80.117188 162.34375 79.917969 161.042969 79.964844 159.804688 L 79.96875 159.769531 C 80.023438 158.445312 80.367188 157.144531 81.015625 156.101562 C 81.785156 154.867188 82.941406 153.988281 84.523438 153.753906 Z M 90.816406 195.265625 C 91.425781 194.382812 92.625 194.101562 93.566406 194.648438 C 94.558594 195.222656 94.898438 196.492188 94.324219 197.484375 L 93.296875 199.25 C 92.722656 200.238281 91.453125 200.578125 90.460938 200.003906 C 90.335938 199.933594 90.21875 199.847656 90.117188 199.753906 C 88.863281 198.785156 87.664062 198.257812 86.59375 198.175781 C 85.65625 198.105469 84.78125 198.402344 84.042969 199.074219 C 83.191406 199.839844 81.882812 199.773438 81.113281 198.925781 C 80.347656 198.078125 80.414062 196.769531 81.261719 196.003906 C 82.890625 194.527344 84.820312 193.875 86.902344 194.03125 C 88.179688 194.128906 89.5 194.542969 90.816406 195.265625 Z M 87.933594 313.976562 L 136.65625 313.976562 C 138.597656 313.976562 140.367188 313.125 141.652344 311.746094 C 142.996094 310.304688 143.828125 308.296875 143.828125 306.0625 L 143.828125 306.035156 L 143.839844 306.035156 C 143.835938 303.8125 143.003906 301.808594 141.652344 300.359375 C 140.421875 299.039062 138.757812 298.199219 136.929688 298.125 C 136.84375 298.125 136.753906 298.128906 136.667969 298.128906 L 136.667969 298.132812 L 136.660156 298.132812 L 136.660156 298.117188 L 78.699219 298.117188 L 78.699219 298.125 C 76.753906 298.125 74.988281 298.980469 73.703125 300.359375 C 72.359375 301.800781 71.53125 303.8125 71.53125 306.046875 L 71.53125 306.0625 C 71.53125 308.296875 72.359375 310.304688 73.699219 311.742188 C 74.988281 313.125 76.753906 313.976562 78.695312 313.976562 Z M 125.710938 320.214844 L 89.640625 320.214844 C 90.90625 323.144531 92.863281 325.707031 95.304688 327.691406 C 98.667969 330.421875 102.972656 332.0625 107.667969 332.0625 C 112.367188 332.0625 116.671875 330.421875 120.042969 327.6875 C 122.484375 325.703125 124.445312 323.144531 125.710938 320.214844 Z M 78.335938 291.890625 C 78.457031 291.886719 78.574219 291.886719 78.699219 291.886719 L 83.585938 291.886719 L 83.578125 291.902344 L 136.660156 291.898438 L 136.660156 291.886719 C 138.601562 291.886719 140.367188 291.035156 141.652344 289.65625 C 142.980469 288.234375 143.8125 286.269531 143.839844 284.089844 L 143.828125 283.949219 L 143.839844 283.949219 C 143.839844 281.726562 143.003906 279.71875 141.652344 278.273438 C 140.367188 276.894531 138.601562 276.039062 136.660156 276.039062 L 78.695312 276.039062 C 76.753906 276.039062 74.988281 276.894531 73.699219 278.273438 C 72.394531 279.675781 71.566406 281.605469 71.515625 283.746094 L 71.527344 283.847656 L 71.527344 283.972656 C 71.527344 286.207031 72.359375 288.214844 73.699219 289.65625 C 74.914062 290.957031 76.542969 291.792969 78.335938 291.890625 Z M 137.488281 269.828125 L 143.398438 244.804688 C 143.417969 244.6875 143.445312 244.574219 143.480469 244.464844 C 144.40625 240.5625 145.730469 237.007812 147.574219 233.726562 C 149.453125 230.375 151.859375 227.332031 154.90625 224.523438 C 161.96875 218.03125 167.6875 210.101562 171.597656 201.203125 C 175.355469 192.640625 177.445312 183.167969 177.445312 173.191406 C 177.445312 153.925781 169.636719 136.496094 157.019531 123.882812 C 144.390625 111.265625 126.941406 103.460938 107.667969 103.460938 C 88.40625 103.460938 70.964844 111.261719 58.339844 123.882812 C 45.71875 136.5 37.910156 153.933594 37.910156 173.191406 C 37.910156 183.167969 40 192.640625 43.757812 201.203125 C 47.664062 210.101562 53.382812 218.03125 60.445312 224.523438 C 63.472656 227.316406 65.914062 230.34375 67.820312 233.695312 C 69.722656 237.039062 71.078125 240.6875 71.929688 244.722656 L 77.230469 269.882812 C 77.710938 269.828125 78.199219 269.800781 78.695312 269.800781 L 136.660156 269.800781 C 136.9375 269.800781 137.214844 269.808594 137.488281 269.828125 Z M 105.597656 68.953125 C 105.597656 67.804688 106.53125 66.875 107.679688 66.875 C 108.828125 66.875 109.761719 67.804688 109.761719 68.953125 L 109.761719 78.6875 C 109.761719 79.835938 108.828125 80.765625 107.679688 80.765625 C 106.53125 80.765625 105.597656 79.835938 105.597656 78.6875 Z M 22.972656 235.976562 C 22.054688 236.660156 20.75 236.472656 20.0625 235.550781 C 19.375 234.632812 19.566406 233.332031 20.484375 232.644531 L 28.289062 226.824219 C 29.210938 226.136719 30.511719 226.328125 31.199219 227.246094 C 31.886719 228.167969 31.695312 229.46875 30.777344 230.15625 Z M 2.378906 182.933594 C 1.234375 183.03125 0.226562 182.183594 0.128906 181.039062 C 0.0273438 179.894531 0.878906 178.886719 2.019531 178.789062 L 11.71875 177.933594 C 12.863281 177.835938 13.875 178.683594 13.972656 179.824219 C 14.070312 180.972656 13.222656 181.976562 12.078125 182.078125 Z M 12.734375 126.976562 C 11.710938 126.464844 11.296875 125.222656 11.808594 124.199219 C 12.320312 123.175781 13.566406 122.761719 14.589844 123.273438 L 23.289062 127.636719 C 24.3125 128.148438 24.726562 129.390625 24.214844 130.414062 C 23.703125 131.4375 22.460938 131.851562 21.433594 131.339844 Z M 50.933594 84.796875 C 50.332031 83.824219 50.632812 82.546875 51.605469 81.945312 C 52.582031 81.34375 53.859375 81.644531 54.460938 82.621094 L 59.574219 90.902344 C 60.175781 91.875 59.871094 93.152344 58.898438 93.753906 C 57.925781 94.355469 56.648438 94.054688 56.046875 93.078125 Z M 194.867188 232.640625 C 195.789062 233.328125 195.976562 234.632812 195.289062 235.550781 C 194.605469 236.46875 193.300781 236.660156 192.382812 235.972656 L 184.574219 230.15625 C 183.652344 229.46875 183.464844 228.167969 184.152344 227.246094 C 184.835938 226.328125 186.140625 226.136719 187.058594 226.824219 Z M 213.332031 178.789062 C 214.476562 178.886719 215.324219 179.894531 215.226562 181.039062 C 215.128906 182.183594 214.121094 183.03125 212.976562 182.933594 L 203.277344 182.078125 C 202.132812 181.976562 201.285156 180.972656 201.382812 179.824219 C 201.480469 178.683594 202.488281 177.835938 203.632812 177.933594 Z M 200.765625 123.273438 C 201.789062 122.761719 203.035156 123.175781 203.546875 124.199219 C 204.058594 125.222656 203.644531 126.464844 202.617188 126.976562 L 193.917969 131.339844 C 192.894531 131.851562 191.648438 131.4375 191.136719 130.414062 C 190.625 129.390625 191.039062 128.148438 192.0625 127.636719 Z M 160.894531 82.621094 C 161.496094 81.644531 162.773438 81.34375 163.746094 81.945312 C 164.722656 82.546875 165.023438 83.824219 164.421875 84.796875 L 159.308594 93.078125 C 158.707031 94.054688 157.429688 94.355469 156.457031 93.753906 C 155.480469 93.152344 155.179688 91.875 155.78125 90.902344 Z M 160.894531 82.621094 " fill-opacity="1" fill-rule="nonzero"/></g><g fill="#9163cb" fill-opacity="1"><g transform="translate(241.941125, 226.759016)"><g><path d="M 23.597656 -94.382812 C 13.214844 -94.382812 4.71875 -85.886719 4.71875 -75.507812 L 4.71875 0 L 23.597656 0 L 23.597656 -75.507812 L 42.472656 -75.507812 L 42.472656 0 L 61.347656 0 L 61.347656 -75.507812 L 80.226562 -75.507812 L 80.226562 0 L 99.101562 0 L 99.101562 -75.507812 C 99.101562 -85.886719 90.609375 -94.382812 80.226562 -94.382812 Z M 23.597656 -94.382812 "/></g></g></g><g fill="#9163cb" fill-opacity="1"><g transform="translate(345.76254, 226.759016)"><g><path d="M 99.101562 0 L 99.101562 -18.875 L 61.347656 -18.875 L 61.347656 -75.507812 L 99.101562 -75.507812 L 99.101562 -94.382812 L 4.71875 -94.382812 L 4.71875 -75.507812 L 42.472656 -75.507812 L 42.472656 -18.875 L 4.71875 -18.875 L 4.71875 0 Z M 99.101562 0 "/></g></g></g><g fill="#9163cb" fill-opacity="1"><g transform="translate(449.583955, 226.759016)"><g><path d="M 23.597656 0 L 23.597656 -62.175781 L 82.9375 -2.832031 C 84.707031 -1.0625 87.066406 0 89.664062 0 C 94.855469 0 99.101562 -4.246094 99.101562 -9.4375 L 99.101562 -94.382812 L 80.226562 -94.382812 L 80.226562 -32.207031 L 20.882812 -91.550781 C 19.113281 -93.320312 16.753906 -94.382812 14.15625 -94.382812 C 8.964844 -94.382812 4.71875 -90.136719 4.71875 -84.945312 L 4.71875 0 Z M 23.597656 0 "/></g></g></g><g fill="#9163cb" fill-opacity="1"><g transform="translate(553.40537, 226.759016)"><g><path d="M 80.226562 0 C 90.609375 0 99.101562 -8.496094 99.101562 -18.875 L 99.101562 -75.507812 C 99.101562 -85.886719 90.609375 -94.382812 80.226562 -94.382812 L 4.71875 -94.382812 L 4.71875 0 Z M 23.597656 -75.507812 L 80.226562 -75.507812 L 80.226562 -18.875 L 23.597656 -18.875 Z M 23.597656 -75.507812 "/></g></g></g><g fill="#9163cb" fill-opacity="1"><g transform="translate(657.226784, 226.759016)"><g/></g></g><g fill="#9163cb" fill-opacity="1"><g transform="translate(709.137491, 226.759016)"><g><path d="M 23.597656 -94.382812 C 13.214844 -94.382812 4.71875 -85.886719 4.71875 -75.507812 L 4.71875 0 L 23.597656 0 L 23.597656 -75.507812 L 42.472656 -75.507812 L 42.472656 0 L 61.347656 0 L 61.347656 -75.507812 L 80.226562 -75.507812 L 80.226562 0 L 99.101562 0 L 99.101562 -75.507812 C 99.101562 -85.886719 90.609375 -94.382812 80.226562 -94.382812 Z M 23.597656 -94.382812 "/></g></g></g><g fill="#9163cb" fill-opacity="1"><g transform="translate(812.958906, 226.759016)"><g><path d="M 23.597656 -94.382812 C 13.214844 -94.382812 4.71875 -85.886719 4.71875 -75.507812 L 4.71875 0 L 23.597656 0 L 23.597656 -37.753906 L 80.226562 -37.753906 L 80.226562 0 L 99.101562 0 L 99.101562 -75.507812 C 99.101562 -85.886719 90.609375 -94.382812 80.226562 -94.382812 Z M 23.597656 -75.507812 L 80.226562 -75.507812 L 80.226562 -56.628906 L 23.597656 -56.628906 Z M 23.597656 -75.507812 "/></g></g></g><g fill="#9163cb" fill-opacity="1"><g transform="translate(916.780286, 226.759016)"><g><path d="M 99.101562 -94.382812 L 23.597656 -94.382812 C 13.214844 -94.382812 4.71875 -85.886719 4.71875 -75.507812 L 4.71875 -56.628906 C 4.71875 -46.246094 13.214844 -37.753906 23.597656 -37.753906 L 80.226562 -37.753906 L 80.226562 -18.875 L 4.71875 -18.875 L 4.71875 0 L 80.226562 0 C 90.609375 0 99.101562 -8.496094 99.101562 -18.875 L 99.101562 -37.753906 C 99.101562 -48.136719 90.609375 -56.628906 80.226562 -56.628906 L 23.597656 -56.628906 L 23.597656 -75.507812 L 99.101562 -75.507812 Z M 99.101562 -94.382812 "/></g></g></g><g fill="#9163cb" fill-opacity="1"><g transform="translate(1020.601701, 226.759016)"><g><path d="M 99.101562 -94.382812 L 4.71875 -94.382812 L 4.71875 -75.507812 L 42.472656 -75.507812 L 42.472656 0 L 61.347656 0 L 61.347656 -75.507812 L 99.101562 -75.507812 Z M 99.101562 -94.382812 "/></g></g></g><g fill="#9163cb" fill-opacity="1"><g transform="translate(1124.423116, 226.759016)"><g><path d="M 99.101562 -94.382812 L 23.597656 -94.382812 C 13.214844 -94.382812 4.71875 -85.886719 4.71875 -75.507812 L 4.71875 -18.875 C 4.71875 -8.496094 13.214844 0 23.597656 0 L 99.101562 0 L 99.101562 -18.875 L 23.597656 -18.875 L 23.597656 -37.753906 L 99.101562 -37.753906 L 99.101562 -56.628906 L 23.597656 -56.628906 L 23.597656 -75.507812 L 99.101562 -75.507812 Z M 99.101562 -94.382812 "/></g></g></g><g fill="#9163cb" fill-opacity="1"><g transform="translate(1228.24453, 226.759016)"><g><path d="M 99.101562 -75.507812 C 99.101562 -85.886719 90.609375 -94.382812 80.226562 -94.382812 L 4.71875 -94.382812 L 4.71875 0 L 23.597656 0 L 23.597656 -37.753906 L 34.6875 -37.753906 L 69.609375 -2.832031 C 71.496094 -0.945312 73.855469 0 76.449219 0 L 99.101562 0 L 99.101562 -18.875 L 80.226562 -18.875 L 61.347656 -37.753906 L 80.226562 -37.753906 C 90.609375 -37.753906 99.101562 -46.246094 99.101562 -56.628906 Z M 80.226562 -75.507812 L 80.226562 -56.628906 L 23.597656 -56.628906 L 23.597656 -75.507812 Z M 80.226562 -75.507812 "/></g></g></g><g fill="#9163cb" fill-opacity="1"><g transform="translate(1332.065945, 226.759016)"><g><path d="M 99.101562 -94.382812 L 23.597656 -94.382812 C 13.214844 -94.382812 4.71875 -85.886719 4.71875 -75.507812 L 4.71875 -56.628906 C 4.71875 -46.246094 13.214844 -37.753906 23.597656 -37.753906 L 80.226562 -37.753906 L 80.226562 -18.875 L 4.71875 -18.875 L 4.71875 0 L 80.226562 0 C 90.609375 0 99.101562 -8.496094 99.101562 -18.875 L 99.101562 -37.753906 C 99.101562 -48.136719 90.609375 -56.628906 80.226562 -56.628906 L 23.597656 -56.628906 L 23.597656 -75.507812 L 99.101562 -75.507812 Z M 99.101562 -94.382812 "/></g></g></g><g fill="#9163cb" fill-opacity="1"><g transform="translate(243.647929, 305.727994)"><g><path d="M 66.167969 -11.675781 C 66.167969 -10.351562 65.667969 -9.191406 64.675781 -8.199219 C 63.683594 -7.203125 62.523438 -6.707031 61.117188 -6.707031 L 17.390625 -6.707031 C 16.480469 -6.875 15.570312 -7.371094 14.824219 -8.117188 C 13.828125 -9.109375 13.332031 -10.269531 13.332031 -11.675781 L 13.332031 -28.488281 C 13.332031 -29.894531 13.828125 -31.054688 14.824219 -32.046875 C 15.816406 -33.042969 16.976562 -33.539062 18.382812 -33.539062 L 61.117188 -33.539062 C 62.523438 -33.539062 63.683594 -33.042969 64.675781 -32.046875 C 65.667969 -31.054688 66.167969 -29.894531 66.167969 -28.488281 L 72.875 -28.488281 C 72.875 -31.71875 71.714844 -34.449219 69.394531 -36.769531 C 67.078125 -39.085938 64.425781 -40.164062 61.117188 -40.164062 L 18.300781 -40.164062 C 14.988281 -40.164062 12.339844 -39.085938 10.101562 -36.769531 C 7.785156 -34.367188 6.625 -31.800781 6.625 -28.652344 L 6.625 -11.675781 C 6.625 -8.445312 7.785156 -5.714844 10.101562 -3.394531 C 12.339844 -1.078125 15.070312 0 18.382812 0 L 61.199219 0 C 64.511719 0 67.160156 -1.078125 69.394531 -3.394531 C 71.714844 -5.796875 72.875 -8.445312 72.875 -11.675781 Z M 66.167969 -11.675781 "/></g></g></g><g fill="#9163cb" fill-opacity="1"><g transform="translate(323.142291, 305.727994)"><g><path d="M 66.25 -40.164062 L 66.167969 -28.488281 L 66.167969 -23.4375 L 13.332031 -23.4375 L 13.332031 -28.488281 L 13.25 -40.164062 L 6.625 -40.164062 L 6.625 0 L 13.332031 0 L 13.332031 -16.726562 L 66.167969 -16.726562 L 66.167969 0 L 72.875 0 L 72.875 -40.164062 Z M 66.25 -40.164062 "/></g></g></g><g fill="#9163cb" fill-opacity="1"><g transform="translate(402.636652, 305.727994)"><g><path d="M 69.394531 -36.769531 C 67.160156 -39.085938 64.511719 -40.164062 61.199219 -40.164062 L 18.382812 -40.164062 C 15.070312 -40.164062 12.339844 -39.085938 10.101562 -36.769531 C 7.785156 -34.367188 6.625 -31.71875 6.625 -28.488281 L 6.625 0 L 13.332031 0 L 13.332031 -16.726562 L 66.167969 -16.726562 L 66.167969 0 L 72.875 0 L 72.875 -28.488281 C 72.875 -31.71875 71.714844 -34.367188 69.394531 -36.769531 Z M 66.167969 -23.4375 L 13.332031 -23.4375 L 13.332031 -28.488281 C 13.332031 -29.894531 13.828125 -31.054688 14.824219 -32.046875 C 15.570312 -32.792969 16.480469 -33.289062 17.390625 -33.457031 L 61.117188 -33.457031 C 62.523438 -33.457031 63.683594 -32.960938 64.675781 -31.964844 C 65.667969 -30.972656 66.167969 -29.8125 66.167969 -28.488281 Z M 66.167969 -23.4375 "/></g></g></g><g fill="#9163cb" fill-opacity="1"><g transform="translate(482.131013, 305.727994)"><g><path d="M 26.664062 -6.707031 C 22.9375 -6.707031 19.792969 -8.03125 17.226562 -10.601562 C 14.574219 -13.25 13.332031 -16.398438 13.332031 -20.039062 L 13.332031 -40.164062 L 6.625 -40.164062 L 6.625 -20.039062 C 6.625 -14.574219 8.613281 -9.855469 12.503906 -5.878906 C 16.398438 -1.988281 21.117188 0 26.664062 0 L 72.875 0 L 72.875 -6.707031 Z M 26.664062 -6.707031 "/></g></g></g><g fill="#9163cb" fill-opacity="1"><g transform="translate(561.625374, 305.727994)"><g><path d="M 26.664062 -6.707031 C 22.9375 -6.707031 19.792969 -8.03125 17.226562 -10.601562 C 14.574219 -13.25 13.332031 -16.398438 13.332031 -20.039062 L 13.332031 -40.164062 L 6.625 -40.164062 L 6.625 -20.039062 C 6.625 -14.574219 8.613281 -9.855469 12.503906 -5.878906 C 16.398438 -1.988281 21.117188 0 26.664062 0 L 72.875 0 L 72.875 -6.707031 Z M 26.664062 -6.707031 "/></g></g></g><g fill="#9163cb" fill-opacity="1"><g transform="translate(641.119736, 305.727994)"><g><path d="M 14.824219 -32.046875 C 15.570312 -32.792969 16.480469 -33.289062 17.390625 -33.457031 L 72.875 -33.457031 L 72.875 -40.164062 L 18.382812 -40.164062 C 15.070312 -40.164062 12.339844 -39.085938 10.101562 -36.769531 C 7.785156 -34.367188 6.625 -31.71875 6.625 -28.488281 L 6.625 -11.675781 C 6.625 -8.445312 7.785156 -5.796875 10.101562 -3.394531 C 12.339844 -1.078125 15.070312 0 18.382812 0 L 72.875 0 L 72.875 -6.707031 L 17.390625 -6.707031 C 16.480469 -6.875 15.570312 -7.371094 14.824219 -8.117188 C 13.828125 -9.109375 13.332031 -10.269531 13.332031 -11.675781 L 13.332031 -16.726562 L 65.835938 -16.726562 L 65.835938 -23.4375 L 13.332031 -23.4375 L 13.332031 -28.488281 C 13.332031 -29.894531 13.828125 -31.054688 14.824219 -32.046875 Z M 14.824219 -32.046875 "/></g></g></g><g fill="#9163cb" fill-opacity="1"><g transform="translate(720.614097, 305.727994)"><g><path d="M 66.167969 0 L 72.875 0 L 72.875 -28.570312 C 72.875 -31.800781 71.714844 -34.449219 69.394531 -36.851562 C 67.160156 -39.171875 64.511719 -40.246094 61.199219 -40.246094 L 18.382812 -40.246094 C 15.070312 -40.246094 12.339844 -39.171875 10.101562 -36.851562 C 7.785156 -34.449219 6.625 -31.800781 6.625 -28.570312 L 6.625 0 L 13.332031 0 L 13.332031 -28.570312 C 13.332031 -29.976562 13.828125 -31.136719 14.824219 -32.132812 C 15.570312 -32.875 16.480469 -33.375 17.390625 -33.539062 L 61.117188 -33.539062 C 62.523438 -33.539062 63.683594 -33.042969 64.675781 -32.046875 C 65.667969 -31.054688 66.167969 -29.894531 66.167969 -28.570312 Z M 66.167969 0 "/></g></g></g><g fill="#9163cb" fill-opacity="1"><g transform="translate(800.108458, 305.727994)"><g><path d="M 72.875 -23.4375 L 26.664062 -23.4375 L 26.664062 -16.726562 L 66.167969 -16.726562 L 66.167969 -11.675781 C 66.167969 -10.351562 65.667969 -9.191406 64.675781 -8.199219 C 63.683594 -7.203125 62.523438 -6.707031 61.117188 -6.707031 L 17.390625 -6.707031 C 16.480469 -6.875 15.570312 -7.371094 14.824219 -8.117188 C 13.828125 -9.109375 13.332031 -10.269531 13.332031 -11.675781 L 13.332031 -28.488281 C 13.332031 -29.894531 13.828125 -31.054688 14.824219 -32.046875 C 15.816406 -33.042969 16.976562 -33.539062 18.382812 -33.539062 L 61.117188 -33.539062 C 62.523438 -33.539062 63.683594 -33.042969 64.675781 -32.046875 C 65.667969 -31.054688 66.167969 -29.894531 66.167969 -28.488281 L 72.875 -28.488281 C 72.875 -31.71875 71.714844 -34.449219 69.394531 -36.769531 C 67.078125 -39.085938 64.425781 -40.164062 61.117188 -40.164062 L 18.300781 -40.164062 C 14.988281 -40.164062 12.339844 -39.085938 10.101562 -36.769531 C 7.785156 -34.367188 6.625 -31.800781 6.625 -28.652344 L 6.625 -11.675781 C 6.625 -8.445312 7.785156 -5.714844 10.101562 -3.394531 C 12.339844 -1.078125 15.070312 0 18.382812 0 L 61.199219 0 C 64.511719 0 67.160156 -1.078125 69.394531 -3.394531 C 71.714844 -5.796875 72.875 -8.445312 72.875 -11.675781 Z M 72.875 -23.4375 "/></g></g></g><g fill="#9163cb" fill-opacity="1"><g transform="translate(879.602819, 305.727994)"><g><path d="M 14.824219 -32.046875 C 15.570312 -32.792969 16.480469 -33.289062 17.390625 -33.457031 L 72.875 -33.457031 L 72.875 -40.164062 L 18.382812 -40.164062 C 15.070312 -40.164062 12.339844 -39.085938 10.101562 -36.769531 C 7.785156 -34.367188 6.625 -31.71875 6.625 -28.488281 L 6.625 -11.675781 C 6.625 -8.445312 7.785156 -5.796875 10.101562 -3.394531 C 12.339844 -1.078125 15.070312 0 18.382812 0 L 72.875 0 L 72.875 -6.707031 L 17.390625 -6.707031 C 16.480469 -6.875 15.570312 -7.371094 14.824219 -8.117188 C 13.828125 -9.109375 13.332031 -10.269531 13.332031 -11.675781 L 13.332031 -16.726562 L 65.835938 -16.726562 L 65.835938 -23.4375 L 13.332031 -23.4375 L 13.332031 -28.488281 C 13.332031 -29.894531 13.828125 -31.054688 14.824219 -32.046875 Z M 14.824219 -32.046875 "/></g></g></g></svg>