<svg xmlns="http://www.w3.org/2000/svg" xmlns:xlink="http://www.w3.org/1999/xlink" width="1920" zoomAndPan="magnify" viewBox="0 0 1440 404.99999" height="540" preserveAspectRatio="xMidYMid meet" version="1.0"><defs><g/><clipPath id="f023a47d24"><path d="M 0 66.667969 L 215.25 66.667969 L 215.25 338.167969 L 0 338.167969 Z M 0 66.667969 " clip-rule="nonzero"/></clipPath></defs><g clip-path="url(#f023a47d24)"><path fill="#fafafa" d="M 71.339844 271.957031 L 65.835938 245.824219 C 65.117188 242.425781 63.988281 239.375 62.40625 236.597656 C 60.828125 233.824219 58.785156 231.296875 56.226562 228.9375 C 48.542969 221.875 42.316406 213.230469 38.050781 203.523438 C 33.949219 194.175781 31.667969 183.855469 31.667969 173.023438 C 31.667969 152.042969 40.175781 133.046875 53.929688 119.300781 C 67.679688 105.554688 86.679688 97.050781 107.667969 97.050781 C 128.648438 97.050781 147.652344 105.554688 161.40625 119.304688 C 175.171875 133.058594 183.6875 152.050781 183.6875 173.023438 C 183.6875 183.855469 181.40625 194.175781 177.300781 203.523438 C 173.039062 213.230469 166.808594 221.875 159.125 228.9375 C 156.578125 231.285156 154.570312 233.820312 153.011719 236.605469 C 151.4375 239.40625 150.304688 242.484375 149.507812 245.898438 L 143.441406 271.578125 C 144.457031 272.210938 145.390625 272.980469 146.214844 273.863281 C 148.558594 276.378906 150.023438 279.839844 150.054688 283.652344 L 150.058594 283.78125 L 150.070312 283.78125 L 150.070312 283.789062 L 150.058594 283.789062 L 150.058594 283.808594 C 150.058594 287.671875 148.589844 291.183594 146.214844 293.726562 C 145.847656 294.125 145.457031 294.496094 145.046875 294.839844 C 145.457031 295.1875 145.84375 295.558594 146.214844 295.953125 C 148.585938 298.496094 150.054688 302.003906 150.058594 305.867188 L 150.070312 305.867188 L 150.070312 305.894531 C 150.070312 309.753906 148.59375 313.261719 146.214844 315.816406 C 143.773438 318.429688 140.394531 320.046875 136.65625 320.046875 L 132.347656 320.046875 C 130.804688 324.933594 127.851562 329.191406 123.96875 332.34375 C 119.507812 335.964844 113.835938 338.132812 107.667969 338.132812 C 101.5 338.132812 95.832031 335.964844 91.378906 332.347656 C 87.496094 329.195312 84.546875 324.9375 83.007812 320.046875 L 78.695312 320.046875 C 74.957031 320.046875 71.578125 318.429688 69.140625 315.816406 C 66.761719 313.261719 65.289062 309.753906 65.289062 305.894531 L 65.289062 305.878906 C 65.289062 302.019531 66.761719 298.507812 69.140625 295.953125 C 69.507812 295.558594 69.898438 295.1875 70.304688 294.839844 C 69.898438 294.492188 69.507812 294.121094 69.140625 293.726562 C 66.761719 291.175781 65.285156 287.664062 65.285156 283.804688 L 65.296875 283.804688 L 65.296875 283.789062 C 65.296875 279.921875 66.765625 276.410156 69.140625 273.863281 C 69.808594 273.148438 70.542969 272.511719 71.339844 271.957031 Z M 155.777344 164.9375 C 155.972656 162.820312 155.875 159.828125 155.359375 157.183594 C 155.316406 156.960938 155.269531 156.738281 155.222656 156.527344 C 154.863281 157.257812 154.425781 157.960938 153.917969 158.628906 C 152.863281 160.015625 151.519531 161.234375 149.996094 162.167969 C 148.453125 163.109375 146.714844 163.769531 144.898438 164.035156 C 142.671875 164.359375 140.335938 164.089844 138.089844 163.023438 C 137.140625 164.90625 134.839844 168.628906 131.074219 169.789062 C 130.402344 169.996094 129.726562 170.132812 129.054688 170.210938 L 128.992188 170.21875 C 128.296875 170.289062 127.617188 170.296875 126.949219 170.25 C 125.804688 170.167969 124.945312 169.175781 125.023438 168.03125 C 125.105469 166.886719 126.097656 166.027344 127.242188 166.105469 C 127.6875 166.140625 128.125 166.136719 128.554688 166.089844 L 128.609375 166.085938 C 129.019531 166.039062 129.4375 165.953125 129.851562 165.824219 C 132.984375 164.859375 134.6875 160.515625 134.730469 160.394531 L 135.15625 159.269531 C 135.5625 158.195312 136.757812 157.65625 137.832031 158.058594 C 138.066406 158.148438 138.277344 158.273438 138.457031 158.429688 C 140.332031 159.8125 142.386719 160.203125 144.3125 159.925781 C 145.554688 159.742188 146.757812 159.28125 147.832031 158.625 C 148.925781 157.957031 149.882812 157.09375 150.621094 156.125 C 151.746094 154.640625 152.359375 152.910156 152.15625 151.257812 C 152.117188 151.074219 152.109375 150.882812 152.125 150.6875 C 152.199219 149.824219 152.183594 148.972656 152.085938 148.148438 C 151.800781 145.710938 150.828125 143.453125 149.464844 141.769531 C 148.316406 140.347656 146.910156 139.367188 145.46875 139.109375 C 145.242188 139.667969 144.945312 140.324219 144.558594 141.007812 C 143.511719 142.859375 141.8125 144.941406 139.191406 145.988281 C 138.636719 146.207031 138.082031 146.371094 137.519531 146.476562 C 136.933594 146.585938 136.355469 146.644531 135.78125 146.644531 C 134.304688 146.644531 132.761719 146.304688 131.148438 145.636719 C 130.605469 145.410156 130.054688 145.144531 129.496094 144.839844 C 129.289062 145.625 128.980469 146.382812 128.578125 147.089844 L 128.574219 147.097656 L 128.578125 147.097656 C 127.996094 148.113281 127.234375 149.003906 126.324219 149.75 C 125.421875 150.492188 124.382812 151.078125 123.246094 151.492188 C 122.167969 151.882812 120.976562 151.324219 120.589844 150.25 C 120.199219 149.171875 120.753906 147.980469 121.832031 147.589844 C 122.535156 147.335938 123.160156 146.984375 123.691406 146.550781 C 124.199219 146.132812 124.628906 145.625 124.96875 145.035156 L 124.972656 145.039062 C 125.261719 144.53125 125.460938 143.972656 125.570312 143.386719 C 125.683594 142.773438 125.703125 142.113281 125.621094 141.421875 C 125.5625 140.914062 125.691406 140.378906 126.027344 139.9375 C 126.71875 139.023438 128.019531 138.839844 128.9375 139.53125 C 130.285156 140.546875 131.554688 141.304688 132.742188 141.800781 C 133.832031 142.253906 134.847656 142.480469 135.78125 142.480469 C 136.132812 142.480469 136.460938 142.453125 136.753906 142.398438 C 137.074219 142.339844 137.375 142.25 137.660156 142.136719 C 139.207031 141.523438 140.269531 140.183594 140.949219 138.976562 C 141.484375 138.03125 141.78125 137.191406 141.910156 136.769531 C 141.867188 135.910156 141.582031 134.964844 141.113281 134.039062 C 140.46875 132.761719 139.484375 131.550781 138.289062 130.660156 C 137.179688 129.832031 135.894531 129.300781 134.566406 129.300781 C 133.8125 129.300781 133.027344 129.472656 132.234375 129.855469 C 132.09375 129.9375 131.9375 130.003906 131.773438 130.050781 C 130.667969 130.363281 129.519531 129.722656 129.203125 128.621094 C 128.855469 127.394531 127.769531 125.394531 126.027344 123.941406 C 124.894531 123 123.480469 122.3125 121.824219 122.3125 C 120.054688 122.3125 118.710938 123.101562 117.777344 124.417969 L 117.714844 124.519531 C 116.515625 126.28125 115.921875 128.914062 115.921875 131.960938 L 115.921875 204.003906 C 115.921875 209.863281 117.371094 213.675781 119.539062 215.910156 C 120.910156 217.324219 122.589844 218.121094 124.371094 218.414062 C 126.234375 218.722656 128.21875 218.5 130.097656 217.871094 C 133.476562 216.742188 136.464844 214.347656 137.808594 211.394531 C 138.179688 210.484375 139.160156 209.9375 140.15625 210.144531 C 140.363281 210.1875 140.574219 210.210938 140.789062 210.214844 C 142.363281 210.230469 144.320312 209.363281 146.089844 207.738281 C 147.964844 206.019531 149.558594 203.484375 150.230469 200.273438 C 150.441406 199.273438 150.5625 198.21875 150.578125 197.113281 C 150.578125 196.496094 150.851562 195.886719 151.375 195.480469 C 151.957031 195.023438 154.070312 192.929688 154.992188 190.273438 C 155.398438 189.09375 155.542969 187.8125 155.121094 186.566406 C 154.019531 185.898438 152.90625 185.5 151.824219 185.378906 C 150.632812 185.242188 149.457031 185.441406 148.363281 185.980469 C 147.238281 186.535156 146.273438 187.417969 145.542969 188.503906 C 144.796875 189.617188 144.296875 190.945312 144.132812 192.371094 L 143.976562 193.707031 C 143.847656 194.847656 142.816406 195.667969 141.675781 195.539062 C 141.433594 195.511719 141.207031 195.441406 141 195.339844 L 139.976562 194.878906 C 139.160156 194.503906 138.242188 194.382812 137.371094 194.4375 C 136.375 194.496094 135.46875 194.777344 134.851562 195.171875 C 133.746094 195.871094 132.800781 197.125 132.367188 198.777344 C 131.972656 200.285156 132.003906 202.125 132.703125 204.195312 C 133.070312 205.28125 132.488281 206.460938 131.402344 206.828125 C 130.316406 207.195312 129.136719 206.613281 128.769531 205.527344 C 127.789062 202.628906 127.765625 199.976562 128.351562 197.738281 C 129.070312 195 130.699219 192.882812 132.625 191.660156 C 133.789062 190.921875 135.410156 190.398438 137.128906 190.292969 C 138.136719 190.230469 139.195312 190.3125 140.226562 190.578125 C 140.582031 188.988281 141.222656 187.5 142.097656 186.195312 C 143.226562 184.515625 144.742188 183.140625 146.527344 182.261719 C 148.355469 181.359375 150.304688 181.027344 152.277344 181.25 C 153.660156 181.40625 155.046875 181.835938 156.394531 182.523438 C 157.890625 180.546875 158.457031 178.09375 158.382812 175.75 C 158.296875 173.054688 157.40625 170.566406 156.144531 169.121094 C 155.199219 168.984375 154.101562 169.234375 153.128906 169.796875 C 152.109375 170.382812 151.269531 171.292969 150.949219 172.425781 L 150.890625 172.664062 C 150.648438 173.785156 149.542969 174.496094 148.421875 174.253906 C 147.296875 174.011719 146.585938 172.90625 146.828125 171.785156 L 146.914062 171.425781 L 146.945312 171.320312 C 147.582031 169.0625 149.164062 167.296875 151.0625 166.207031 C 152.523438 165.363281 154.191406 164.914062 155.777344 164.9375 Z M 159.679688 166.894531 C 161.304688 169.039062 162.421875 172.257812 162.527344 175.617188 C 162.636719 179.089844 161.699219 182.769531 159.195312 185.675781 C 159.785156 187.742188 159.546875 189.777344 158.90625 191.621094 C 157.921875 194.460938 155.902344 196.855469 154.691406 198.050781 C 154.632812 199.125 154.496094 200.148438 154.292969 201.117188 C 153.425781 205.257812 151.351562 208.546875 148.902344 210.792969 C 146.414062 213.078125 143.476562 214.324219 140.9375 214.355469 C 138.921875 217.78125 135.355469 220.488281 131.414062 221.804688 C 128.914062 222.636719 126.246094 222.929688 123.703125 222.507812 C 121.074219 222.074219 118.59375 220.898438 116.5625 218.804688 C 113.683594 215.835938 111.761719 211.058594 111.761719 204.003906 L 111.761719 131.960938 C 111.761719 128.109375 112.597656 124.660156 114.285156 122.179688 L 114.375 122.054688 C 116.085938 119.617188 118.5625 118.15625 121.824219 118.15625 C 124.570312 118.15625 126.867188 119.25 128.675781 120.753906 C 130.324219 122.128906 131.5625 123.875 132.359375 125.414062 C 133.101562 125.230469 133.839844 125.140625 134.566406 125.140625 C 136.859375 125.140625 138.988281 125.996094 140.777344 127.328125 C 142.484375 128.601562 143.894531 130.335938 144.820312 132.171875 C 145.28125 133.082031 145.628906 134.023438 145.839844 134.960938 C 148.449219 135.3125 150.855469 136.871094 152.703125 139.152344 C 154.53125 141.414062 155.835938 144.433594 156.214844 147.679688 C 156.296875 148.375 156.335938 149.078125 156.328125 149.785156 C 157.914062 151.167969 158.902344 153.640625 159.441406 156.402344 C 160.140625 160 160.128906 164.300781 159.679688 166.894531 Z M 122.285156 192.0625 C 121.148438 192.226562 120.09375 191.441406 119.925781 190.304688 C 119.761719 189.171875 120.546875 188.113281 121.683594 187.949219 C 121.921875 187.914062 122.121094 187.753906 122.261719 187.519531 C 122.527344 187.101562 122.667969 186.507812 122.695312 185.867188 L 122.695312 185.847656 C 122.722656 185.132812 122.613281 184.402344 122.375 183.769531 C 122.140625 183.140625 121.820312 182.660156 121.449219 182.535156 C 120.363281 182.171875 119.777344 180.996094 120.140625 179.910156 C 120.183594 179.78125 120.238281 179.660156 120.304688 179.542969 C 120.308594 179.539062 121.566406 177.390625 120.96875 176.089844 C 120.488281 175.050781 120.945312 173.816406 121.984375 173.335938 C 123.027344 172.855469 124.261719 173.3125 124.738281 174.351562 C 125.617188 176.25 125.207031 178.367188 124.703125 179.816406 C 125.382812 180.496094 125.902344 181.363281 126.261719 182.324219 C 126.6875 183.46875 126.890625 184.773438 126.839844 186.011719 L 126.839844 186.046875 C 126.78125 187.371094 126.441406 188.671875 125.789062 189.714844 C 125.019531 190.949219 123.863281 191.828125 122.285156 192.0625 Z M 59.242188 169.710938 C 57.964844 171.148438 57.058594 173.65625 56.972656 176.371094 C 56.886719 179.125 57.675781 182.027344 59.828125 184.132812 L 59.976562 184.28125 C 60.042969 184.34375 60.105469 184.40625 60.160156 184.472656 C 60.625 184.957031 61.976562 185.117188 63.546875 185.078125 C 65.90625 185.019531 68.464844 184.421875 69.753906 183.6875 C 70.75 183.125 72.019531 183.472656 72.582031 184.46875 C 73.148438 185.464844 72.800781 186.730469 71.804688 187.296875 C 70.003906 188.316406 66.636719 189.148438 63.640625 189.222656 C 62.351562 189.257812 61.089844 189.144531 59.980469 188.851562 C 59.988281 189.550781 60.136719 190.238281 60.363281 190.898438 C 61.285156 193.550781 63.398438 195.648438 63.980469 196.101562 C 64.503906 196.511719 64.777344 197.121094 64.777344 197.738281 C 64.792969 198.84375 64.914062 199.898438 65.125 200.898438 C 65.796875 204.109375 67.390625 206.640625 69.265625 208.363281 C 71.035156 209.988281 72.992188 210.855469 74.566406 210.835938 C 74.78125 210.835938 74.992188 210.8125 75.199219 210.769531 C 75.289062 210.75 75.378906 210.738281 75.46875 210.730469 C 75.949219 210.402344 76.5625 210.277344 77.167969 210.4375 L 77.296875 210.464844 C 78.285156 210.679688 79.480469 210.433594 80.527344 209.828125 C 81.546875 209.242188 82.386719 208.332031 82.707031 207.203125 L 82.765625 206.964844 C 83.007812 205.84375 84.113281 205.128906 85.234375 205.371094 C 86.359375 205.613281 87.070312 206.71875 86.828125 207.839844 L 86.742188 208.199219 L 86.710938 208.304688 C 86.074219 210.5625 84.492188 212.328125 82.59375 213.421875 C 81.550781 214.023438 80.398438 214.421875 79.242188 214.597656 C 80.792969 216.339844 82.929688 217.71875 85.253906 218.492188 C 87.136719 219.125 89.121094 219.347656 90.984375 219.039062 C 92.765625 218.742188 94.445312 217.949219 95.816406 216.535156 C 97.984375 214.300781 99.433594 210.488281 99.433594 204.628906 L 99.433594 132.582031 C 99.433594 129.535156 98.839844 126.90625 97.640625 125.144531 L 97.574219 125.042969 C 96.644531 123.726562 95.300781 122.9375 93.53125 122.9375 C 91.871094 122.9375 90.460938 123.621094 89.328125 124.566406 C 88.375 125.359375 87.621094 126.316406 87.074219 127.222656 C 88.890625 127.972656 91.132812 129.65625 91.121094 133.363281 C 91.121094 134.507812 90.191406 135.4375 89.046875 135.4375 C 87.902344 135.4375 86.976562 134.507812 86.976562 133.363281 C 86.984375 130.960938 84.429688 130.753906 84.421875 130.753906 L 84.347656 130.742188 C 84.097656 130.769531 83.839844 130.746094 83.582031 130.671875 C 83.417969 130.625 83.261719 130.5625 83.121094 130.480469 C 82.328125 130.097656 81.542969 129.925781 80.785156 129.925781 C 79.457031 129.925781 78.175781 130.457031 77.066406 131.285156 C 75.871094 132.175781 74.886719 133.382812 74.242188 134.660156 C 74.015625 135.105469 73.835938 135.554688 73.699219 135.992188 C 73.871094 136.148438 74.019531 136.332031 74.132812 136.546875 C 75 138.140625 75.871094 140.089844 76.367188 142.351562 C 76.867188 144.65625 76.96875 147.261719 76.261719 150.113281 C 75.890625 151.609375 75.09375 152.957031 74.058594 154.089844 C 72.964844 155.289062 71.582031 156.269531 70.160156 156.933594 C 69.121094 157.417969 67.886719 156.96875 67.402344 155.933594 C 66.917969 154.898438 67.367188 153.664062 68.402344 153.179688 C 69.34375 152.738281 70.257812 152.089844 70.984375 151.296875 C 71.582031 150.640625 72.035156 149.898438 72.230469 149.121094 C 72.765625 146.96875 72.6875 144.984375 72.300781 143.226562 C 72.019531 141.929688 71.566406 140.742188 71.074219 139.6875 L 71.023438 139.683594 C 70.78125 139.660156 70.53125 139.660156 70.277344 139.683594 C 68.695312 139.820312 67.140625 140.84375 65.890625 142.390625 C 64.523438 144.078125 63.550781 146.335938 63.269531 148.773438 C 63.171875 149.597656 63.15625 150.449219 63.230469 151.308594 C 63.3125 152.261719 62.742188 153.117188 61.890625 153.4375 C 61.050781 153.835938 60.417969 155.632812 59.996094 157.804688 C 59.496094 160.367188 59.386719 163.25 59.558594 165.347656 C 60.449219 165.0625 61.414062 164.832031 62.421875 164.722656 C 63.609375 164.59375 64.851562 164.632812 66.101562 164.933594 C 67.382812 165.242188 68.59375 165.898438 69.644531 166.816406 C 70.65625 167.703125 71.527344 168.835938 72.160156 170.128906 C 72.632812 171.101562 72.953125 172.125 73.101562 173.121094 L 73.113281 173.195312 C 73.191406 173.738281 73.214844 174.273438 73.1875 174.792969 C 75.363281 174.5625 77.988281 174.75 80.386719 176.171875 C 82.539062 177.453125 84.433594 179.671875 85.539062 183.367188 C 85.867188 184.46875 85.242188 185.625 84.140625 185.949219 C 83.042969 186.277344 81.882812 185.652344 81.554688 184.554688 C 80.792969 182 79.597656 180.535156 78.273438 179.75 C 76.367188 178.617188 74.054688 178.765625 72.394531 179.113281 L 70.867188 179.4375 C 69.746094 179.667969 68.644531 178.949219 68.414062 177.828125 C 68.339844 177.472656 68.359375 177.117188 68.460938 176.792969 L 68.976562 175.046875 C 69.0625 174.699219 69.070312 174.265625 69 173.777344 L 68.992188 173.722656 C 68.90625 173.160156 68.714844 172.550781 68.417969 171.949219 C 68.023438 171.140625 67.503906 170.453125 66.914062 169.9375 C 66.359375 169.453125 65.746094 169.113281 65.125 168.964844 C 64.390625 168.785156 63.621094 168.765625 62.859375 168.851562 C 61.890625 168.953125 60.9375 169.234375 60.085938 169.570312 C 59.808594 169.679688 59.523438 169.722656 59.242188 169.710938 Z M 52.828125 176.242188 C 52.933594 172.878906 54.046875 169.664062 55.671875 167.519531 C 55.222656 164.925781 55.210938 160.625 55.914062 157.027344 C 56.453125 154.265625 57.441406 151.792969 59.027344 150.40625 C 59.019531 149.703125 59.058594 149 59.140625 148.300781 C 59.519531 145.054688 60.824219 142.039062 62.652344 139.773438 C 64.5 137.496094 66.90625 135.9375 69.515625 135.585938 C 69.726562 134.648438 70.074219 133.703125 70.535156 132.792969 C 71.460938 130.960938 72.871094 129.226562 74.578125 127.953125 C 76.367188 126.621094 78.496094 125.765625 80.785156 125.765625 C 81.511719 125.765625 82.253906 125.851562 82.996094 126.039062 C 83.789062 124.5 85.03125 122.753906 86.679688 121.378906 C 88.488281 119.871094 90.78125 118.777344 93.53125 118.777344 C 96.789062 118.777344 99.269531 120.242188 100.980469 122.679688 L 101.070312 122.804688 C 102.757812 125.285156 103.59375 128.734375 103.59375 132.582031 L 103.59375 204.628906 C 103.59375 211.683594 101.671875 216.457031 98.792969 219.429688 C 96.761719 221.519531 94.28125 222.699219 91.652344 223.132812 C 89.109375 223.554688 86.4375 223.261719 83.9375 222.425781 C 80 221.109375 76.433594 218.40625 74.417969 214.980469 C 71.878906 214.945312 68.941406 213.699219 66.453125 211.417969 C 64.003906 209.167969 61.925781 205.882812 61.0625 201.742188 C 60.855469 200.773438 60.71875 199.75 60.664062 198.675781 C 59.453125 197.476562 57.433594 195.082031 56.445312 192.246094 C 55.808594 190.402344 55.570312 188.367188 56.160156 186.300781 C 53.65625 183.394531 52.71875 179.714844 52.828125 176.242188 Z M 96.816406 144.273438 C 97.527344 145.171875 97.375 146.472656 96.476562 147.179688 C 95.578125 147.890625 94.277344 147.738281 93.566406 146.839844 C 93.4375 146.675781 93.207031 146.527344 92.914062 146.402344 C 92.140625 146.074219 91.085938 145.984375 89.972656 146.144531 C 88.835938 146.308594 87.703125 146.730469 86.820312 147.429688 C 86.261719 147.871094 85.804688 148.425781 85.519531 149.097656 C 85.078125 150.152344 83.859375 150.648438 82.804688 150.203125 C 81.75 149.757812 81.257812 148.546875 81.699219 147.492188 C 82.273438 146.136719 83.171875 145.035156 84.253906 144.179688 C 85.746094 142.996094 87.585938 142.292969 89.386719 142.035156 C 91.214844 141.773438 93.0625 141.964844 94.523438 142.582031 C 95.445312 142.972656 96.234375 143.539062 96.816406 144.273438 Z M 84.523438 153.585938 C 85.660156 153.421875 86.714844 154.207031 86.878906 155.34375 C 87.046875 156.476562 86.261719 157.53125 85.125 157.699219 C 84.882812 157.734375 84.6875 157.894531 84.542969 158.128906 C 84.28125 158.546875 84.140625 159.140625 84.113281 159.78125 L 84.113281 159.800781 C 84.085938 160.515625 84.195312 161.246094 84.429688 161.878906 C 84.664062 162.507812 84.988281 162.988281 85.355469 163.113281 C 86.441406 163.476562 87.027344 164.652344 86.664062 165.738281 C 86.621094 165.867188 86.566406 165.988281 86.503906 166.101562 C 86.5 166.109375 85.238281 168.257812 85.835938 169.558594 C 86.316406 170.597656 85.863281 171.832031 84.820312 172.3125 C 83.78125 172.792969 82.546875 172.335938 82.066406 171.296875 C 81.191406 169.398438 81.597656 167.28125 82.101562 165.828125 C 81.425781 165.152344 80.902344 164.285156 80.542969 163.324219 C 80.117188 162.175781 79.917969 160.875 79.964844 159.636719 L 79.96875 159.601562 C 80.023438 158.277344 80.367188 156.976562 81.015625 155.933594 C 81.785156 154.699219 82.941406 153.820312 84.523438 153.585938 Z M 90.816406 195.097656 C 91.425781 194.214844 92.625 193.933594 93.566406 194.480469 C 94.558594 195.054688 94.898438 196.324219 94.324219 197.316406 L 93.296875 199.082031 C 92.722656 200.074219 91.453125 200.410156 90.460938 199.835938 C 90.335938 199.765625 90.21875 199.679688 90.117188 199.585938 C 88.863281 198.617188 87.664062 198.089844 86.59375 198.007812 C 85.65625 197.9375 84.78125 198.234375 84.042969 198.90625 C 83.191406 199.671875 81.882812 199.609375 81.113281 198.761719 C 80.347656 197.914062 80.414062 196.601562 81.261719 195.835938 C 82.890625 194.359375 84.820312 193.707031 86.902344 193.863281 C 88.179688 193.960938 89.5 194.375 90.816406 195.097656 Z M 87.933594 313.808594 L 136.65625 313.808594 C 138.597656 313.808594 140.367188 312.957031 141.652344 311.578125 C 142.996094 310.136719 143.828125 308.128906 143.828125 305.894531 L 143.828125 305.867188 L 143.839844 305.867188 C 143.835938 303.644531 143.003906 301.640625 141.652344 300.195312 C 140.421875 298.871094 138.757812 298.03125 136.929688 297.957031 C 136.84375 297.957031 136.753906 297.960938 136.667969 297.960938 L 136.667969 297.964844 L 136.660156 297.964844 L 136.660156 297.949219 L 78.699219 297.949219 L 78.699219 297.957031 C 76.753906 297.957031 74.988281 298.8125 73.703125 300.195312 C 72.359375 301.632812 71.53125 303.644531 71.53125 305.878906 L 71.53125 305.894531 C 71.53125 308.128906 72.359375 310.136719 73.699219 311.574219 C 74.988281 312.957031 76.753906 313.808594 78.695312 313.808594 Z M 125.710938 320.046875 L 89.640625 320.046875 C 90.90625 322.976562 92.863281 325.539062 95.304688 327.523438 C 98.667969 330.253906 102.972656 331.894531 107.667969 331.894531 C 112.367188 331.894531 116.671875 330.253906 120.042969 327.519531 C 122.484375 325.535156 124.445312 322.976562 125.710938 320.046875 Z M 78.335938 291.722656 C 78.457031 291.722656 78.574219 291.71875 78.699219 291.71875 L 83.585938 291.71875 L 83.578125 291.734375 L 136.660156 291.734375 L 136.660156 291.71875 C 138.601562 291.71875 140.367188 290.867188 141.652344 289.488281 C 142.980469 288.066406 143.8125 286.101562 143.839844 283.921875 L 143.828125 283.78125 L 143.839844 283.78125 C 143.839844 281.558594 143.003906 279.550781 141.652344 278.105469 C 140.367188 276.726562 138.601562 275.875 136.660156 275.875 L 78.695312 275.875 C 76.753906 275.871094 74.988281 276.726562 73.699219 278.105469 C 72.394531 279.507812 71.566406 281.4375 71.515625 283.578125 L 71.527344 283.679688 L 71.527344 283.804688 C 71.527344 286.039062 72.359375 288.046875 73.699219 289.488281 C 74.914062 290.789062 76.542969 291.625 78.335938 291.722656 Z M 137.488281 269.660156 L 143.398438 244.636719 C 143.417969 244.519531 143.445312 244.410156 143.480469 244.296875 C 144.40625 240.394531 145.730469 236.839844 147.574219 233.558594 C 149.453125 230.207031 151.859375 227.164062 154.90625 224.355469 C 161.96875 217.863281 167.6875 209.933594 171.597656 201.035156 C 175.355469 192.472656 177.445312 183 177.445312 173.023438 C 177.445312 153.757812 169.636719 136.328125 157.019531 123.714844 C 144.390625 111.097656 126.941406 103.292969 107.667969 103.292969 C 88.40625 103.292969 70.964844 111.09375 58.339844 123.714844 C 45.71875 136.332031 37.910156 153.765625 37.910156 173.023438 C 37.910156 183 40 192.472656 43.757812 201.035156 C 47.664062 209.933594 53.382812 217.863281 60.445312 224.355469 C 63.472656 227.148438 65.914062 230.175781 67.820312 233.527344 C 69.722656 236.871094 71.078125 240.519531 71.929688 244.554688 L 77.230469 269.714844 C 77.710938 269.660156 78.199219 269.632812 78.695312 269.632812 L 136.660156 269.632812 C 136.9375 269.632812 137.214844 269.644531 137.488281 269.660156 Z M 105.597656 68.785156 C 105.597656 67.636719 106.53125 66.707031 107.679688 66.707031 C 108.828125 66.707031 109.761719 67.636719 109.761719 68.785156 L 109.761719 78.519531 C 109.761719 79.667969 108.828125 80.601562 107.679688 80.601562 C 106.53125 80.601562 105.597656 79.667969 105.597656 78.519531 Z M 22.972656 235.808594 C 22.054688 236.492188 20.75 236.304688 20.0625 235.386719 C 19.375 234.464844 19.566406 233.164062 20.484375 232.476562 L 28.289062 226.65625 C 29.210938 225.96875 30.511719 226.160156 31.199219 227.078125 C 31.886719 228 31.695312 229.300781 30.777344 229.988281 Z M 2.378906 182.765625 C 1.234375 182.863281 0.226562 182.015625 0.128906 180.871094 C 0.0273438 179.726562 0.878906 178.71875 2.019531 178.621094 L 11.71875 177.765625 C 12.863281 177.667969 13.875 178.515625 13.972656 179.65625 C 14.070312 180.804688 13.222656 181.8125 12.078125 181.910156 Z M 12.734375 126.808594 C 11.710938 126.296875 11.296875 125.054688 11.808594 124.03125 C 12.320312 123.007812 13.566406 122.59375 14.589844 123.105469 L 23.289062 127.46875 C 24.3125 127.980469 24.726562 129.222656 24.214844 130.246094 C 23.703125 131.269531 22.460938 131.683594 21.433594 131.171875 Z M 50.933594 84.628906 C 50.332031 83.65625 50.632812 82.378906 51.605469 81.777344 C 52.582031 81.175781 53.859375 81.480469 54.460938 82.453125 L 59.574219 90.734375 C 60.175781 91.707031 59.871094 92.984375 58.898438 93.585938 C 57.925781 94.1875 56.648438 93.886719 56.046875 92.910156 Z M 194.867188 232.472656 C 195.789062 233.160156 195.976562 234.464844 195.289062 235.382812 C 194.605469 236.300781 193.300781 236.492188 192.382812 235.804688 L 184.574219 229.988281 C 183.652344 229.300781 183.464844 228 184.152344 227.078125 C 184.835938 226.160156 186.140625 225.96875 187.058594 226.65625 Z M 213.332031 178.621094 C 214.476562 178.71875 215.324219 179.726562 215.226562 180.871094 C 215.128906 182.015625 214.121094 182.863281 212.976562 182.765625 L 203.277344 181.910156 C 202.132812 181.8125 201.285156 180.804688 201.382812 179.65625 C 201.480469 178.515625 202.488281 177.667969 203.632812 177.765625 Z M 200.765625 123.105469 C 201.789062 122.59375 203.035156 123.007812 203.546875 124.03125 C 204.058594 125.054688 203.644531 126.296875 202.617188 126.808594 L 193.917969 131.171875 C 192.894531 131.683594 191.648438 131.269531 191.136719 130.246094 C 190.625 129.222656 191.039062 127.980469 192.0625 127.46875 Z M 160.894531 82.453125 C 161.496094 81.480469 162.773438 81.175781 163.746094 81.777344 C 164.722656 82.378906 165.023438 83.65625 164.421875 84.628906 L 159.308594 92.910156 C 158.707031 93.886719 157.429688 94.1875 156.457031 93.585938 C 155.480469 92.984375 155.179688 91.707031 155.78125 90.734375 Z M 160.894531 82.453125 " fill-opacity="1" fill-rule="nonzero"/></g><g fill="#fafafa" fill-opacity="1"><g transform="translate(241.941125, 226.591475)"><g><path d="M 23.597656 -94.382812 C 13.214844 -94.382812 4.71875 -85.886719 4.71875 -75.507812 L 4.71875 0 L 23.597656 0 L 23.597656 -75.507812 L 42.472656 -75.507812 L 42.472656 0 L 61.347656 0 L 61.347656 -75.507812 L 80.226562 -75.507812 L 80.226562 0 L 99.101562 0 L 99.101562 -75.507812 C 99.101562 -85.886719 90.609375 -94.382812 80.226562 -94.382812 Z M 23.597656 -94.382812 "/></g></g></g><g fill="#fafafa" fill-opacity="1"><g transform="translate(345.76254, 226.591475)"><g><path d="M 99.101562 0 L 99.101562 -18.875 L 61.347656 -18.875 L 61.347656 -75.507812 L 99.101562 -75.507812 L 99.101562 -94.382812 L 4.71875 -94.382812 L 4.71875 -75.507812 L 42.472656 -75.507812 L 42.472656 -18.875 L 4.71875 -18.875 L 4.71875 0 Z M 99.101562 0 "/></g></g></g><g fill="#fafafa" fill-opacity="1"><g transform="translate(449.583955, 226.591475)"><g><path d="M 23.597656 0 L 23.597656 -62.175781 L 82.9375 -2.832031 C 84.707031 -1.0625 87.066406 0 89.664062 0 C 94.855469 0 99.101562 -4.246094 99.101562 -9.4375 L 99.101562 -94.382812 L 80.226562 -94.382812 L 80.226562 -32.207031 L 20.882812 -91.550781 C 19.113281 -93.320312 16.753906 -94.382812 14.15625 -94.382812 C 8.964844 -94.382812 4.71875 -90.136719 4.71875 -84.945312 L 4.71875 0 Z M 23.597656 0 "/></g></g></g><g fill="#fafafa" fill-opacity="1"><g transform="translate(553.40537, 226.591475)"><g><path d="M 80.226562 0 C 90.609375 0 99.101562 -8.496094 99.101562 -18.875 L 99.101562 -75.507812 C 99.101562 -85.886719 90.609375 -94.382812 80.226562 -94.382812 L 4.71875 -94.382812 L 4.71875 0 Z M 23.597656 -75.507812 L 80.226562 -75.507812 L 80.226562 -18.875 L 23.597656 -18.875 Z M 23.597656 -75.507812 "/></g></g></g><g fill="#fafafa" fill-opacity="1"><g transform="translate(657.226784, 226.591475)"><g/></g></g><g fill="#fafafa" fill-opacity="1"><g transform="translate(709.137491, 226.591475)"><g><path d="M 23.597656 -94.382812 C 13.214844 -94.382812 4.71875 -85.886719 4.71875 -75.507812 L 4.71875 0 L 23.597656 0 L 23.597656 -75.507812 L 42.472656 -75.507812 L 42.472656 0 L 61.347656 0 L 61.347656 -75.507812 L 80.226562 -75.507812 L 80.226562 0 L 99.101562 0 L 99.101562 -75.507812 C 99.101562 -85.886719 90.609375 -94.382812 80.226562 -94.382812 Z M 23.597656 -94.382812 "/></g></g></g><g fill="#fafafa" fill-opacity="1"><g transform="translate(812.958906, 226.591475)"><g><path d="M 23.597656 -94.382812 C 13.214844 -94.382812 4.71875 -85.886719 4.71875 -75.507812 L 4.71875 0 L 23.597656 0 L 23.597656 -37.753906 L 80.226562 -37.753906 L 80.226562 0 L 99.101562 0 L 99.101562 -75.507812 C 99.101562 -85.886719 90.609375 -94.382812 80.226562 -94.382812 Z M 23.597656 -75.507812 L 80.226562 -75.507812 L 80.226562 -56.628906 L 23.597656 -56.628906 Z M 23.597656 -75.507812 "/></g></g></g><g fill="#fafafa" fill-opacity="1"><g transform="translate(916.780286, 226.591475)"><g><path d="M 99.101562 -94.382812 L 23.597656 -94.382812 C 13.214844 -94.382812 4.71875 -85.886719 4.71875 -75.507812 L 4.71875 -56.628906 C 4.71875 -46.246094 13.214844 -37.753906 23.597656 -37.753906 L 80.226562 -37.753906 L 80.226562 -18.875 L 4.71875 -18.875 L 4.71875 0 L 80.226562 0 C 90.609375 0 99.101562 -8.496094 99.101562 -18.875 L 99.101562 -37.753906 C 99.101562 -48.136719 90.609375 -56.628906 80.226562 -56.628906 L 23.597656 -56.628906 L 23.597656 -75.507812 L 99.101562 -75.507812 Z M 99.101562 -94.382812 "/></g></g></g><g fill="#fafafa" fill-opacity="1"><g transform="translate(1020.601701, 226.591475)"><g><path d="M 99.101562 -94.382812 L 4.71875 -94.382812 L 4.71875 -75.507812 L 42.472656 -75.507812 L 42.472656 0 L 61.347656 0 L 61.347656 -75.507812 L 99.101562 -75.507812 Z M 99.101562 -94.382812 "/></g></g></g><g fill="#fafafa" fill-opacity="1"><g transform="translate(1124.423116, 226.591475)"><g><path d="M 99.101562 -94.382812 L 23.597656 -94.382812 C 13.214844 -94.382812 4.71875 -85.886719 4.71875 -75.507812 L 4.71875 -18.875 C 4.71875 -8.496094 13.214844 0 23.597656 0 L 99.101562 0 L 99.101562 -18.875 L 23.597656 -18.875 L 23.597656 -37.753906 L 99.101562 -37.753906 L 99.101562 -56.628906 L 23.597656 -56.628906 L 23.597656 -75.507812 L 99.101562 -75.507812 Z M 99.101562 -94.382812 "/></g></g></g><g fill="#fafafa" fill-opacity="1"><g transform="translate(1228.24453, 226.591475)"><g><path d="M 99.101562 -75.507812 C 99.101562 -85.886719 90.609375 -94.382812 80.226562 -94.382812 L 4.71875 -94.382812 L 4.71875 0 L 23.597656 0 L 23.597656 -37.753906 L 34.6875 -37.753906 L 69.609375 -2.832031 C 71.496094 -0.945312 73.855469 0 76.449219 0 L 99.101562 0 L 99.101562 -18.875 L 80.226562 -18.875 L 61.347656 -37.753906 L 80.226562 -37.753906 C 90.609375 -37.753906 99.101562 -46.246094 99.101562 -56.628906 Z M 80.226562 -75.507812 L 80.226562 -56.628906 L 23.597656 -56.628906 L 23.597656 -75.507812 Z M 80.226562 -75.507812 "/></g></g></g><g fill="#fafafa" fill-opacity="1"><g transform="translate(1332.065945, 226.591475)"><g><path d="M 99.101562 -94.382812 L 23.597656 -94.382812 C 13.214844 -94.382812 4.71875 -85.886719 4.71875 -75.507812 L 4.71875 -56.628906 C 4.71875 -46.246094 13.214844 -37.753906 23.597656 -37.753906 L 80.226562 -37.753906 L 80.226562 -18.875 L 4.71875 -18.875 L 4.71875 0 L 80.226562 0 C 90.609375 0 99.101562 -8.496094 99.101562 -18.875 L 99.101562 -37.753906 C 99.101562 -48.136719 90.609375 -56.628906 80.226562 -56.628906 L 23.597656 -56.628906 L 23.597656 -75.507812 L 99.101562 -75.507812 Z M 99.101562 -94.382812 "/></g></g></g><g fill="#fafafa" fill-opacity="1"><g transform="translate(243.647929, 305.560371)"><g><path d="M 66.167969 -11.675781 C 66.167969 -10.351562 65.667969 -9.191406 64.675781 -8.199219 C 63.683594 -7.203125 62.523438 -6.707031 61.117188 -6.707031 L 17.390625 -6.707031 C 16.480469 -6.875 15.570312 -7.371094 14.824219 -8.117188 C 13.828125 -9.109375 13.332031 -10.269531 13.332031 -11.675781 L 13.332031 -28.488281 C 13.332031 -29.894531 13.828125 -31.054688 14.824219 -32.046875 C 15.816406 -33.042969 16.976562 -33.539062 18.382812 -33.539062 L 61.117188 -33.539062 C 62.523438 -33.539062 63.683594 -33.042969 64.675781 -32.046875 C 65.667969 -31.054688 66.167969 -29.894531 66.167969 -28.488281 L 72.875 -28.488281 C 72.875 -31.71875 71.714844 -34.449219 69.394531 -36.769531 C 67.078125 -39.085938 64.425781 -40.164062 61.117188 -40.164062 L 18.300781 -40.164062 C 14.988281 -40.164062 12.339844 -39.085938 10.101562 -36.769531 C 7.785156 -34.367188 6.625 -31.800781 6.625 -28.652344 L 6.625 -11.675781 C 6.625 -8.445312 7.785156 -5.714844 10.101562 -3.394531 C 12.339844 -1.078125 15.070312 0 18.382812 0 L 61.199219 0 C 64.511719 0 67.160156 -1.078125 69.394531 -3.394531 C 71.714844 -5.796875 72.875 -8.445312 72.875 -11.675781 Z M 66.167969 -11.675781 "/></g></g></g><g fill="#fafafa" fill-opacity="1"><g transform="translate(323.142291, 305.560371)"><g><path d="M 66.25 -40.164062 L 66.167969 -28.488281 L 66.167969 -23.4375 L 13.332031 -23.4375 L 13.332031 -28.488281 L 13.25 -40.164062 L 6.625 -40.164062 L 6.625 0 L 13.332031 0 L 13.332031 -16.726562 L 66.167969 -16.726562 L 66.167969 0 L 72.875 0 L 72.875 -40.164062 Z M 66.25 -40.164062 "/></g></g></g><g fill="#fafafa" fill-opacity="1"><g transform="translate(402.636652, 305.560371)"><g><path d="M 69.394531 -36.769531 C 67.160156 -39.085938 64.511719 -40.164062 61.199219 -40.164062 L 18.382812 -40.164062 C 15.070312 -40.164062 12.339844 -39.085938 10.101562 -36.769531 C 7.785156 -34.367188 6.625 -31.71875 6.625 -28.488281 L 6.625 0 L 13.332031 0 L 13.332031 -16.726562 L 66.167969 -16.726562 L 66.167969 0 L 72.875 0 L 72.875 -28.488281 C 72.875 -31.71875 71.714844 -34.367188 69.394531 -36.769531 Z M 66.167969 -23.4375 L 13.332031 -23.4375 L 13.332031 -28.488281 C 13.332031 -29.894531 13.828125 -31.054688 14.824219 -32.046875 C 15.570312 -32.792969 16.480469 -33.289062 17.390625 -33.457031 L 61.117188 -33.457031 C 62.523438 -33.457031 63.683594 -32.960938 64.675781 -31.964844 C 65.667969 -30.972656 66.167969 -29.8125 66.167969 -28.488281 Z M 66.167969 -23.4375 "/></g></g></g><g fill="#fafafa" fill-opacity="1"><g transform="translate(482.131013, 305.560371)"><g><path d="M 26.664062 -6.707031 C 22.9375 -6.707031 19.792969 -8.03125 17.226562 -10.601562 C 14.574219 -13.25 13.332031 -16.398438 13.332031 -20.039062 L 13.332031 -40.164062 L 6.625 -40.164062 L 6.625 -20.039062 C 6.625 -14.574219 8.613281 -9.855469 12.503906 -5.878906 C 16.398438 -1.988281 21.117188 0 26.664062 0 L 72.875 0 L 72.875 -6.707031 Z M 26.664062 -6.707031 "/></g></g></g><g fill="#fafafa" fill-opacity="1"><g transform="translate(561.625374, 305.560371)"><g><path d="M 26.664062 -6.707031 C 22.9375 -6.707031 19.792969 -8.03125 17.226562 -10.601562 C 14.574219 -13.25 13.332031 -16.398438 13.332031 -20.039062 L 13.332031 -40.164062 L 6.625 -40.164062 L 6.625 -20.039062 C 6.625 -14.574219 8.613281 -9.855469 12.503906 -5.878906 C 16.398438 -1.988281 21.117188 0 26.664062 0 L 72.875 0 L 72.875 -6.707031 Z M 26.664062 -6.707031 "/></g></g></g><g fill="#fafafa" fill-opacity="1"><g transform="translate(641.119736, 305.560371)"><g><path d="M 14.824219 -32.046875 C 15.570312 -32.792969 16.480469 -33.289062 17.390625 -33.457031 L 72.875 -33.457031 L 72.875 -40.164062 L 18.382812 -40.164062 C 15.070312 -40.164062 12.339844 -39.085938 10.101562 -36.769531 C 7.785156 -34.367188 6.625 -31.71875 6.625 -28.488281 L 6.625 -11.675781 C 6.625 -8.445312 7.785156 -5.796875 10.101562 -3.394531 C 12.339844 -1.078125 15.070312 0 18.382812 0 L 72.875 0 L 72.875 -6.707031 L 17.390625 -6.707031 C 16.480469 -6.875 15.570312 -7.371094 14.824219 -8.117188 C 13.828125 -9.109375 13.332031 -10.269531 13.332031 -11.675781 L 13.332031 -16.726562 L 65.835938 -16.726562 L 65.835938 -23.4375 L 13.332031 -23.4375 L 13.332031 -28.488281 C 13.332031 -29.894531 13.828125 -31.054688 14.824219 -32.046875 Z M 14.824219 -32.046875 "/></g></g></g><g fill="#fafafa" fill-opacity="1"><g transform="translate(720.614097, 305.560371)"><g><path d="M 66.167969 0 L 72.875 0 L 72.875 -28.570312 C 72.875 -31.800781 71.714844 -34.449219 69.394531 -36.851562 C 67.160156 -39.171875 64.511719 -40.246094 61.199219 -40.246094 L 18.382812 -40.246094 C 15.070312 -40.246094 12.339844 -39.171875 10.101562 -36.851562 C 7.785156 -34.449219 6.625 -31.800781 6.625 -28.570312 L 6.625 0 L 13.332031 0 L 13.332031 -28.570312 C 13.332031 -29.976562 13.828125 -31.136719 14.824219 -32.132812 C 15.570312 -32.875 16.480469 -33.375 17.390625 -33.539062 L 61.117188 -33.539062 C 62.523438 -33.539062 63.683594 -33.042969 64.675781 -32.046875 C 65.667969 -31.054688 66.167969 -29.894531 66.167969 -28.570312 Z M 66.167969 0 "/></g></g></g><g fill="#fafafa" fill-opacity="1"><g transform="translate(800.108458, 305.560371)"><g><path d="M 72.875 -23.4375 L 26.664062 -23.4375 L 26.664062 -16.726562 L 66.167969 -16.726562 L 66.167969 -11.675781 C 66.167969 -10.351562 65.667969 -9.191406 64.675781 -8.199219 C 63.683594 -7.203125 62.523438 -6.707031 61.117188 -6.707031 L 17.390625 -6.707031 C 16.480469 -6.875 15.570312 -7.371094 14.824219 -8.117188 C 13.828125 -9.109375 13.332031 -10.269531 13.332031 -11.675781 L 13.332031 -28.488281 C 13.332031 -29.894531 13.828125 -31.054688 14.824219 -32.046875 C 15.816406 -33.042969 16.976562 -33.539062 18.382812 -33.539062 L 61.117188 -33.539062 C 62.523438 -33.539062 63.683594 -33.042969 64.675781 -32.046875 C 65.667969 -31.054688 66.167969 -29.894531 66.167969 -28.488281 L 72.875 -28.488281 C 72.875 -31.71875 71.714844 -34.449219 69.394531 -36.769531 C 67.078125 -39.085938 64.425781 -40.164062 61.117188 -40.164062 L 18.300781 -40.164062 C 14.988281 -40.164062 12.339844 -39.085938 10.101562 -36.769531 C 7.785156 -34.367188 6.625 -31.800781 6.625 -28.652344 L 6.625 -11.675781 C 6.625 -8.445312 7.785156 -5.714844 10.101562 -3.394531 C 12.339844 -1.078125 15.070312 0 18.382812 0 L 61.199219 0 C 64.511719 0 67.160156 -1.078125 69.394531 -3.394531 C 71.714844 -5.796875 72.875 -8.445312 72.875 -11.675781 Z M 72.875 -23.4375 "/></g></g></g><g fill="#fafafa" fill-opacity="1"><g transform="translate(879.602819, 305.560371)"><g><path d="M 14.824219 -32.046875 C 15.570312 -32.792969 16.480469 -33.289062 17.390625 -33.457031 L 72.875 -33.457031 L 72.875 -40.164062 L 18.382812 -40.164062 C 15.070312 -40.164062 12.339844 -39.085938 10.101562 -36.769531 C 7.785156 -34.367188 6.625 -31.71875 6.625 -28.488281 L 6.625 -11.675781 C 6.625 -8.445312 7.785156 -5.796875 10.101562 -3.394531 C 12.339844 -1.078125 15.070312 0 18.382812 0 L 72.875 0 L 72.875 -6.707031 L 17.390625 -6.707031 C 16.480469 -6.875 15.570312 -7.371094 14.824219 -8.117188 C 13.828125 -9.109375 13.332031 -10.269531 13.332031 -11.675781 L 13.332031 -16.726562 L 65.835938 -16.726562 L 65.835938 -23.4375 L 13.332031 -23.4375 L 13.332031 -28.488281 C 13.332031 -29.894531 13.828125 -31.054688 14.824219 -32.046875 Z M 14.824219 -32.046875 "/></g></g></g></svg>