<svg width="198" height="198" viewBox="0 0 246 246" fill="none" xmlns="http://www.w3.org/2000/svg">
<path d="M123 242.438C188.964 242.438 242.438 188.964 242.438 123C242.438 57.0365 188.964 3.5625 123 3.5625C57.0365 3.5625 3.5625 57.0365 3.5625 123C3.5625 188.964 57.0365 242.438 123 242.438Z" stroke="#6247AA" stroke-width="6" stroke-linecap="round" stroke-linejoin="round"/>
<path d="M87.0767 168.08C90.4156 172.294 94.7171 175.645 99.6199 177.851C104.523 180.057 109.884 181.055 115.252 180.759H132.157C139.629 180.759 146.796 177.79 152.079 172.506C157.363 167.223 160.332 160.056 160.332 152.584C160.332 145.111 157.363 137.945 152.079 132.661C146.796 127.377 139.629 124.409 132.157 124.409H113.843C106.37 124.409 99.2041 121.44 93.9202 116.156C88.6364 110.873 85.668 103.706 85.668 96.2337C85.668 88.7613 88.6364 81.5948 93.9202 76.311C99.2041 71.0272 106.37 68.0587 113.843 68.0587H130.748C143.427 68.0587 151.879 70.8763 158.923 80.7375M122.295 52.5625V193.438" stroke="#6247AA" stroke-width="6" stroke-linecap="round" stroke-linejoin="round"/>
</svg>
