<svg width="551" height="552" viewBox="0 0 551 552" fill="none" xmlns="http://www.w3.org/2000/svg">
<g clip-path="url(#clip0_12_897)">
<mask id="mask0_12_897" style="mask-type:luminance" maskUnits="userSpaceOnUse" x="0" y="0" width="551" height="552">
<path d="M551 0.5H0V551.5H551V0.5Z" fill="white"/>
</mask>
<g mask="url(#mask0_12_897)">
<mask id="mask1_12_897" style="mask-type:luminance" maskUnits="userSpaceOnUse" x="-83" y="-99" width="717" height="717">
<path d="M-82.65 -98.476H633.65V617.824H-82.65V-98.476Z" fill="white"/>
</mask>
<g mask="url(#mask1_12_897)">
<mask id="mask2_12_897" style="mask-type:luminance" maskUnits="userSpaceOnUse" x="24" y="-242" width="503" height="1004">
<path d="M24.795 -241.736H526.205V761.084H24.795V-241.736Z" fill="white"/>
</mask>
<g mask="url(#mask2_12_897)">
<mask id="mask3_12_897" style="mask-type:luminance" maskUnits="userSpaceOnUse" x="24" y="8" width="503" height="503">
<path d="M24.795 8.96899H526.205V510.379H24.795V8.96899Z" fill="white"/>
</mask>
<g mask="url(#mask3_12_897)">
<g opacity="0.5">
<path d="M465.479 357.584C465.479 357.584 438.881 383.902 446.207 414.838C453.534 445.773 484.165 476.199 373.448 483.526C262.73 490.853 75.3702 499.297 87.2918 472.23C99.2544 445.494 73.8092 437.531 70.5529 418.807C67.2965 400.083 137.715 357.647 137.715 357.647L465.479 357.584Z" fill="#FF96C9"/>
</g>
<g opacity="0.5">
<path d="M465.479 357.584C466.985 337.613 465.801 306.871 459.299 287.483C448.629 255.663 436.246 234.917 440.349 201.878C442.747 182.573 445.583 162.032 444.393 142.637C442.164 106.327 397.703 74.1051 358.896 76.6168C307.012 81.4613 255.52 81.297 217.86 108.149C180.2 135.001 162.944 151.83 144.513 191.835C139.635 202.423 132.959 227.271 137.62 237.938C144.271 253.157 162.382 259.527 171.272 273.783C180.151 288.02 170.023 303.066 159.223 316.176C148.424 329.285 139.093 336.405 137.715 357.646L465.479 357.584Z" fill="#FF96C9"/>
</g>
<path d="M362.968 100.058H458.236V205.355H416.452" stroke="#3A3432" stroke-width="0.71253"/>
<path d="M474.207 357.17H113.006" stroke="#3A3432" stroke-width="0.7917"/>
<mask id="mask4_12_897" style="mask-type:luminance" maskUnits="userSpaceOnUse" x="24" y="8" width="503" height="503">
<path d="M24.795 8.96899H526.205V510.379H24.795V8.96899Z" fill="white"/>
</mask>
<g mask="url(#mask4_12_897)">
<path d="M280.183 433.357L285.997 346.792L300.535 348.691L283.09 433.357H280.183Z" fill="#704AD9"/>
<path d="M377.875 348.691L386.478 439.055H391.539L396.599 338.922L377.875 348.691Z" fill="#704AD9"/>
<path d="M268.458 354.686C268.458 354.686 348.39 365.063 399.041 348.691C427.206 339.588 454.399 287.634 429.976 250.186C405.554 212.737 327.35 234.367 306.234 264.026C290.82 285.674 195.646 343.707 268.458 354.686Z" fill="#74D9B8"/>
<path d="M339.569 281.959C353.405 281.959 364.64 293.193 364.64 307.029C364.64 320.866 353.405 332.1 339.569 332.1C325.733 332.1 314.499 320.866 314.499 307.029C314.499 293.193 325.733 281.959 339.569 281.959Z" fill="#74D9B8"/>
</g>
<mask id="mask5_12_897" style="mask-type:luminance" maskUnits="userSpaceOnUse" x="24" y="8" width="503" height="503">
<path d="M24.795 8.96899H526.205V510.379H24.795V8.96899Z" fill="white"/>
</mask>
<g mask="url(#mask5_12_897)">
<path d="M83.985 387.337C83.985 381.848 98.8161 377.399 117.112 377.399C135.407 377.399 150.239 381.848 150.239 387.337C150.239 392.825 135.407 397.275 117.112 397.275C98.8161 397.275 83.985 392.825 83.985 387.337Z" fill="#704AD9"/>
<path d="M230.995 121.321C230.995 121.321 221.322 95.3992 200.817 95.3992C104.869 95.0123 90.9407 389.822 90.9407 389.822" stroke="#3A3432" stroke-width="0.659747"/>
<path d="M222.055 152.336C213.5 144.292 213.085 130.835 221.13 122.28C229.174 113.725 242.631 113.311 251.186 121.355C256.041 125.92 258.274 132.227 257.828 138.393L222.055 152.336Z" fill="#704AD9"/>
</g>
<path d="M78.2871 411.314C78.2871 394.224 78.2871 329.967 78.2871 329.967H202.03V415.447H78.2871C78.2871 415.447 78.2871 413.936 78.2871 411.314Z" stroke="#74D9B8" stroke-width="15.9568" stroke-miterlimit="10"/>
</g>
<mask id="mask6_12_897" style="mask-type:luminance" maskUnits="userSpaceOnUse" x="24" y="8" width="503" height="503">
<path d="M24.795 8.96899H526.205V510.379H24.795V8.96899Z" fill="white"/>
</mask>
<g mask="url(#mask6_12_897)">
<mask id="mask7_12_897" style="mask-type:luminance" maskUnits="userSpaceOnUse" x="24" y="8" width="503" height="503">
<path d="M24.795 8.96899H526.205V510.379H24.795V8.96899Z" fill="white"/>
</mask>
<g mask="url(#mask7_12_897)">
<path d="M167.885 291.762C167.188 292.458 153.256 308.48 153.256 308.48L165.097 317.536L176.94 314.751L187.39 296.639L167.885 291.762Z" fill="white"/>
<path d="M120.167 322.932C120.167 322.932 120.167 316.403 134.534 316.403C144.983 310.526 155.433 304.648 155.433 304.648L182.862 306.609L182.861 322.936L120.167 322.932Z" fill="#F38282"/>
<path d="M120.166 325.545L182.86 325.548L182.861 322.936L120.167 322.933L120.166 325.545Z" fill="white"/>
<path d="M137.037 313.052L140.243 315.827" stroke="white" stroke-width="1.49604" stroke-miterlimit="10"/>
<path d="M144.669 308.473L147.876 311.249" stroke="white" stroke-width="1.49604" stroke-miterlimit="10"/>
<path d="M258.864 247.393L258.849 247.201C260.397 245.316 261.594 243.092 262.304 240.597C265.078 230.858 259.432 220.715 249.693 217.942C242.898 216.007 235.91 218.174 231.362 222.966L231.207 222.961L164.954 293.925L183.631 310.75L254.604 250.98C255.914 250.136 257.119 249.125 258.184 247.966L258.864 247.393Z" fill="#682FCF"/>
<path d="M249.693 217.942C242.899 216.007 235.91 218.174 231.362 222.967L231.207 222.961" stroke="white" stroke-width="0.94549" stroke-miterlimit="10"/>
<path d="M277.84 321.557L310.936 300.035L261.566 227.123C261.334 226.755 261.092 226.394 260.836 226.045L260.652 225.773L260.625 225.77C256.937 220.94 250.964 218.047 244.503 218.62C234.44 219.511 227.011 228.462 227.91 238.614C228.095 240.71 228.626 242.692 229.433 244.511L229.37 244.737L230.24 246.114C230.532 246.632 230.848 247.132 231.187 247.616L277.84 321.557Z" fill="#682FCF"/>
<path d="M172.377 405.27C171.68 405.967 157.748 421.989 157.748 421.989L169.59 431.045L181.432 428.259L191.882 410.147L172.377 405.27Z" fill="white"/>
<path d="M124.66 436.443C124.66 436.443 124.66 429.913 139.027 429.913C149.476 424.035 159.925 418.157 159.925 418.157L187.354 420.117L187.354 436.443L124.66 436.443Z" fill="#F38282"/>
<path d="M124.66 439.055L187.354 439.056L187.354 436.444L124.66 436.443L124.66 439.055Z" fill="white"/>
<path d="M141.529 426.562L144.736 429.337" stroke="white" stroke-width="1.49604" stroke-miterlimit="10"/>
<path d="M149.162 421.982L152.368 424.758" stroke="white" stroke-width="1.49604" stroke-miterlimit="10"/>
<path d="M253.178 342.96L253.132 342.774C254.349 340.66 255.165 338.27 255.457 335.692C256.597 325.63 249.364 316.551 239.302 315.412C232.283 314.616 225.744 317.899 222.043 323.373L221.889 323.394L168.166 404.258L189.349 417.793L249.563 347.198C250.718 346.15 251.74 344.954 252.601 343.636L253.178 342.96Z" fill="#704AD9"/>
<path d="M222.043 323.372L221.889 323.393L168.166 404.258" stroke="white" stroke-width="0.94549" stroke-miterlimit="10"/>
<path d="M329.843 342.993L331.676 298.132L240.157 309.999C239.703 310.043 239.251 310.099 238.803 310.174L238.463 310.218L238.446 310.242C232.185 311.422 226.639 315.669 224.09 322.02C220.12 331.912 224.921 343.149 234.813 347.119C236.856 347.939 238.956 348.379 241.038 348.483L241.216 348.65L242.916 348.485C243.538 348.456 244.156 348.395 244.767 348.306L329.843 342.993Z" fill="#704AD9"/>
<path d="M331.677 298.132L240.157 309.999" stroke="white" stroke-width="0.94549" stroke-miterlimit="10"/>
<path d="M360.261 312.26C360.261 295.073 346.328 281.14 329.14 281.14C311.953 281.14 298.02 295.072 298.02 312.26C298.02 329.447 312.655 342.993 329.842 342.993C347.03 342.993 360.26 329.447 360.261 312.26Z" fill="#704AD9"/>
</g>
<path d="M318.436 173.168C318.436 173.168 318.101 169.274 310.678 166.287C306.725 164.696 305.508 161.436 305.235 158.736C304.993 156.345 306.617 154.162 308.956 153.615L317.991 151.501C321.667 150.641 325.314 153.037 325.979 156.754C326.826 161.48 327.688 167.194 327.235 168.753C326.426 171.536 323.426 172.55 323.426 172.55L318.436 173.168Z" fill="#FF5E69"/>
<path d="M318.436 173.168C318.436 173.168 318.101 169.274 310.678 166.287" stroke="#704AD9" stroke-width="0.33397" stroke-miterlimit="10"/>
<path d="M388.146 242.268L322.97 241.036C319.354 240.964 315.971 239.158 313.785 236.133C310.456 231.529 310.585 225.115 314.095 220.648C316.401 217.713 319.854 216.044 323.469 216.117L388.645 217.349C395.187 217.48 400.377 223.165 400.239 230.046C400.101 236.927 394.687 242.399 388.146 242.268Z" fill="#FB8163"/>
<path d="M310.592 229.777L306.619 171.605C306.554 170.649 307.317 169.818 308.323 169.749L329.545 168.3C330.551 168.231 331.42 168.95 331.486 169.907L335.458 228.079C335.639 230.723 334.882 233.353 333.309 235.551C328.743 241.928 319.128 242.585 313.738 236.887C311.88 234.924 310.773 232.42 310.592 229.777Z" fill="#FB8163"/>
<path d="M332.965 155.994C329.666 159.147 330.52 162.25 330.348 163.215C329.823 166.167 333.611 167.312 330.722 179.329C329.974 182.441 336.609 183.613 336.609 183.613C336.609 183.613 339.344 172.066 341.177 178.383C342.211 181.945 346.742 162.129 344.681 146.352C343.917 140.501 342.054 141.401 338.045 142.069C338.654 150.547 335.931 151.844 333.809 153.215C332.639 153.972 333.898 152.096 333.233 153.32L332.965 155.994Z" fill="#FF5E69"/>
<path d="M344.188 167.202C344.188 167.202 345.275 158.529 345.238 155.434" stroke="#704AD9" stroke-width="0.33397" stroke-miterlimit="10"/>
<path d="M412.171 213.642C410.529 211.004 400.498 203.257 400.498 203.257C398.026 201.6 364.121 195.258 351.093 213.11C340.342 227.843 336.843 258.387 313.472 282.537C310.79 285.308 308.664 285.548 305.42 287.634C295.015 294.324 300.462 311.211 307.048 317.755C312.04 322.716 336.655 337.063 349.124 339.001C350.834 339.267 352.548 338.585 353.648 337.25C365.421 322.955 436.273 234.863 412.19 213.71C412.172 213.694 412.184 213.663 412.171 213.642Z" fill="#FF9052"/>
<path d="M333.454 160.572L311.281 159.939C308.144 160.243 305.078 155.951 305.87 152.368L308.805 139.095C309.161 137.487 310.253 136.455 311.675 136.38L332.762 135.572C335.618 135.422 338.428 139.028 338.14 142.47L336.291 157.184C336.132 159.094 335.021 160.42 333.454 160.572Z" fill="#445CC2"/>
<path d="M330.436 135.661C330.436 135.661 334.477 134.977 335.904 136.881" stroke="white" stroke-width="0.47047" stroke-miterlimit="10"/>
<path d="M318.255 160.138L325.03 160.331" stroke="white" stroke-width="0.47047" stroke-miterlimit="10"/>
<path d="M308.367 161.728C308.367 161.728 305.229 161.082 304.837 157.798C304.444 154.513 307.111 141.818 307.111 141.818C307.111 141.818 307.07 139.008 310.275 139.008C313.479 139.009 312.37 148.497 310.635 151.259C308.899 154.022 307.875 158.566 309.168 159.857C310.46 161.148 308.367 161.728 308.367 161.728Z" fill="#FF5E69"/>
<path d="M313.907 157.755L307.475 157.691C306.217 157.678 305.207 156.647 305.219 155.389C305.232 154.13 306.262 153.12 307.52 153.133L313.952 153.198C315.211 153.21 316.222 154.241 316.209 155.499C316.196 156.758 315.166 157.768 313.907 157.755Z" fill="#FF5E69"/>
<path d="M315.574 153.214L309.252 153.15C307.963 153.138 306.929 152.083 306.942 150.794L306.943 150.684C306.956 149.395 308.01 148.361 309.299 148.374L315.622 148.437C316.911 148.45 317.945 149.506 317.932 150.794L317.931 150.904C317.918 152.192 316.863 153.227 315.574 153.214Z" fill="#FF5E69"/>
<path d="M306.235 153.12L314.96 153.208" stroke="#704AD9" stroke-width="0.33397" stroke-miterlimit="10"/>
<path d="M317.127 148.432L310.775 148.368C309.495 148.356 308.467 147.307 308.479 146.027L308.481 145.947C308.494 144.667 309.542 143.64 310.822 143.652L317.175 143.716C318.455 143.729 319.482 144.778 319.47 146.058L319.469 146.137C319.456 147.417 318.408 148.445 317.127 148.432Z" fill="#FF5E69"/>
<path d="M308.742 148.348L316.807 148.429" stroke="#704AD9" stroke-width="0.33397" stroke-miterlimit="10"/>
<path d="M316.284 143.626L309.851 143.561C308.593 143.548 307.583 142.518 307.596 141.26C307.608 140.001 308.639 138.991 309.897 139.004L316.329 139.068C317.588 139.081 318.598 140.111 318.585 141.37C318.573 142.628 317.542 143.638 316.284 143.626Z" fill="#FF5E69"/>
<path d="M310.362 138.965L316.01 139.065" stroke="#704AD9" stroke-width="0.33397" stroke-miterlimit="10"/>
<path d="M308.08 143.543C308.22 143.545 316.135 143.624 316.135 143.624" stroke="#704AD9" stroke-width="0.33397" stroke-miterlimit="10"/>
<path d="M340.261 153.527L332.435 151.713C331.619 151.524 330.806 152.032 330.616 152.847L330.608 152.883C330.419 153.699 330.927 154.512 331.742 154.701L339.569 156.515C339.854 156.582 340.138 156.404 340.204 156.119L340.658 154.162C340.724 153.877 340.546 153.593 340.261 153.527Z" fill="#FF5E69"/>
<path d="M340.509 149.882L331.106 147.703C330.127 147.476 329.149 148.086 328.922 149.066L328.912 149.109C328.685 150.088 329.295 151.066 330.274 151.293L339.677 153.472C340.019 153.551 340.361 153.338 340.44 152.996L340.984 150.645C341.064 150.303 340.85 149.961 340.509 149.882Z" fill="#FF5E69"/>
<path d="M339.701 149.723L330.487 147.56" stroke="#704AD9" stroke-width="0.33397" stroke-miterlimit="10"/>
<path d="M339.589 153.395L331.919 151.594" stroke="#704AD9" stroke-width="0.33397" stroke-miterlimit="10"/>
<path d="M340.145 145.913L330.785 143.744C329.794 143.515 328.805 144.132 328.575 145.123C328.345 146.114 328.962 147.104 329.953 147.334L339.312 149.502C339.666 149.584 340.02 149.364 340.102 149.01L340.637 146.703C340.719 146.348 340.499 145.994 340.145 145.913Z" fill="#FF5E69"/>
<path d="M339.838 145.853L330.145 143.595" stroke="#704AD9" stroke-width="0.33397" stroke-miterlimit="10"/>
<path d="M340.69 142.103L334.28 140.617C333.288 140.387 332.299 141.005 332.069 141.996C331.839 142.988 332.456 143.977 333.448 144.207L343.448 146.524C343.907 144.542 342.673 142.562 340.69 142.103Z" fill="#FF5E69"/>
<path d="M340.063 141.839L333.638 140.469" stroke="#704AD9" stroke-width="0.33397" stroke-miterlimit="10"/>
<path d="M326.849 224.815L324.023 166.576C323.977 165.618 324.756 164.803 325.763 164.754L347.01 163.723C348.017 163.674 348.872 164.41 348.918 165.368L351.744 223.608C351.872 226.254 351.064 228.869 349.448 231.036C344.757 237.321 335.131 237.789 329.854 231.986C328.035 229.986 326.978 227.461 326.849 224.815Z" fill="#FF9052"/>
<path d="M403.824 243.411L337.679 235.824" stroke="#704AD9" stroke-width="0.4732" stroke-miterlimit="10"/>
<path d="M401.919 243.192C399.843 242.937 335.929 246.221 335.929 246.221L340.175 236.064L401.919 243.192Z" fill="#682FCF"/>
<path d="M403.824 243.41L337.679 235.823C334.086 235.411 330.888 233.295 328.995 230.078C326.115 225.182 326.846 218.808 330.76 214.692C333.333 211.986 336.927 210.65 340.519 211.062L406.664 218.649C413.164 219.395 417.797 225.542 417.013 232.38C416.229 239.218 410.324 244.156 403.824 243.41Z" fill="#FF9052"/>
<path d="M352.74 212.522L400.465 217.938" stroke="#704AD9" stroke-width="0.4732" stroke-miterlimit="10"/>
<mask id="mask8_12_897" style="mask-type:luminance" maskUnits="userSpaceOnUse" x="24" y="8" width="503" height="503">
<path d="M24.795 8.96851H526.205V510.378H24.795V8.96851Z" fill="white"/>
</mask>
<g mask="url(#mask8_12_897)">
<path d="M384.401 183.352L375.843 207.852L401.484 207.671L406.804 181.132L384.401 183.352Z" fill="#FF5E69"/>
<path d="M405.664 182.564L384.533 183.418C384.533 183.418 379.844 197.009 379.31 197.947C400.504 198.97 405.664 182.564 405.664 182.564Z" fill="#704AD9"/>
<path d="M375.71 172.807C375.71 172.807 372.968 170.156 371.939 166.648C370.91 163.143 372.484 159.589 372.484 159.589C372.484 159.589 369.529 154.922 371.647 150.719C378.557 136.999 395.561 147.229 395.561 147.229L375.71 172.807Z" fill="#682FCF"/>
<path d="M379.747 159.313C371.262 173.954 376.997 189.206 378.088 192.201C380.469 198.739 402.347 190.553 407.202 181.188C412.056 171.822 409.837 161.04 402.245 157.104C394.653 153.168 385.037 150.186 379.747 159.313Z" fill="#FF5E69"/>
<path d="M378.088 192.2C380.47 198.739 402.347 190.553 407.202 181.188" stroke="#704AD9" stroke-width="0.33397" stroke-miterlimit="10"/>
<path d="M379.401 183.91C380.602 184.267 381.929 184.508 383.184 184.445C384.45 184.373 386.016 183.709 386.179 182.349C386.19 182.258 386.038 182.242 386.034 182.336C386.009 182.963 385.352 183.594 384.815 183.889C384.155 184.251 383.314 184.335 382.583 184.313C381.541 184.282 380.449 184.071 379.451 183.774C379.363 183.748 379.312 183.884 379.401 183.91Z" fill="#704AD9"/>
<path d="M407.446 179.761C407.875 180.237 408.647 180.144 408.947 179.577C414.368 169.353 425.142 148.779 410.57 148.992C395.422 149.213 402.718 140.578 392.767 145.272C382.816 149.966 377.985 146.208 377.2 149.387C376.415 152.565 368.336 162.318 377.03 158.825C385.722 155.333 386.337 161.594 394.722 159.135C403.107 156.677 393.239 170.175 397.375 171.405C401.242 172.556 406.477 164.475 405.566 174.897C405.425 176.518 405.973 178.126 407.062 179.335L407.446 179.761Z" fill="#682FCF"/>
<path d="M395.952 154.999C395.952 154.999 403.192 148.824 404.84 155.392C406.488 161.96 409.673 163.358 411.239 161.122" stroke="#704AD9" stroke-width="0.33397" stroke-miterlimit="10"/>
<path d="M374.092 153.395C374.092 153.395 372.491 147.622 380.737 147.607C388.983 147.591 391.499 149.764 393.713 147.834" stroke="#704AD9" stroke-width="0.40677" stroke-miterlimit="10"/>
<path d="M380.735 157.812C380.735 157.812 377.896 158.183 375.296 160.111" stroke="#704AD9" stroke-width="0.40677" stroke-miterlimit="10"/>
</g>
</g>
</g>
</g>
</g>
</g>
<defs>
<clipPath id="clip0_12_897">
<rect width="551" height="551" fill="white" transform="translate(0 0.5)"/>
</clipPath>
</defs>
</svg>
