<svg width="672" height="493" viewBox="0 0 672 493" fill="none" xmlns="http://www.w3.org/2000/svg">
<g clip-path="url(#clip0_6_30)">
<mask id="mask0_6_30" style="mask-type:luminance" maskUnits="userSpaceOnUse" x="0" y="0" width="672" height="493">
<path d="M672 0H0V493H672V0Z" fill="white"/>
</mask>
<g mask="url(#mask0_6_30)">
<g opacity="0.42">
<path d="M321.261 395.563C343.342 398.95 365.691 399.669 387.828 397.151C455.735 389.426 509.201 349.828 545.974 294.031C561.605 270.314 573.955 242.863 572.454 214.14C570.045 168.049 525.226 138.177 483.359 131.667C442.275 125.28 401.069 136.72 361.678 148.897C342.061 154.96 320.448 161.162 301.334 152.919C282.764 144.911 271.988 125.625 261.211 108.375C240.346 74.9764 215.683 35.164 175.299 24.9727C148.212 18.137 118.387 24.6381 96.9788 42.0435C78.3623 57.1794 66.4724 79.7017 61.5523 103.424C56.6323 127.146 58.3222 152.032 63.6207 175.883C81.4717 256.243 144.028 320.423 214.645 358.666C247.922 376.687 284.216 389.88 321.261 395.563Z" fill="#E8C6CC"/>
</g>
<path d="M175.363 383.172C174.699 382.359 174.22 381.416 174.045 380.382C173.593 377.712 175.318 375.012 177.673 373.673C179.305 372.746 181.237 372.353 183.102 372.572C185.544 372.858 187.78 374.155 189.594 375.813C190.71 376.834 191.72 378.045 192.145 379.496C192.853 381.915 191.4 384.02 189.462 385.339C185.87 387.784 181.488 387.242 177.829 385.203C176.9 384.686 176.036 383.995 175.363 383.172Z" fill="#FF508A"/>
<path d="M264.411 376.172C259.308 384.997 249.076 390.46 238.881 390.261C228.687 390.061 218.862 384.406 213.162 375.953C211.298 373.189 209.822 370.057 209.617 366.73C209.412 363.403 210.657 359.865 213.355 357.907C216.59 355.559 221.077 355.927 224.87 357.19C228.663 358.452 232.207 360.495 236.129 361.264C240.052 362.032 244.716 361.14 246.839 357.754C247.555 356.611 247.92 355.285 248.51 354.072C252.689 345.48 264.195 346.867 268.183 354.771C271.336 361.02 267.679 370.522 264.411 376.172Z" fill="#FFD942"/>
<path d="M168.899 366.557C162.295 371.498 160.963 380.087 156.168 386.497C147.555 398.011 128.477 400.226 114.602 394.151C107.963 391.245 102.178 386.808 95.2338 384.553C79.9581 379.591 63.3311 386.146 47.1222 387.073C41.7515 387.381 36.1336 387.006 31.4263 384.66C26.719 382.314 23.1615 377.617 23.8269 372.815C24.7925 365.845 33.3681 362.084 40.9675 360.457C48.5669 358.83 57.2168 357.62 61.7982 351.93C63.0123 350.422 63.8374 348.697 64.7751 347.037C69.0344 339.497 76.1242 332.97 85.0743 330.37C94.0244 327.771 104.816 329.718 110.865 336.194C113.823 339.36 115.545 343.371 118.709 346.37C125.355 352.667 136.703 352.865 145.77 349.882C154.836 346.9 162.548 341.37 171.06 337.272C179.571 333.175 189.88 330.527 198.812 333.821C205.111 340.398 203.707 351.715 195.951 356.883C188.088 362.122 176.421 360.928 168.899 366.557Z" fill="#FF508A"/>
<g opacity="0.42">
<path d="M413.449 433.856C413.449 446.675 347.36 457.066 265.836 457.066C184.312 457.066 118.224 446.675 118.224 433.856C118.224 421.037 184.312 410.645 265.836 410.645C347.36 410.645 413.449 421.037 413.449 433.856Z" fill="#E8C6CC"/>
</g>
<g opacity="0.42">
<path d="M557.594 405.825C557.594 414.742 528.351 421.97 492.279 421.97C456.207 421.97 426.965 414.742 426.965 405.825C426.965 396.909 456.207 389.681 492.279 389.681C528.351 389.681 557.594 396.909 557.594 405.825Z" fill="#E8C6CC"/>
</g>
<path d="M96.1168 339.619C96.3103 338.981 96.4741 338.338 96.5943 337.687C99.2521 323.285 78.5775 305.726 96.7095 293.714C99.5761 291.815 103.177 290.646 105.478 288.266C109.084 284.536 108.305 279.062 106.058 274.756C103.811 270.451 100.314 266.611 98.8059 262.072C96.3915 254.804 99.9113 246.305 107.247 241.69C113.192 237.95 121.399 236.47 125.478 231.266C129.106 226.637 128.139 220.466 125.36 215.569C122.58 210.672 118.232 206.547 115.019 201.847C109.83 194.259 107.737 185.173 109.155 176.385C110.314 169.19 114.197 161.816 121.56 157.873C126.446 155.256 132.347 154.404 138.08 154.129C139.466 154.062 140.866 154.037 142.265 154.055C147.147 154.119 152.001 154.797 156.112 156.853C162.743 160.17 166.441 166.784 166.413 173.324C166.385 179.865 162.98 186.253 158.015 191.405C155.509 194.005 152.472 196.567 151.902 199.845C150.841 205.953 158.426 210.063 163.36 214.518C170.128 220.628 172.631 229.596 171.114 237.969C169.597 246.341 164.367 254.111 157.492 260.423C151.071 266.319 142.499 272.531 143.631 280.332C144.332 285.16 148.765 288.929 153.438 291.744C158.111 294.559 163.353 296.881 167.005 300.605C173.084 306.802 173.369 316.561 167.665 323.244C163.722 327.865 157.589 330.789 151.541 333.333C141.646 337.496 133.421 341.851 136.483 352.432C137.281 355.188 138.956 357.818 138.807 360.67C138.525 366.084 131.871 369.856 125.562 371.164C117.533 372.829 108.681 371.952 101.984 368.091C95.2874 364.23 91.1211 357.238 92.3042 350.396C92.9438 346.697 95.0174 343.242 96.1168 339.619Z" fill="#723891"/>
<path d="M35.2029 230.459C30.9782 224.472 32.4245 215.804 38.5364 210.474C39.7826 209.387 41.2037 208.469 42.7299 207.711C48.6889 204.749 56.3193 204.346 62.0562 207.042C64.311 208.102 66.2856 209.595 67.5933 211.476C69.1334 213.692 69.6899 216.326 70.2227 218.903C71.3726 224.468 71.0936 238.381 77.0487 241.21C81.3722 243.264 86.9054 242.983 91.4253 244.733C97.3412 247.024 100.718 253.003 99.2539 258.598C97.5431 265.139 90.0907 271.17 92.0893 277.441C93.748 282.646 100.904 284.526 106.964 286.129C116.762 288.72 127.298 293.938 127.838 302.758C128.284 310.05 121.923 314.366 118.416 320.479C115.131 326.204 117.109 332.114 120.041 337.227C123.75 343.695 127.667 350.872 120.317 357.418C116.02 361.246 109.872 363.092 103.897 364.152C95.4117 365.656 86.4416 365.824 78.7397 363.082C68.3844 359.395 59.179 346.617 65.1893 336.525C67.1779 333.185 70.3639 329.994 70.2622 326.362C70.1623 322.802 66.8686 320.076 63.3957 318.25C59.9229 316.423 55.9758 315.055 53.2997 312.451C49.7816 309.027 49.1295 303.631 51.715 299.336C54.3106 295.026 59.8523 291.633 60.1488 286.917C60.6585 278.817 45.7117 276.006 45.263 267.958C44.951 262.367 51.9478 257.87 53.0845 252.272C54.042 247.555 50.6119 243.241 46.6578 240.115C42.7043 236.989 37.9885 234.406 35.2029 230.459Z" fill="#8AC9FF"/>
<path d="M492.11 229.68C497.394 257.207 484.423 285.489 487.985 313.292C489.034 321.475 491.501 329.433 492.411 337.633C493.321 345.832 492.476 354.68 487.569 361.312C483.036 367.438 475.567 370.868 468.039 372.052C463.514 372.764 458.704 372.715 454.571 370.739C448.785 367.974 445.243 361.834 443.795 355.587C441.516 345.761 443.58 335.534 444.606 325.5C445.631 315.466 445.347 304.503 439.274 296.45C435.362 291.264 429.342 288.734 425.051 283.878C420.253 278.449 417.011 271.612 416.049 264.418C415.47 260.087 415.693 255.567 417.356 251.527C419.02 247.487 422.247 243.978 426.386 242.582C433.116 240.312 436.462 245.91 442.573 246.18C447.14 246.381 451.124 242.879 453.37 238.898C455.617 234.917 456.639 230.366 458.558 226.217C460.802 221.366 464.415 216.996 469.229 214.673C474.044 212.349 480.124 212.351 484.509 215.408C489.046 218.57 491.067 224.248 492.11 229.68Z" fill="#8AC9FF"/>
<path d="M475.092 275.307C478.682 284.461 484.488 292.836 485.554 302.784C486.954 315.858 479.924 329.669 481.624 342.68C483.106 354.021 495.048 371.546 506.608 375.41C521.446 380.37 538.897 368.353 543.654 354.416C546.503 346.07 547.067 337.391 547.026 328.896C546.893 301.234 540.092 273.418 522.292 253.28C516.977 247.267 510.477 241.871 502.298 239.839C494.12 237.807 484.009 239.814 477.978 246.389C470.603 254.429 471.501 266.154 475.092 275.307ZM494.03 250.304C495.021 246.861 498.616 244.874 502.059 245.866C505.502 246.857 507.49 250.451 506.498 253.894C505.507 257.337 502.784 256.296 499.341 255.305C495.897 254.314 493.038 253.746 494.03 250.304Z" fill="#8F3DC4"/>
<path d="M562.012 338.707C562.34 338.215 562.649 337.711 562.929 337.188C569.132 325.628 559.773 305.099 576.21 299.739C578.809 298.892 581.707 298.865 584.049 297.455C587.721 295.246 588.813 290.371 588.515 286.096C588.218 281.821 586.895 277.608 587.191 273.333C587.664 266.489 592.707 260.191 599.282 258.232C604.612 256.644 610.864 257.59 615.312 254.252C619.268 251.282 620.438 245.763 619.94 240.841C619.443 235.919 617.604 231.234 616.741 226.363C615.347 218.5 616.594 210.191 620.234 203.083C623.215 197.261 628.175 192.022 634.569 190.641C638.812 189.725 643.243 190.587 647.383 191.895C648.384 192.211 649.383 192.567 650.367 192.959C653.803 194.326 657.034 196.21 659.326 199.068C663.023 203.679 663.654 210.312 661.671 215.879C659.687 221.446 655.361 225.975 650.301 229.031C647.748 230.573 644.829 231.94 643.442 234.58C640.857 239.501 644.992 245.045 647.146 250.169C650.101 257.198 649.18 265.515 645.593 272.243C642.007 278.972 635.974 284.188 629.215 287.717C622.901 291.015 614.97 294.004 613.43 300.957C612.477 305.261 614.483 309.666 616.944 313.323C619.406 316.98 622.418 320.369 623.885 324.526C626.326 331.444 623.599 339.837 617.558 343.999C613.381 346.877 608.162 347.719 603.119 348.261C594.867 349.146 587.74 350.647 586.731 360.488C586.468 363.052 586.863 365.744 585.902 368.136C584.078 372.673 578.236 374.099 573.379 373.516C567.198 372.775 561.197 369.646 557.617 364.554C554.036 359.462 553.188 352.38 556.079 346.867C557.642 343.885 560.147 341.5 562.012 338.707Z" fill="#FF508A"/>
<path d="M559.267 230.341C558.979 223.892 563.497 217.533 569.682 215.681C570.942 215.303 572.248 215.13 573.557 215.124C578.666 215.105 583.81 217.788 586.441 222.203C587.475 223.938 588.147 225.91 588.224 227.929C588.316 230.306 587.593 232.632 586.878 234.901C585.334 239.802 579.415 250.812 582.134 255.42C584.108 258.764 587.833 260.719 590.06 263.899C592.975 268.061 592.712 274.17 589.45 278.065C585.637 282.62 578.288 284.504 577.006 290.304C575.942 295.117 579.835 299.44 583.128 303.108C588.452 309.039 593.174 317.361 589.89 324.622C587.175 330.627 581.244 331.572 576.436 335.075C571.931 338.357 570.786 343.861 570.59 349.103C570.343 355.733 569.94 363.012 562.445 365.349C558.063 366.715 553.292 365.77 548.957 364.262C542.801 362.121 536.879 358.722 532.985 353.496C527.75 346.47 527.013 332.631 535.095 326.932C537.77 325.046 541.164 323.75 542.595 320.807C543.997 317.923 542.973 314.446 541.461 311.618C539.948 308.79 537.937 306.142 537.265 303.006C536.381 298.883 538.181 294.312 541.639 291.899C545.109 289.476 550.124 288.947 552.262 285.295C555.934 279.022 547.342 270.886 550.368 264.277C552.47 259.684 558.889 258.847 561.938 254.82C564.508 251.427 564.049 246.628 562.758 242.572C561.468 238.515 559.456 234.593 559.267 230.341Z" fill="#B3DCFF"/>
<path d="M619.096 400.762C612.842 401.917 606.145 402.632 601.117 406.583C597.013 409.809 594.209 415.059 589.218 416.51C584.421 417.906 579.078 414.871 576.928 410.344C574.778 405.817 575.444 400.279 577.733 395.794C580.022 391.308 583.758 387.737 587.737 384.681C594.709 379.326 602.655 375.272 611.05 372.789C616.045 371.312 621.633 371.114 626.744 372.173C630.528 372.958 634.308 374.663 636.585 377.806C645.033 389.468 628.395 399.044 619.096 400.762Z" fill="#FFD942"/>
<path d="M204.041 277.959C198.935 261.456 177.857 257.94 161.165 253.488C140.223 247.904 118.355 231.841 119.716 210.214C120.195 202.615 123.604 195.42 128.248 189.386C139.918 174.223 159.976 165.978 178.938 168.549C201.63 171.626 220.126 188.577 233.171 207.396C246.217 226.215 255.383 247.538 268.856 266.054C275.262 274.858 282.8 283.126 292.339 288.378C301.78 293.575 312.684 295.538 323.445 296.134C360.898 298.207 397.2 284.763 433.064 273.773C468.928 262.782 507.78 254.127 543.498 265.583C551.153 268.039 558.784 271.585 563.954 277.741C572.958 288.461 572.111 305.245 564.336 316.885C556.56 328.526 543.209 335.487 529.55 338.556C517.406 341.284 502.486 342.824 497.212 354.097C492.896 363.324 497.931 374.329 504.733 381.913C520.489 399.482 546.549 407.043 569.264 400.636C573.429 399.461 577.827 397.552 579.776 393.688C584.169 384.977 571.211 376.043 562.066 379.444C552.92 382.846 547.828 392.292 542.428 400.417C511.556 446.872 445.905 464.806 394.06 444.222C375.384 436.807 358.676 425.245 340.702 416.262C322.728 407.278 302.384 400.798 282.667 404.675C246.513 411.783 225.298 449.865 192.432 466.521C180.598 472.518 167.303 475.607 154.038 475.441C143.347 475.307 131.593 472.376 125.636 463.499C122.536 458.879 122.704 453.479 123.121 448.098C123.541 442.684 124.753 437.331 126.729 432.272C127.744 429.672 128.997 427.092 130.986 425.134C132.976 423.176 135.827 421.918 138.573 422.423C139.748 422.64 140.908 423.211 141.575 424.201C142.361 425.37 142.338 426.909 142.028 428.283C141.604 430.163 140.692 431.931 139.407 433.368C138.36 434.538 137.085 435.479 135.804 436.387C134.045 437.632 132.254 438.834 130.436 439.992C123.282 444.545 113.289 444.136 105.125 443.173C95.9827 442.093 87.0512 439.594 78.3304 436.713C57.5031 429.833 31.8199 423.787 15.9053 438.879" stroke="#1C1C42" stroke-width="0.15" stroke-miterlimit="10"/>
<path d="M406.846 309.641L402.496 402.739C401.529 418.381 390.879 431.747 375.846 436.183C356.937 441.763 336.952 431.653 330.247 413.116L304.273 341.31L406.846 309.641Z" fill="#1C1C42"/>
<g style="mix-blend-mode:multiply" opacity="0.2">
<path d="M405.892 330.054L406.846 309.641L400.755 311.521L405.892 330.054Z" fill="#1C1C42"/>
<path d="M345.055 405.708L311.599 361.563L330.247 413.116C336.952 431.653 356.937 441.763 375.845 436.183C386.716 432.975 395.273 425.086 399.556 415.055C382.035 427.253 358.385 423.298 345.055 405.708Z" fill="#1C1C42"/>
</g>
<path d="M328.209 372.412L179.374 334.972L207.004 225.165L355.839 262.605L328.209 372.412Z" fill="#1C1C42"/>
<g opacity="0.6">
<path d="M330.712 362.467L181.876 325.027L205.997 229.167L354.832 266.607L330.712 362.467Z" fill="#413E5E"/>
</g>
<path d="M405.579 329.417C398.226 358.64 368.573 376.369 339.346 369.017C310.119 361.665 292.388 332.015 299.741 302.792C307.093 273.569 336.747 255.84 365.974 263.192C395.2 270.544 412.932 300.194 405.579 329.417Z" fill="#2C2B4F"/>
<path d="M385.722 246.621L354.583 238.788C352.681 238.31 350.75 239.464 350.271 241.367L348.626 247.905C348.147 249.808 349.302 251.739 351.205 252.218L382.343 260.051C384.246 260.529 386.177 259.375 386.655 257.473L388.301 250.933C388.779 249.031 387.625 247.1 385.722 246.621Z" fill="#1C1C42"/>
<path d="M321.053 360.038C316.692 377.372 299.102 387.888 281.766 383.527C264.43 379.166 253.913 361.579 258.274 344.245C262.635 326.911 280.225 316.395 297.561 320.756C314.897 325.117 325.414 342.704 321.053 360.038Z" fill="#1C1C42"/>
<path d="M323.104 351.885C318.743 369.219 301.153 379.735 283.817 375.374C266.481 371.014 255.964 353.427 260.325 336.093C264.687 318.759 282.276 308.242 299.612 312.603C316.948 316.964 327.465 334.551 323.104 351.885Z" fill="#2C2B4F"/>
<path d="M332.785 270.046L340.659 253.754C343.635 247.596 349.805 243.617 356.642 243.446C365.997 243.212 375.186 245.936 382.902 251.229L385.029 252.688C390.12 256.181 393.101 262.009 392.952 268.18L392.546 285.079L332.785 270.046Z" fill="#2C2B4F"/>
<path d="M355.493 249.012C364.306 248.791 372.965 251.358 380.235 256.345L382.238 257.72C384.362 259.176 386.093 261.065 387.354 263.222C386.435 259.572 384.23 256.318 381.049 254.136L379.227 252.886C372.615 248.351 364.742 246.017 356.727 246.217C351.067 246.358 345.95 249.549 343.309 254.522C346.416 251.17 350.783 249.13 355.493 249.012Z" fill="#413E5E"/>
<path d="M398.905 325.331C392.244 351.804 365.381 367.865 338.905 361.205C312.428 354.545 296.365 327.685 303.026 301.212C309.687 274.74 336.55 258.679 363.026 265.339C389.503 271.999 405.566 298.858 398.905 325.331Z" fill="#2C2B4F"/>
<g opacity="0.6">
<path d="M398.905 325.331C392.244 351.804 365.381 367.865 338.905 361.205C312.428 354.545 296.365 327.685 303.026 301.212C309.687 274.74 336.55 258.679 363.026 265.339C389.503 271.999 405.566 298.858 398.905 325.331Z" fill="#575370"/>
</g>
<g opacity="0.6">
<path d="M398.402 327.332C392.019 352.7 365.989 368.018 340.263 361.547C314.536 355.075 298.856 329.264 305.239 303.897C311.622 278.529 337.652 263.211 363.378 269.682C389.104 276.154 404.785 301.965 398.402 327.332Z" fill="#575370"/>
</g>
<g opacity="0.2">
<path d="M390.951 290.716C392.396 297.471 392.363 304.65 390.564 311.801C384.284 336.76 358.956 351.903 333.994 345.624C320.035 342.112 309.15 332.643 303.361 320.614C306.96 337.434 319.765 351.611 337.575 356.091C362.537 362.37 387.865 347.228 394.145 322.269C396.913 311.267 395.514 300.197 390.951 290.716Z" fill="#1C1C42"/>
</g>
<path d="M316.169 350.14C312.771 363.644 299.068 371.837 285.562 368.439C272.057 365.042 263.863 351.341 267.261 337.838C270.659 324.334 284.361 316.141 297.867 319.538C311.373 322.936 319.566 336.636 316.169 350.14Z" fill="#1C1C42"/>
<path d="M309.117 345.635C306.432 356.307 295.603 362.782 284.93 360.097C274.257 357.412 267.781 346.584 270.467 335.913C273.152 325.241 283.981 318.766 294.654 321.451C305.327 324.136 311.803 334.964 309.117 345.635Z" fill="#413E5E"/>
<path d="M366.676 295.039C365.25 300.706 359.5 304.144 353.833 302.718C348.165 301.292 344.726 295.542 346.152 289.875C347.578 284.209 353.329 280.77 358.996 282.196C364.664 283.622 368.102 289.372 366.676 295.039Z" fill="#2C2B4F"/>
<path d="M364.869 292.017C363.443 297.684 357.693 301.122 352.025 299.696C346.358 298.27 342.919 292.521 344.345 286.854C345.771 281.187 351.522 277.749 357.189 279.175C362.857 280.601 366.296 286.35 364.869 292.017Z" fill="#413E5E"/>
<path d="M348.088 290.408C349.203 285.978 353.699 283.289 358.13 284.404C360.493 284.998 362.351 286.558 363.411 288.552C363.223 285.025 360.773 281.879 357.167 280.972C352.736 279.858 348.239 282.546 347.124 286.976C346.604 289.044 346.921 291.122 347.849 292.869C347.806 292.061 347.881 291.234 348.088 290.408Z" fill="#575370"/>
<path d="M386.441 322.561C385.015 328.228 379.265 331.666 373.598 330.24C367.93 328.814 364.491 323.065 365.917 317.398C367.343 311.731 373.093 308.293 378.761 309.719C384.428 311.145 387.867 316.894 386.441 322.561Z" fill="#2C2B4F"/>
<path d="M384.634 319.54C383.208 325.206 377.458 328.645 371.79 327.219C366.123 325.793 362.684 320.043 364.11 314.376C365.536 308.709 371.286 305.271 376.954 306.697C382.621 308.123 386.06 313.873 384.634 319.54Z" fill="#413E5E"/>
<path d="M367.853 317.931C368.968 313.5 373.464 310.812 377.895 311.927C380.257 312.521 382.116 314.081 383.176 316.075C382.988 312.547 380.537 309.402 376.931 308.495C372.5 307.38 368.004 310.069 366.889 314.499C366.369 316.567 366.685 318.645 367.613 320.391C367.57 319.583 367.646 318.756 367.853 317.931Z" fill="#575370"/>
<path d="M338.256 310.44C336.83 316.106 331.079 319.545 325.412 318.119C319.744 316.693 316.306 310.944 317.732 305.277C319.158 299.61 324.908 296.172 330.576 297.598C336.243 299.024 339.682 304.773 338.256 310.44Z" fill="#2C2B4F"/>
<path d="M336.449 307.418C335.022 313.085 329.273 316.523 323.605 315.097C317.938 313.671 314.499 307.922 315.925 302.255C317.351 296.589 323.101 293.15 328.768 294.576C334.436 296.002 337.875 301.751 336.449 307.418Z" fill="#413E5E"/>
<path d="M319.668 305.81C320.783 301.379 325.278 298.691 329.709 299.806C332.072 300.4 333.93 301.96 334.99 303.954C334.802 300.427 332.352 297.281 328.746 296.374C324.315 295.259 319.819 297.947 318.704 302.377C318.184 304.445 318.5 306.524 319.428 308.27C319.385 307.462 319.46 306.635 319.668 305.81Z" fill="#575370"/>
<path d="M355.569 339.182C354.143 344.849 348.393 348.287 342.725 346.861C337.058 345.435 333.619 339.686 335.045 334.019C336.471 328.353 342.221 324.914 347.889 326.34C353.556 327.766 356.995 333.515 355.569 339.182Z" fill="#2C2B4F"/>
<path d="M353.762 336.16C352.335 341.827 346.586 345.266 340.918 343.84C335.25 342.414 331.812 336.665 333.238 330.998C334.664 325.331 340.414 321.893 346.081 323.319C351.749 324.745 355.188 330.494 353.762 336.16Z" fill="#413E5E"/>
<path d="M336.981 334.552C338.095 330.122 342.591 327.434 347.022 328.548C349.385 329.142 351.243 330.702 352.303 332.696C352.115 329.169 349.665 326.023 346.059 325.116C341.628 324.002 337.132 326.689 336.017 331.12C335.497 333.188 335.813 335.267 336.741 337.013C336.698 336.205 336.773 335.378 336.981 334.552Z" fill="#575370"/>
<g opacity="0.5">
<path d="M358.363 294.715C358.719 293.297 357.748 291.83 356.192 291.439C354.637 291.048 353.087 291.88 352.73 293.298C352.374 294.716 353.345 296.183 354.901 296.574C356.456 296.965 358.006 296.133 358.363 294.715Z" fill="#575370"/>
</g>
<g opacity="0.5">
<path d="M375.88 322.866C376.236 321.448 375.265 319.981 373.71 319.59C372.154 319.199 370.604 320.031 370.247 321.449C369.891 322.867 370.862 324.334 372.418 324.725C373.973 325.116 375.523 324.284 375.88 322.866Z" fill="#575370"/>
</g>
<g opacity="0.5">
<path d="M343.847 338.8C344.204 337.382 343.233 335.915 341.678 335.524C340.122 335.133 338.571 335.965 338.215 337.383C337.858 338.801 338.83 340.268 340.385 340.659C341.941 341.05 343.491 340.218 343.847 338.8Z" fill="#575370"/>
</g>
<g opacity="0.5">
<path d="M324.386 310.367C324.636 309.373 323.956 308.344 322.865 308.07C321.774 307.796 320.687 308.38 320.437 309.373C320.187 310.367 320.868 311.396 321.959 311.67C323.05 311.944 324.137 311.361 324.386 310.367Z" fill="#575370"/>
</g>
<path d="M273.297 341.903C275.993 331.189 286.865 324.69 297.579 327.385C300.711 328.173 303.474 329.667 305.761 331.644C303.353 328.234 299.766 325.633 295.4 324.534C285.702 322.094 275.862 327.978 273.422 337.675C272.922 339.662 272.794 341.651 272.959 343.584C273.049 343.024 273.156 342.463 273.297 341.903Z" fill="#575370"/>
<path d="M308.709 340.526C308.826 340.727 308.958 340.919 309.067 341.124C309.062 341.023 309.046 340.923 309.039 340.822C308.934 340.719 308.817 340.627 308.709 340.526Z" fill="#575370"/>
<g opacity="0.3">
<path d="M304.294 345.974C300.334 354.308 290.367 357.854 282.032 353.895C279.596 352.737 277.577 351.061 276.027 349.069C277.442 352.255 279.954 354.973 283.35 356.586C290.894 360.17 299.916 356.961 303.5 349.417C304.235 347.871 304.665 346.262 304.846 344.653C304.68 345.096 304.501 345.538 304.294 345.974Z" fill="#575370"/>
<path d="M275.065 341.312C275.002 341.129 274.926 340.95 274.87 340.764C274.858 340.848 274.855 340.931 274.844 341.016C274.913 341.118 274.994 341.212 275.065 341.312Z" fill="#575370"/>
</g>
<path d="M362.977 274.128C367.545 275.277 371.753 277.141 375.541 279.57C371.077 275.804 365.775 272.985 359.81 271.485C337.561 265.888 314.684 280.591 308.712 304.325C308.397 305.577 308.143 306.83 307.938 308.078C315.084 283.316 339.351 268.185 362.977 274.128Z" fill="#575370"/>
<path d="M383.408 288.438C383.411 288.441 383.413 288.443 383.416 288.446C383.415 288.444 383.415 288.444 383.414 288.443C383.412 288.442 383.41 288.44 383.408 288.438Z" fill="#575370"/>
<path d="M128.983 239.743L88.7517 323.816C82.2001 338.053 85.2572 354.867 96.4009 365.888C110.418 379.75 132.808 380.3 147.489 367.142L204.355 316.175L128.983 239.743Z" fill="#1C1C42"/>
<g style="mix-blend-mode:multiply" opacity="0.2">
<path d="M120.162 258.177L128.983 239.743L133.458 244.281L120.162 258.177Z" fill="#1C1C42"/>
<path d="M137.95 353.61L188.315 330.551L147.489 367.142C132.808 380.3 110.418 379.75 96.4009 365.888C88.3422 357.918 84.5395 346.92 85.5137 336.056C95.1762 355.092 117.882 362.798 137.95 353.61Z" fill="#1C1C42"/>
</g>
<path d="M226.577 284.388C219.224 313.611 189.571 331.34 160.344 323.989C131.118 316.637 113.386 286.986 120.739 257.764C128.092 228.541 157.745 210.811 186.972 218.163C216.198 225.515 233.93 255.165 226.577 284.388Z" fill="#2C2B4F"/>
<path d="M177.417 194.222L208.556 202.055C210.459 202.533 211.613 204.464 211.135 206.366L209.489 212.905C209.011 214.808 207.079 215.962 205.177 215.483L174.038 207.65C172.135 207.172 170.981 205.241 171.459 203.339L173.105 196.8C173.583 194.897 175.515 193.743 177.417 194.222Z" fill="#1C1C42"/>
<path d="M180.709 324.733C176.348 342.067 186.865 359.654 204.201 364.015C221.537 368.376 239.127 357.86 243.488 340.526C247.849 323.192 237.332 305.605 219.996 301.244C202.66 296.883 185.07 307.399 180.709 324.733Z" fill="#1C1C42"/>
<path d="M182.76 316.581C178.399 333.915 188.917 351.502 206.253 355.863C223.589 360.223 241.178 349.707 245.54 332.373C249.901 315.04 239.383 297.453 222.047 293.092C204.711 288.731 187.122 299.247 182.76 316.581Z" fill="#2C2B4F"/>
<path d="M212.965 239.905L213.74 221.827C214.033 214.994 210.481 208.57 204.538 205.183C196.408 200.552 187.023 198.602 177.721 199.615L175.157 199.894C169.019 200.562 163.635 204.286 160.845 209.793L153.204 224.872L212.965 239.905Z" fill="#2C2B4F"/>
<path d="M202.917 210.631C195.256 206.267 186.414 204.431 177.649 205.384L175.234 205.647C172.674 205.925 170.255 206.77 168.123 208.073C170.66 205.293 174.141 203.47 177.978 203.052L180.175 202.813C188.145 201.946 196.186 203.616 203.152 207.585C208.071 210.387 211.068 215.62 211.041 221.25C209.891 216.827 207.01 212.963 202.917 210.631Z" fill="#413E5E"/>
<path d="M219.904 280.302C213.243 306.775 186.379 322.836 159.903 316.176C133.426 309.516 117.363 282.657 124.024 256.184C130.685 229.711 157.548 213.65 184.025 220.31C210.501 226.97 226.565 253.829 219.904 280.302Z" fill="#2C2B4F"/>
<g opacity="0.6">
<path d="M219.904 280.302C213.243 306.775 186.379 322.836 159.903 316.176C133.426 309.516 117.363 282.657 124.024 256.184C130.685 229.711 157.548 213.65 184.025 220.31C210.501 226.97 226.565 253.829 219.904 280.302Z" fill="#575370"/>
</g>
<g opacity="0.6">
<path d="M219.4 282.304C213.017 307.671 186.987 322.989 161.261 316.518C135.535 310.047 119.854 284.236 126.237 258.868C132.621 233.5 158.65 218.182 184.376 224.654C210.102 231.125 225.783 256.936 219.4 282.304Z" fill="#575370"/>
</g>
<g opacity="0.2">
<path d="M212.737 245.885C214.198 252.71 214.165 259.965 212.346 267.191C206 292.412 180.408 307.713 155.184 301.368C141.079 297.819 130.08 288.251 124.231 276.097C127.868 293.093 140.807 307.418 158.803 311.945C184.027 318.291 209.618 302.989 215.965 277.768C218.762 266.651 217.348 255.465 212.737 245.885Z" fill="#1C1C42"/>
</g>
<path d="M238.604 330.629C235.206 344.133 221.504 352.325 207.998 348.927C194.492 345.53 186.298 331.829 189.696 318.326C193.094 304.822 206.796 296.629 220.302 300.026C233.808 303.424 242.002 317.125 238.604 330.629Z" fill="#1C1C42"/>
<path d="M231.553 326.124C228.868 336.795 218.039 343.27 207.366 340.585C196.693 337.9 190.216 327.072 192.902 316.401C195.587 305.729 206.416 299.254 217.089 301.939C227.762 304.624 234.238 315.452 231.553 326.124Z" fill="#413E5E"/>
<g opacity="0.5">
<path d="M178.757 249.534C179.114 248.116 180.665 247.284 182.22 247.675C183.775 248.066 184.747 249.533 184.39 250.951C184.034 252.369 182.483 253.201 180.928 252.81C179.372 252.419 178.401 250.952 178.757 249.534Z" fill="#575370"/>
</g>
<g opacity="0.5">
<path d="M150.002 266.045C150.359 264.627 151.909 263.795 153.465 264.186C155.02 264.577 155.991 266.044 155.635 267.463C155.278 268.881 153.728 269.712 152.172 269.321C150.617 268.93 149.646 267.463 150.002 266.045Z" fill="#575370"/>
</g>
<g opacity="0.5">
<path d="M170.679 295.239C171.036 293.821 172.587 292.989 174.142 293.38C175.698 293.771 176.669 295.237 176.313 296.656C175.956 298.074 174.405 298.906 172.85 298.515C171.294 298.124 170.323 296.657 170.679 295.239Z" fill="#575370"/>
</g>
<g opacity="0.5">
<path d="M201.281 279.399C201.53 278.405 202.617 277.821 203.708 278.096C204.799 278.37 205.48 279.399 205.23 280.392C204.98 281.386 203.893 281.97 202.802 281.696C201.711 281.422 201.031 280.393 201.281 279.399Z" fill="#575370"/>
</g>
<path d="M187.399 258.286L181.725 261.447C180.407 261.927 178.93 261.555 177.995 260.509L174.493 255.039C173.735 254.191 173.447 253.022 173.725 251.919L177.018 238.829C177.48 236.993 179.344 235.879 181.18 236.341L190.357 238.649C192.193 239.111 193.308 240.974 192.846 242.81L189.552 255.901C189.275 257.004 188.468 257.897 187.399 258.286Z" fill="#2C2B4F"/>
<path d="M185.396 256.276L179.722 259.437C178.404 259.916 176.927 259.545 175.992 258.498L172.49 253.03C171.732 252.181 171.445 251.013 171.723 249.909L175.016 236.819C175.478 234.983 177.342 233.869 179.178 234.331L188.355 236.639C190.191 237.101 191.305 238.964 190.843 240.8L187.55 253.891C187.272 254.994 186.465 255.887 185.396 256.276Z" fill="#413E5E"/>
<path d="M176.072 254.5C175.314 253.652 175.027 252.482 175.305 251.38L178.022 240.579C178.484 238.743 180.348 237.629 182.184 238.091L188.815 239.758C189.003 239.805 189.177 239.876 189.349 239.951C188.973 238.918 188.108 238.083 186.962 237.795L180.331 236.127C178.494 235.665 176.631 236.779 176.169 238.615L173.451 249.416C173.173 250.519 173.461 251.688 174.219 252.536L177.721 258.005C178.041 258.363 178.425 258.635 178.843 258.828L176.072 254.5Z" fill="#575370"/>
<path d="M180.795 284.533L177.293 279.063C176.358 278.017 174.88 277.645 173.562 278.125L167.889 281.286C166.82 281.675 166.013 282.568 165.735 283.671L162.442 296.762C161.98 298.598 163.094 300.461 164.93 300.923L174.107 303.232C175.943 303.693 177.807 302.579 178.269 300.743L181.563 287.652C181.84 286.549 181.553 285.381 180.795 284.533Z" fill="#2C2B4F"/>
<path d="M178.787 282.544L175.285 277.075C174.35 276.028 172.873 275.657 171.555 276.136L165.881 279.297C164.812 279.686 164.005 280.579 163.727 281.683L160.434 294.773C159.972 296.609 161.086 298.472 162.922 298.934L172.099 301.243C173.935 301.705 175.799 300.591 176.261 298.755L179.555 285.664C179.832 284.56 179.545 283.392 178.787 282.544Z" fill="#413E5E"/>
<path d="M169.732 279.697C168.663 280.086 167.857 280.98 167.579 282.082L164.861 292.883C164.399 294.719 165.513 296.583 167.35 297.044L173.981 298.712C174.169 298.759 174.356 298.78 174.542 298.795C173.723 299.528 172.566 299.853 171.419 299.565L164.788 297.897C162.951 297.435 161.837 295.572 162.299 293.736L165.017 282.935C165.295 281.832 166.101 280.938 167.17 280.55L172.844 277.389C173.294 277.225 173.763 277.167 174.222 277.195L169.732 279.697Z" fill="#575370"/>
<path d="M187.139 279.536L183.978 273.863C183.498 272.545 183.87 271.068 184.916 270.134L190.386 266.632C191.234 265.874 192.403 265.586 193.506 265.864L206.598 269.157C208.435 269.619 209.549 271.482 209.087 273.318L206.779 282.494C206.317 284.33 204.453 285.444 202.617 284.983L189.525 281.689C188.421 281.411 187.528 280.605 187.139 279.536Z" fill="#2C2B4F"/>
<path d="M189.149 277.534L185.988 271.86C185.508 270.542 185.88 269.065 186.926 268.131L192.396 264.629C193.244 263.872 194.413 263.583 195.517 263.861L208.609 267.155C210.445 267.617 211.559 269.48 211.097 271.316L208.789 280.492C208.327 282.328 206.463 283.442 204.627 282.98L191.535 279.687C190.431 279.409 189.538 278.603 189.149 277.534Z" fill="#413E5E"/>
<path d="M190.926 268.211C191.774 267.453 192.943 267.166 194.046 267.443L204.849 270.161C206.685 270.623 207.799 272.486 207.337 274.322L205.669 280.952C205.622 281.14 205.55 281.314 205.476 281.486C206.509 281.11 207.344 280.245 207.633 279.099L209.301 272.469C209.763 270.633 208.649 268.769 206.812 268.307L196.01 265.59C194.907 265.312 193.737 265.6 192.889 266.357L187.419 269.86C187.062 270.179 186.79 270.564 186.597 270.982L190.926 268.211Z" fill="#575370"/>
<path d="M160.889 272.933L166.358 269.431C167.405 268.496 167.777 267.019 167.297 265.701L164.136 260.028C163.747 258.959 162.853 258.153 161.751 257.876L148.658 254.582C146.821 254.12 144.958 255.234 144.496 257.07L142.188 266.246C141.726 268.082 142.84 269.945 144.676 270.407L157.768 273.701C158.872 273.978 160.041 273.691 160.889 272.933Z" fill="#2C2B4F"/>
<path d="M162.878 270.925L168.348 267.423C169.394 266.489 169.766 265.011 169.286 263.693L166.125 258.021C165.736 256.952 164.843 256.145 163.739 255.868L150.647 252.574C148.811 252.113 146.947 253.226 146.485 255.063L144.176 264.238C143.715 266.074 144.829 267.938 146.665 268.399L159.757 271.693C160.86 271.97 162.03 271.683 162.878 270.925Z" fill="#413E5E"/>
<path d="M165.726 261.872C165.337 260.803 164.443 259.997 163.34 259.719L152.537 257.001C150.701 256.54 148.837 257.653 148.375 259.49L146.707 266.12C146.66 266.307 146.64 266.494 146.625 266.681C145.892 265.862 145.566 264.705 145.854 263.558L147.523 256.928C147.984 255.092 149.847 253.978 151.684 254.44L162.487 257.157C163.59 257.435 164.484 258.241 164.873 259.309L168.034 264.983C168.197 265.433 168.254 265.901 168.227 266.361L165.726 261.872Z" fill="#575370"/>
<path d="M195.732 322.392C198.428 311.678 209.3 305.178 220.014 307.873C223.146 308.661 225.909 310.156 228.196 312.133C225.788 308.723 222.201 306.121 217.835 305.023C208.137 302.583 198.298 308.466 195.858 318.163C195.357 320.151 195.229 322.139 195.394 324.072C195.484 323.512 195.591 322.952 195.732 322.392Z" fill="#575370"/>
<path d="M231.144 321.014C231.261 321.215 231.393 321.407 231.502 321.612C231.497 321.511 231.481 321.412 231.474 321.311C231.369 321.207 231.252 321.115 231.144 321.014Z" fill="#575370"/>
<g opacity="0.3">
<path d="M226.729 326.462C222.769 334.796 212.802 338.342 204.467 334.383C202.031 333.225 200.012 331.549 198.462 329.557C199.877 332.743 202.389 335.461 205.786 337.074C213.33 340.658 222.351 337.449 225.935 329.905C226.67 328.359 227.1 326.751 227.282 325.141C227.115 325.585 226.937 326.026 226.729 326.462Z" fill="#575370"/>
<path d="M197.5 321.8C197.437 321.617 197.361 321.438 197.306 321.252C197.294 321.336 197.29 321.419 197.279 321.504C197.348 321.606 197.429 321.7 197.5 321.8Z" fill="#575370"/>
</g>
<path d="M183.976 229.099C188.544 230.248 192.751 232.112 196.539 234.541C192.075 230.775 186.774 227.956 180.808 226.456C158.56 220.859 135.682 235.562 129.711 259.296C129.395 260.549 129.141 261.801 128.937 263.049C136.083 238.287 160.35 223.156 183.976 229.099Z" fill="#575370"/>
<path d="M204.406 243.41C204.409 243.412 204.412 243.414 204.415 243.417C204.414 243.416 204.413 243.416 204.412 243.414C204.41 243.413 204.408 243.411 204.406 243.41Z" fill="#575370"/>
<path d="M298.001 266.853L232.042 250.261C230.664 249.914 229.827 248.516 230.174 247.138L230.917 244.186C231.263 242.808 232.662 241.972 234.04 242.318L300 258.911C301.378 259.257 302.214 260.656 301.867 262.034L301.125 264.986C300.778 266.364 299.379 267.199 298.001 266.853Z" fill="#413E5E"/>
<g opacity="0.4">
<path d="M121.632 300.554C120.739 304.103 117.137 306.256 113.587 305.363C110.037 304.47 107.883 300.869 108.777 297.319C109.67 293.77 113.271 291.616 116.821 292.509C120.372 293.403 122.525 297.004 121.632 300.554Z" fill="#413E5E"/>
</g>
<path d="M197.796 244.877C197.388 246.501 198.373 248.147 199.996 248.556C201.62 248.964 203.267 247.98 203.675 246.356C204.083 244.733 203.098 243.086 201.475 242.677C199.851 242.269 198.204 243.254 197.796 244.877Z" fill="#575370"/>
<path d="M244.863 264.368C244.272 266.718 241.886 268.144 239.536 267.553C237.185 266.962 235.759 264.577 236.35 262.226C236.941 259.876 239.327 258.449 241.677 259.04C244.028 259.631 245.454 262.018 244.863 264.368Z" fill="#413E5E"/>
<g opacity="0.3">
<path d="M219.733 315.943C219.181 318.137 220.513 320.362 222.707 320.914C224.901 321.466 227.127 320.135 227.679 317.941C228.231 315.747 226.9 313.522 224.706 312.97C222.512 312.418 220.285 313.749 219.733 315.943Z" fill="#575370"/>
</g>
<path d="M252.298 297.341L238.091 293.768C237.766 293.686 237.569 293.357 237.651 293.032L238.898 288.075C238.98 287.75 239.309 287.554 239.634 287.635L253.841 291.209C254.166 291.291 254.363 291.62 254.281 291.945L253.034 296.902C252.952 297.227 252.623 297.423 252.298 297.341Z" fill="#1C1C42"/>
<path d="M251.75 294.834L237.543 291.26C237.218 291.179 237.021 290.85 237.103 290.525L238.35 285.568C238.431 285.243 238.761 285.046 239.086 285.128L253.293 288.702C253.618 288.783 253.815 289.113 253.733 289.437L252.486 294.395C252.404 294.719 252.075 294.915 251.75 294.834Z" fill="#413E5E"/>
<path d="M239.543 288.147C239.673 287.631 240.197 287.318 240.713 287.448L252.159 290.327C252.27 290.355 252.365 290.409 252.455 290.468L252.457 290.461C252.587 289.944 252.273 289.42 251.757 289.29L240.311 286.411C239.795 286.281 239.27 286.594 239.141 287.11L238.455 289.838C238.353 290.244 238.53 290.647 238.858 290.867L239.543 288.147Z" fill="#575370"/>
<path d="M284.921 305.548L270.714 301.974C270.389 301.892 270.192 301.564 270.274 301.239L271.521 296.282C271.603 295.957 271.932 295.76 272.257 295.842L286.464 299.416C286.789 299.498 286.986 299.826 286.904 300.151L285.657 305.108C285.575 305.433 285.246 305.63 284.921 305.548Z" fill="#1C1C42"/>
<path d="M284.373 303.041L270.166 299.466C269.841 299.385 269.644 299.056 269.726 298.732L270.974 293.774C271.055 293.45 271.384 293.253 271.709 293.334L285.917 296.909C286.241 296.99 286.438 297.319 286.356 297.643L285.109 302.601C285.027 302.925 284.698 303.122 284.373 303.041Z" fill="#413E5E"/>
<path d="M272.166 296.354C272.296 295.838 272.82 295.524 273.336 295.654L284.782 298.533C284.893 298.561 284.988 298.615 285.078 298.675L285.08 298.667C285.21 298.15 284.897 297.626 284.381 297.496L272.934 294.617C272.418 294.487 271.894 294.801 271.764 295.317L271.078 298.045C270.976 298.451 271.153 298.853 271.482 299.073L272.166 296.354Z" fill="#575370"/>
<path d="M264.716 317.68L250.508 314.107C250.184 314.025 249.987 313.696 250.068 313.371L251.316 308.414C251.398 308.089 251.726 307.893 252.051 307.975L266.259 311.548C266.583 311.63 266.78 311.959 266.699 312.284L265.451 317.241C265.37 317.566 265.04 317.762 264.716 317.68Z" fill="#1C1C42"/>
<path d="M264.168 315.173L249.96 311.599C249.635 311.518 249.439 311.188 249.52 310.864L250.768 305.907C250.85 305.582 251.178 305.386 251.503 305.467L265.711 309.041C266.036 309.122 266.232 309.452 266.15 309.776L264.903 314.733C264.822 315.058 264.492 315.254 264.168 315.173Z" fill="#413E5E"/>
<path d="M251.96 308.487C252.09 307.971 252.614 307.657 253.131 307.787L264.577 310.666C264.687 310.694 264.783 310.748 264.872 310.807L264.875 310.799C265.005 310.283 264.691 309.759 264.175 309.629L252.728 306.75C252.212 306.62 251.689 306.934 251.559 307.45L250.872 310.177C250.77 310.583 250.948 310.986 251.276 311.206L251.96 308.487Z" fill="#575370"/>
<g opacity="0.4">
<path d="M179.604 211.196C179.323 212.311 178.193 212.986 177.079 212.706C175.964 212.425 175.288 211.296 175.568 210.181C175.849 209.066 176.979 208.391 178.094 208.671C179.209 208.951 179.884 210.082 179.604 211.196Z" fill="#575370"/>
</g>
<g opacity="0.4">
<path d="M356.112 255.198C355.884 256.104 354.965 256.654 354.058 256.426C353.151 256.198 352.601 255.278 352.829 254.371C353.057 253.465 353.977 252.915 354.884 253.143C355.79 253.371 356.34 254.291 356.112 255.198Z" fill="#575370"/>
</g>
<g opacity="0.4">
<path d="M107.888 310.71C107.621 311.771 106.544 312.414 105.483 312.147C104.422 311.88 103.779 310.805 104.046 309.744C104.313 308.683 105.389 308.039 106.45 308.306C107.511 308.573 108.155 309.649 107.888 310.71Z" fill="#413E5E"/>
</g>
<g opacity="0.4">
<path d="M374.085 402.296C375.198 397.87 379.69 395.185 384.116 396.298C388.543 397.412 391.228 401.902 390.115 406.328C389.001 410.754 384.509 413.439 380.083 412.326C375.657 411.212 372.971 406.722 374.085 402.296Z" fill="#413E5E"/>
</g>
<g opacity="0.4">
<path d="M382.607 383.647C382.927 382.375 384.218 381.603 385.491 381.923C386.763 382.243 387.535 383.533 387.215 384.806C386.895 386.078 385.604 386.85 384.332 386.53C383.059 386.21 382.287 384.919 382.607 383.647Z" fill="#413E5E"/>
</g>
<path d="M285.062 136.263L309.016 137.556C309.016 137.556 312.96 138.582 315.282 143.383C317.65 148.279 313.238 152.352 312.792 152.103C311.984 151.652 282.542 149.52 282.542 149.52L285.062 136.263Z" fill="#FFB8BC"/>
<path d="M265.69 148.47C265.69 148.47 264.112 135.777 275.731 134.925C290.869 133.816 298.569 134.546 298.569 134.546L303.148 155.773L265.69 148.47Z" fill="#4A245E"/>
<path d="M310.967 136.71L334.12 120.28C334.402 120.1 334.762 120.093 335.052 120.263L338.574 122.335C339.051 122.616 339.16 123.259 338.802 123.68L319.195 149.046C316.421 152.742 310.924 152.885 307.962 149.337L302.558 142.866C302.2 142.437 302.313 141.791 302.794 141.508L310.892 136.759C310.917 136.744 310.943 136.728 310.967 136.71Z" fill="#FFB8BC"/>
<path d="M331.482 122.629C331.482 122.629 333.156 116.304 338.132 113.479C341.412 111.617 346.459 111.636 348.867 114.54L332.64 129.772L331.482 122.629Z" fill="#FFB8BC"/>
<path d="M254.099 131.543L273.087 137.125C275.012 137.692 276.239 139.574 275.98 141.563L266.616 211.506L217.689 199.211L229.403 141.138L231.776 135.925C232.886 133.487 235.296 131.903 237.974 131.852L254.099 131.543Z" fill="#723891"/>
<path d="M262.194 122.435L261.157 132.735C260.801 136.353 258.451 138.066 255.005 137.684C252.065 137.358 248.974 135.605 249.424 132.429L251.811 116.299L262.194 122.435Z" fill="#FFB8BC"/>
<path d="M261.045 132.72C261.045 132.72 253.064 129.15 251.411 119.441C250.89 116.382 262.32 121.381 262.32 121.381L261.045 132.72Z" fill="#FF808C"/>
<path d="M245.769 131.703L254.098 131.544L264.708 134.663C264.708 134.663 264.485 141.077 255.287 140.057C246.089 139.037 245.769 131.703 245.769 131.703Z" fill="#FFB8BC"/>
<path d="M286.52 294.383L297.556 296.314L297.473 312.096L286.437 310.164L286.52 294.383Z" fill="#FFB8BC"/>
<path d="M309.243 316.982L283.472 312.472L284.304 307.718C284.419 307.066 285.149 306.645 285.969 306.75C287.729 306.974 290.66 307.138 292.312 306.071C292.97 305.645 293.829 305.463 294.695 305.614L299.036 306.374L311.691 313.283C313.536 314.29 314.375 316.148 313.716 317.765L309.243 316.982Z" fill="#1C1C42"/>
<path d="M313.517 319.307L283.204 314.001L283.472 312.471L313.784 317.777L313.517 319.307Z" fill="#B3DCFF"/>
<path d="M244.263 213.981L248.415 199.214L280.102 199.769C286.063 199.873 291.135 204.137 292.262 209.99L306.592 300.076H284.104L270.717 231.913L241.7 232.983L244.263 213.981Z" fill="#8AC9FF"/>
<path d="M239.773 299.24L250.697 301.731L247.238 316.901L236.314 314.41L239.773 299.24Z" fill="#FFB8BC"/>
<path d="M259.394 324.136L233.886 318.321L234.959 313.616C235.106 312.97 235.857 312.587 236.67 312.734C238.416 313.048 241.336 313.36 243.039 312.378C243.719 311.987 244.586 311.848 245.443 312.044L249.739 313.023L262.027 320.567C263.818 321.667 264.563 323.564 263.822 325.145L259.394 324.136Z" fill="#1C1C42"/>
<path d="M263.544 326.675L233.541 319.835L233.886 318.321L263.889 325.161L263.544 326.675Z" fill="#B3DCFF"/>
<path d="M214.626 209.222L217.44 196.531L255.632 199.831C264.883 201.978 268.161 205.706 268.161 218.805L253.43 304.995L235.187 304.938L239.742 231.913L228.684 230.485C222.125 229.638 216.668 225.031 214.734 218.708C213.789 215.621 213.752 212.329 214.626 209.222Z" fill="#B3DCFF"/>
<path d="M266.703 95.3196C266.703 95.3196 274.957 102.055 267.514 105.227L266.703 95.3196Z" fill="#4A245E"/>
<path d="M262.462 108.212C262.612 111.724 265.493 114.466 268.897 114.336C272.301 114.206 274.938 111.252 274.788 107.74C274.638 104.228 271.757 101.486 268.353 101.616C264.95 101.747 262.312 104.7 262.462 108.212Z" fill="#E83479"/>
<path d="M257.543 123.621C263.453 123.753 268.428 119.04 268.7 114.06L269.213 103.638C269.555 97.3961 265.039 92.005 259.008 91.4546C252.833 90.8917 246.298 95.5047 245.746 101.88L245.444 110.006C245.164 117.322 250.48 122.977 257.543 123.621Z" fill="#FFB8BC"/>
<path d="M274.305 91.2026C273.607 89.8764 271.971 89.1597 270.495 89.4216C270.588 87.8122 269.408 86.2826 267.888 85.7445C266.65 85.3062 265.36 85.5784 264.439 86.5243C263.841 85.862 263.022 85.3745 262.134 85.2838C261.247 85.1931 260.3 85.5356 259.761 86.2468C259.527 85.7822 258.93 85.6433 258.41 85.6444C257.323 85.6467 256.458 86.0539 255.559 86.613C254.827 87.068 254.286 86.959 253.471 87.0206C251.345 87.1812 249.092 88.3484 247.43 89.6257C246.497 90.3426 245.649 91.191 244.994 92.1714C244.76 92.5205 244.57 93.1509 244.173 93.277C243.681 93.433 242.479 92.8089 241.876 92.8185C241.066 92.8312 240.215 93.1657 239.794 93.8574C239.373 94.5485 239.559 95.6083 240.292 95.9523C239.574 95.6146 238.41 97.8754 238.292 98.3233C237.99 99.4724 238.325 100.67 239.132 101.533C239.518 101.946 240.484 102.121 240.699 102.551C241.041 103.239 240.046 104.121 240.697 104.91C240.943 105.208 241.34 105.33 241.72 105.399C242.935 105.621 243.392 105.217 243.506 106.601C243.608 107.848 243.715 109.033 244.388 110.127C245.364 111.714 246.537 113.242 247.738 114.669C247.738 114.669 248.011 106.41 248.013 106.351C248.012 106.382 250.168 105.577 250.36 105.517C251.426 105.185 252.303 104.798 252.576 103.553C252.603 103.43 252.627 103.293 252.726 103.214C252.912 103.066 253.175 103.234 253.366 103.376C254.359 104.111 255.738 104.195 256.906 103.788C258.074 103.382 259.048 102.54 259.824 101.578C260.372 102.016 260.931 102.463 261.585 102.718C262.523 103.085 263.622 103.016 264.508 102.536C265.394 102.055 266.049 101.171 266.253 100.184C268.13 99.7987 270.236 100.37 271.894 99.4107C273.299 98.5985 273.956 96.7005 273.357 95.1933C274.601 94.3723 274.999 92.551 274.305 91.2026Z" fill="#4A245E"/>
<path d="M240.447 111.895C240.549 114.263 242.491 116.111 244.785 116.023C247.08 115.935 248.856 113.945 248.755 111.577C248.654 109.209 246.712 107.361 244.418 107.449C242.123 107.537 240.346 109.527 240.447 111.895Z" fill="#FFBA99"/>
<path d="M246.063 112.711C246.063 112.711 245.93 109.603 243.071 110.202" stroke="#312220" stroke-width="0.558" stroke-linecap="round" stroke-linejoin="round"/>
<path d="M251.631 109.44C252.952 113.974 251.012 118.526 246.365 119.879C243.078 120.836 241.047 117.44 239.726 112.905C238.405 108.371 239.999 103.919 243.287 102.962C246.574 102.005 250.309 104.905 251.631 109.44Z" fill="#E83479"/>
<path d="M249.925 109.936C251.246 114.471 249.652 118.922 246.364 119.879C243.077 120.836 239.342 117.937 238.021 113.402C236.699 108.868 238.294 104.416 241.581 103.459C244.868 102.502 248.604 105.402 249.925 109.936Z" fill="#FF508A"/>
<path d="M241.852 104.978C241.852 104.978 240.937 101.064 241.427 96.7087C242.048 91.199 245.74 87.1022 250.732 85.8448C251.112 85.7491 251.516 85.6578 251.94 85.5744C253.399 85.2858 254.999 85.2497 256.398 85.8966C256.753 86.0611 257.099 86.2555 257.4 86.4829C257.4 86.4829 250.735 87.1213 247.854 91.1547C244.608 95.7 244.17 101.609 244.737 105.497L241.852 104.978Z" fill="#FF508A"/>
<path d="M229.656 155.97C229.656 155.97 220.217 166.14 213.651 168.275C211.276 169.048 208.443 165.988 207.427 163.199C206.563 160.832 206.036 156.265 207.905 153.209C210.685 148.664 220.278 142.186 220.278 142.186L229.656 155.97Z" fill="#FFB8BC"/>
<path d="M239.263 144.404C243.813 138.87 239.731 130.249 232.583 130.745C231.937 130.789 231.337 130.917 230.798 131.147C224.47 133.854 212.846 143.626 212.846 143.626L227.21 159.066L239.263 144.404Z" fill="#4A245E"/>
<path d="M203.629 109.699C203.146 107.764 203.388 105.695 204.63 104.043C206.64 101.367 209.569 99.5418 212.266 97.6402C214.558 96.0237 216.969 93.7206 220.01 94.4523C221.188 94.7356 222.488 95.4101 223.854 96.3876C224.919 97.1495 225.82 98.1434 226.826 98.998C227.092 99.2308 227.304 99.5055 227.471 99.7966C227.524 99.8918 227.572 99.9894 227.614 100.09C227.633 100.133 227.647 100.179 227.663 100.223C227.694 100.306 227.723 100.391 227.746 100.476C227.76 100.528 227.772 100.58 227.784 100.633C227.804 100.723 227.818 100.815 227.829 100.907C227.834 100.948 227.841 100.988 227.845 101.028C227.856 101.158 227.857 101.288 227.851 101.419C227.849 101.458 227.844 101.496 227.84 101.534C227.831 101.637 227.818 101.738 227.798 101.841C227.79 101.881 227.783 101.922 227.773 101.962C227.742 102.097 227.703 102.232 227.652 102.364C227.074 103.853 225.436 104.634 223.914 104.146L220.527 103.06C220.785 104.04 220.462 105.123 219.615 105.791C218.706 106.506 217.478 106.514 216.561 105.914L215.359 106.861C215.727 107.893 215.43 109.085 214.522 109.8C213.675 110.467 212.545 110.527 211.653 110.045L211.914 113.593C212.031 115.186 210.887 116.595 209.303 116.808C209.163 116.827 209.023 116.832 208.884 116.831C208.843 116.831 208.802 116.828 208.761 116.827C208.658 116.821 208.555 116.812 208.454 116.796C208.416 116.79 208.377 116.787 208.339 116.779C208.211 116.755 208.083 116.723 207.96 116.682C207.921 116.669 207.884 116.653 207.846 116.638C207.759 116.606 207.673 116.569 207.59 116.529C207.542 116.505 207.494 116.482 207.447 116.456C207.369 116.413 207.294 116.366 207.221 116.316C207.181 116.289 207.14 116.266 207.101 116.237C207.014 116.172 206.93 116.102 206.857 116.029C206.607 115.799 206.389 115.528 206.225 115.215C206.209 115.183 206.194 115.15 206.177 115.119C205.445 113.666 204.538 112.214 203.948 110.7C203.821 110.372 203.714 110.038 203.629 109.699Z" fill="#1C1C42"/>
<path d="M210.2 153.234L205.58 124.37L199.202 125.162L196.94 158.802C196.94 158.802 196.742 174.965 214.465 168.614C214.465 168.614 219.321 165.357 218.995 163.182C218.134 157.443 210.2 153.234 210.2 153.234Z" fill="#FFB8BC"/>
<path d="M205.578 124.371C205.578 124.371 208.603 117.836 207.903 112.232C207.428 108.426 203.991 105.683 200.156 105.737L200.15 105.737L199.073 126.716L199.002 128.117L205.578 124.371Z" fill="#FFB8BC"/>
<g opacity="0.42">
<path d="M432.834 81.9615C440.244 100.207 428.867 122.055 407.424 130.762C385.98 139.469 362.589 131.737 355.179 113.492C347.769 95.2467 359.146 73.3983 380.59 64.6913C402.034 55.9843 425.424 63.7166 432.834 81.9615Z" fill="#E8C6CC"/>
</g>
<path d="M448.55 218.695L444.037 242.253C444.037 242.253 450.325 250.877 456.587 248.257C458.801 247.33 462.026 219.439 462.026 219.439L448.55 218.695Z" fill="#FFB8BC"/>
<path d="M464.097 199.858C464.097 199.858 452.005 195.69 448.767 206.88C444.55 221.461 443.672 229.144 443.672 229.144L463.495 238.011L464.097 199.858Z" fill="#8AC9FF"/>
<path d="M452.04 237.912L431.723 218.97C431.474 218.738 431.117 218.666 430.798 218.782L426.909 220.204C426.383 220.396 426.156 221.017 426.437 221.502L442.384 249.165C444.693 253.169 453.031 253.146 456.4 249.982L458.071 243.38C458.478 242.998 458.444 242.343 458.001 242.004L452.108 237.97C452.085 237.952 452.062 237.933 452.04 237.912Z" fill="#FFB8BC"/>
<path d="M434.01 221.854C434.01 221.854 433.563 215.229 429.15 211.453C426.24 208.964 421.208 208.008 418.248 210.438L431.479 228.747L434.01 221.854Z" fill="#FFB8BC"/>
<path d="M434.646 202.153L448.493 220.007L414.469 235.791L403.823 213.096L434.646 202.153Z" fill="#1C1C42"/>
<g opacity="0.6">
<path d="M407.011 214.845L434.209 205.189L444.597 218.583L415.169 232.234L407.011 214.845Z" fill="#575370"/>
</g>
<path d="M423.499 208.991L429.956 206.698L429.27 225.692L423.554 228.344L423.499 208.991Z" fill="#575370"/>
<path d="M419.927 210.117L421.709 209.485L421.493 229.11L420.002 229.802L419.927 210.117Z" fill="#575370"/>
<path d="M461.771 388.907H450.567L447.925 404.466H459.13L461.771 388.907Z" fill="#FFB8BC"/>
<path d="M457.789 264.656L453.002 326.759L447.115 395.964H463.136L475.361 332.604L479.882 309.168L484.631 263.993L457.789 264.656Z" fill="#4A245E"/>
<path d="M435.49 407.25H461.653V402.424C461.653 401.761 461.006 401.222 460.18 401.183C458.408 401.101 455.492 400.757 454.049 399.421C453.474 398.889 452.66 398.561 451.78 398.561H447.373L433.716 403.184C431.725 403.858 430.578 405.544 430.949 407.25H435.49Z" fill="#1C1C42"/>
<path d="M430.879 408.802H461.653V407.25H430.879V408.802Z" fill="#723891"/>
<path d="M495.059 388.891H483.854V404.45H495.059V388.891Z" fill="#FFB8BC"/>
<path d="M472.526 265.8L504.55 260.432L500.583 329.203L496.591 398.433H482.235L477.183 329.412L472.526 265.8Z" fill="#723891"/>
<path d="M470.394 408.803H496.557V403.977C496.557 403.315 495.91 402.775 495.084 402.737C493.312 402.655 490.396 402.31 488.953 400.974C488.378 400.442 487.564 400.114 486.684 400.114H482.277L468.62 404.737C466.629 405.411 465.482 407.096 465.853 408.803H470.394Z" fill="#1C1C42"/>
<path d="M465.783 410.356H496.557V408.803H465.783V410.356Z" fill="#723891"/>
<path d="M473.622 195.284L454.368 199.865C452.415 200.33 451.091 202.145 451.246 204.146L456.457 269.005L506.44 264.764L497.782 206.158L495.685 200.828C494.705 198.335 492.381 196.628 489.709 196.436L473.622 195.284Z" fill="#B3DCFF"/>
<path d="M465.728 185.79L466.224 196.13C466.39 199.762 468.648 201.595 472.109 201.394C475.063 201.222 478.24 199.634 477.957 196.439L476.417 180.206L465.728 185.79Z" fill="#FFB8BC"/>
<path d="M466.336 196.121C466.336 196.121 474.493 192.974 476.653 183.365C477.333 180.338 465.656 184.731 465.656 184.731L466.336 196.121Z" fill="#FF808C"/>
<path d="M481.932 195.88L473.623 195.285L462.864 197.845C462.864 197.845 462.75 204.261 471.99 203.724C481.229 203.187 481.932 195.88 481.932 195.88Z" fill="#FFB8BC"/>
<path d="M453.707 165.553C453.707 165.553 448.097 174.608 456.167 175.184L453.707 165.553Z" fill="#4A245E"/>
<path d="M461.916 176.363C462.918 179.733 461.086 183.263 457.826 184.247C454.565 185.232 451.11 183.297 450.108 179.928C449.106 176.557 450.937 173.028 454.198 172.043C457.458 171.059 460.914 172.993 461.916 176.363Z" fill="#8AC9FF"/>
<path d="M471.585 189.33C466.04 191.378 459.802 188.542 457.922 183.921L454.043 174.234C451.688 168.443 454.202 161.875 459.725 159.392C465.379 156.85 473.061 159.085 475.659 164.933L478.591 172.519C481.238 179.345 478.053 186.422 471.585 189.33Z" fill="#FFB8BC"/>
<path d="M445.684 164.227C446.419 162.023 447.858 160.007 449.614 158.481C453.071 155.479 457.632 154.92 461.882 153.726C466.893 152.318 471.916 153.893 474.273 156.471C474.273 156.471 478.377 155.098 480.216 159.667C482.599 165.589 477.941 177.675 477.941 177.675C477.941 177.675 474.992 169.954 474.971 169.899C475.032 170.059 472.44 169.882 472.17 169.789C471.404 169.526 470.752 169.037 470.248 168.407C469.243 167.152 468.99 165.628 468.667 164.114C468.169 164.266 466.272 165.734 465.681 166.199C461.36 169.606 456.519 172.604 451.105 173.58C450.284 173.728 449.428 173.828 448.625 173.602C447.254 173.216 446.297 171.953 445.772 170.629C444.925 168.495 444.999 166.279 445.684 164.227Z" fill="#4A245E"/>
<path d="M483.93 172.679C484.606 174.95 483.372 177.329 481.174 177.993C478.976 178.656 476.647 177.353 475.972 175.081C475.296 172.809 476.53 170.43 478.728 169.767C480.926 169.103 483.255 170.407 483.93 172.679Z" fill="#FFBA99"/>
<path d="M478.886 175.277C478.886 175.277 478 172.296 480.898 171.932" stroke="#312220" stroke-width="0.558" stroke-linecap="round" stroke-linejoin="round"/>
<path d="M472.556 173.996C472.784 178.714 476.1 182.387 480.935 182.153C484.355 181.988 485.169 178.116 484.941 173.399C484.714 168.681 481.756 164.991 478.336 165.156C474.916 165.321 472.329 169.279 472.556 173.996Z" fill="#8AC9FF"/>
<path d="M474.331 173.91C474.558 178.628 477.516 182.318 480.936 182.153C484.355 181.988 486.944 178.031 486.716 173.313C486.488 168.596 483.531 164.905 480.111 165.07C476.691 165.235 474.103 169.193 474.331 173.91Z" fill="#B3DCFF"/>
<path d="M480.35 166.596C480.35 166.596 479.941 162.597 478.059 158.639C475.677 153.631 470.852 150.959 465.723 151.394C465.332 151.428 464.921 151.473 464.493 151.532C463.019 151.734 461.495 152.221 460.383 153.288C460.1 153.559 459.836 153.855 459.626 154.168C459.626 154.168 466.136 152.602 470.174 155.479C474.724 158.72 477.062 164.164 477.792 168.025L480.35 166.596Z" fill="#B3DCFF"/>
<path d="M479.725 218.059C479.725 218.059 481.662 235.595 484.146 240.294C485.28 242.441 491.962 241.187 494.726 239.545C499.198 236.891 498.464 231.646 498.464 231.646L496.256 215.817L479.725 218.059Z" fill="#FFB8BC"/>
<path d="M480.661 204.764C480.984 197.607 489.787 193.932 494.767 199.082C495.217 199.547 495.579 200.044 495.825 200.576C498.716 206.821 500.815 221.859 500.815 221.859L479.807 223.723L480.661 204.764Z" fill="#8AC9FF"/>
<path d="M472.779 230.64L449.725 213.552L453.251 208.179C453.251 208.179 484.085 216.245 492.908 227.211C496.945 232.228 491.766 242.295 485.229 240.843C481.948 240.115 472.779 230.64 472.779 230.64Z" fill="#FFB8BC"/>
<path d="M454.77 209.079C454.77 209.079 445.755 203.561 440.115 203.258C436.285 203.052 432.976 205.948 432.35 209.733L432.349 209.737L452.278 214.538L454.77 209.079Z" fill="#FFB8BC"/>
</g>
</g>
<defs>
<clipPath id="clip0_6_30">
<rect width="672" height="493" fill="white"/>
</clipPath>
</defs>
</svg>
