<svg width="41" height="41" viewBox="0 0 41 41" fill="none" xmlns="http://www.w3.org/2000/svg">
<path d="M34.7083 5.94137C32.8365 4.05064 30.607 2.55153 28.1498 1.53148C25.6925 0.511425 23.0568 -0.0091469 20.3962 0.000121621C9.24875 0.000121621 0.163334 9.08554 0.163334 20.233C0.163334 23.806 1.1025 27.2768 2.85833 30.3393L0 40.8335L10.7188 38.016C13.6792 39.6289 17.0071 40.4864 20.3962 40.4864C31.5438 40.4864 40.6292 31.401 40.6292 20.2535C40.6292 14.843 38.5263 9.75929 34.7083 5.94137ZM20.3962 37.0564C17.3746 37.0564 14.4142 36.2397 11.8212 34.7085L11.2087 34.341L4.83875 36.0151L6.53333 29.8085L6.125 29.1755C4.44623 26.4948 3.55483 23.3961 3.5525 20.233C3.5525 10.9639 11.1067 3.40971 20.3758 3.40971C24.8675 3.40971 29.0938 5.16554 32.2583 8.35054C33.8253 9.9103 35.0671 11.7656 35.9117 13.8088C36.7563 15.852 37.187 18.0426 37.1788 20.2535C37.2196 29.5226 29.6654 37.0564 20.3962 37.0564ZM29.6246 24.4797C29.1142 24.2347 26.6233 23.0097 26.1742 22.826C25.7046 22.6626 25.3779 22.581 25.0308 23.071C24.6838 23.5814 23.7242 24.7247 23.4383 25.0514C23.1525 25.3985 22.8463 25.4393 22.3358 25.1739C21.8254 24.9289 20.1921 24.3776 18.2729 22.6626C16.7621 21.3151 15.7617 19.6614 15.4554 19.151C15.1696 18.6405 15.4146 18.3751 15.68 18.1097C15.9046 17.8851 16.1904 17.5176 16.4354 17.2318C16.6804 16.946 16.7825 16.7214 16.9458 16.3947C17.1092 16.0476 17.0275 15.7618 16.905 15.5168C16.7825 15.2718 15.7617 12.781 15.3533 11.7601C14.945 10.7801 14.5163 10.9026 14.21 10.8822H13.23C12.8829 10.8822 12.3521 11.0047 11.8825 11.5151C11.4333 12.0255 10.1267 13.2505 10.1267 15.7414C10.1267 18.2322 11.9438 20.6414 12.1888 20.968C12.4338 21.3151 15.7617 26.4193 20.825 28.6039C22.0296 29.1347 22.9688 29.441 23.7038 29.6655C24.9083 30.0535 26.0108 29.9922 26.8888 29.8697C27.8688 29.7268 29.89 28.6447 30.2983 27.4605C30.7271 26.2764 30.7271 25.276 30.5842 25.0514C30.4413 24.8268 30.135 24.7247 29.6246 24.4797Z" fill="#FAFAFA"/>
</svg>
